<?xml version="1.0" encoding="utf-8"?><svg width="180" height="120" fill="none" xmlns="http://www.w3.org/2000/svg" viewBox="0 0 180 120"><g fill="#fff"><path d="M91.746 120l-.086-.725a210.984 210.984 0 00-.817-6.104c-.35-2.347-.719-4.671-1.166-6.894-.452-2.241-.99-4.426-1.68-6.51-.783-2.37-1.623-4.125-2.609-5.591-.982-1.46-2.126-2.653-3.513-3.898-8.002-7.178-17.012-10.54-24.896-13.483-7-2.612-13.129-4.9-17.017-9.246a52.5 52.5 0 00-3.982-3.979 57.63 57.63 0 00-4.522-3.67c-3.576-2.616-7.172-3.681-9.853-3.588-1.085.038-2.01.268-2.703.66-.64.362-1.079.866-1.253 1.485-.189.673-.08 1.508.398 2.477.288.584 1.879 2.486 3.781 4.655 2.868 3.268 6.427 7.112 7.386 8.047.955.934 2.532 1.998 4.331 3.213 4.614 3.114 10.657 7.193 12.219 13.02l.536 2-1.476-1.445c-.58-.568-1.037-1.295-1.587-2.168-1.159-1.841-2.754-4.377-6.7-7.156-.802-.564-1.509-1.11-2.205-1.648-.925-.716-1.836-1.42-2.858-2.084-2.202-1.433-2.718-2.004-3.929-3.345l-.846-.932c-.694-.75-1.605-1.653-2.582-2.623-3.48-3.454-7.817-7.762-8.29-11.164-.333-2.392 1.071-4.28 5.58-5.075-.621-1.507-1.736-3.564-2.959-5.618-1.759-2.952-3.732-5.88-4.802-7.176l-.457-.556c-2.514-3.082-6.69-8.195-12.057-6.379.094 2.905 2.253 6.481 3.554 8.636l.163.271c1.683 2.794 3.034 5.665 4.459 8.693l.072.154c.727 1.546 1.347 3.202 1.958 4.834.604 1.61 1.2 3.2 1.878 4.622.618 1.297 2.363 3.942 4.297 6.875 2.142 3.248 4.516 6.848 5.903 9.445.639 1.195 1.142 2.327 1.628 3.422.802 1.807 1.56 3.512 2.853 5.272 2.247 3.06 11.271 9.643 17.497 14.184 1.85 1.35 3.46 2.524 4.532 3.341a333.75 333.75 0 003.843 2.874c6.321 4.678 9.75 7.215 11.144 12.877h-1.176c-1.377-5.105-4.667-7.54-10.636-11.957a334.213 334.213 0 01-3.856-2.884c-1.146-.873-2.71-2.014-4.51-3.327C38.45 97.248 29.34 90.603 26.99 87.403c-1.365-1.858-2.149-3.62-2.977-5.487-.473-1.064-.962-2.166-1.592-3.346-1.36-2.548-3.722-6.127-5.85-9.355-1.957-2.966-3.721-5.64-4.374-7.01-.697-1.461-1.303-3.078-1.916-4.715-.603-1.608-1.214-3.24-1.924-4.75l-.072-.154c-1.412-3-2.75-5.844-4.401-8.586l-.164-.27C2.298 41.371-.107 37.39.004 34.081l.012-.377.348-.137c6.3-2.474 10.931 3.199 13.695 6.585l.456.554c1.099 1.334 3.103 4.302 4.88 7.284a25.83 25.83 0 01-.199-1.267c-.282-2.11-.616-4.276-.983-6.431-.373-2.186-.78-4.336-1.204-6.38-.953-4.585-1.615-6.252-2.278-7.918-.41-1.033-.822-2.068-1.296-3.747l-.151-.535.53-.165c.308-.097.636-.214.963-.332 1.774-.635 3.568-1.277 5.885.002 1.575.87 2.886 2.59 4 4.8a.987.987 0 01.233-.43c.73-.761 1.788-.826 2.864-.566 1.544.373 3.18 1.456 3.68 1.937 3.208 3.09 4.029 7.188 4.942 11.755.362 1.808.74 3.693 1.29 5.61.436 1.523.892 2.954 1.352 4.328-.238-2.392-.39-5.265-.465-6.69l-.027-.494.212-.184c.178-.154.858-.303 1.547-.385.63-.074 1.317-.114 1.626-.068 4.28.645 5.132 8.48 5.637 13.128.094.862.176 1.613.255 2.129.918 5.923 2.441 9.28 3.638 11.918.9 1.98 1.62 3.57 1.801 5.55l.057.628c1.311.513 2.67 1.02 4.064 1.54 7.98 2.978 17.099 6.38 25.26 13.701 1.444 1.296 2.642 2.55 3.693 4.113 1.045 1.555 1.93 3.398 2.747 5.866.704 2.131 1.253 4.36 1.714 6.645.463 2.304.833 4.626 1.18 6.953.302 2.032.576 4.08.822 6.14l.1.858h-1.138zM43.747 69.4l.547.38-.063-.213-.484-.167zm-21.09-14.208l.5.042a1.485 1.485 0 01-.216-.11l.009.026-.294.042zm17.04-13.071c.13 2.476.459 8.432.97 9.68a65.64 65.64 0 011.549 4.15c.458 1.372.873 2.78 1.291 4.364.143.543.43 2.07.745 3.743.46 2.453.984 5.233 1.098 5.396.13.185 1.33.82 2.742 1.512 1.37.672 2.908 1.369 3.9 1.775-.277-1.409-.867-2.709-1.573-4.262-1.223-2.698-2.783-6.134-3.725-12.216a51.626 51.626 0 01-.265-2.179c-.469-4.322-1.261-11.61-4.677-12.123-.21-.032-.783.008-1.334.073l-.72.087zm3.495 25.812c-.779-6.13-2.336-10.575-4.01-15.352-.86-2.458-1.753-5.004-2.595-7.94-.56-1.955-.944-3.869-1.311-5.704-.876-4.38-1.663-8.308-4.617-11.153-.424-.408-1.825-1.332-3.16-1.654-.718-.174-1.394-.163-1.79.248-.29.302.613 2.34 1.21 3.69.176.397.328.74.431 1.012.882 2.314 1.658 5.939 2.461 9.697.695 3.25 1.412 6.6 2.218 9.218.343 1.117.77 1.964 1.208 2.84.354.703.717 1.426 1.064 2.335.344.898.633 1.81.916 2.703.342 1.08.676 2.136 1.091 3.105.318.74 1.498 1.845 2.462 2.749.479.449.91.852 1.194 1.176l.533.624c.77.914 1.51 1.791 2.696 2.406zM14.676 22.46c.398 1.335.752 2.223 1.104 3.11.681 1.712 1.362 3.425 2.335 8.11a185.907 185.907 0 012.2 12.892c.324 2.405.663 3.005 1.412 4.329l.528.95c.326.602.548 1.047.72 1.39.267.537.395.794.518.885.107.08.348.129.806.221.428.086 1.02.205 1.886.438 1.897.51 3.599 1.304 5.076 2.248a18.53 18.53 0 012.63 2.035c-.456-1.318-1.105-2.802-1.741-4.257-.709-1.62-1.404-3.209-1.818-4.534-.58-1.857-1.152-4.44-1.785-7.302-1.78-8.046-4.061-18.349-8.423-20.758-1.874-1.034-3.43-.477-4.971.073l-.477.17z"/><path d="M87 120a213.32 213.32 0 011.04-8.026c.347-2.334.716-4.658 1.179-6.954.461-2.288 1.01-4.518 1.713-6.644.816-2.469 1.702-4.312 2.747-5.867 1.05-1.561 2.25-2.817 3.694-4.113 8.16-7.32 17.279-10.723 25.259-13.7 1.394-.52 2.752-1.028 4.063-1.54l.058-.628c.18-1.98.902-3.57 1.801-5.551 1.197-2.637 2.72-5.995 3.638-11.918.079-.516.161-1.267.255-2.129.505-4.647 1.358-12.483 5.637-13.127.309-.047.997-.006 1.626.067.689.082 1.368.23 1.547.386l.211.183-.026.495c-.075 1.425-.227 4.297-.465 6.69.46-1.375.916-2.806 1.353-4.33.549-1.915.927-3.8 1.289-5.609.913-4.567 1.734-8.665 4.943-11.755.499-.48 2.135-1.563 3.678-1.937 1.077-.26 2.136-.195 2.862.564a.989.989 0 01.236.431c1.114-2.21 2.425-3.929 4-4.799 2.317-1.279 4.11-.637 5.885-.002.327.118.655.235.964.332l.529.165-.151.536c-.474 1.678-.885 2.713-1.296 3.747-.663 1.666-1.326 3.332-2.278 7.916a187.837 187.837 0 00-2.188 12.812c-.064.484-.13.9-.199 1.267 1.778-2.982 3.782-5.95 4.882-7.283l.454-.556c2.765-3.385 7.397-9.058 13.696-6.584l.347.137.013.377c.111 3.308-2.294 7.29-3.717 9.648l-.164.27c-1.651 2.742-2.989 5.587-4.401 8.587l-.072.154c-.711 1.51-1.321 3.141-1.924 4.748-.613 1.639-1.219 3.255-1.916 4.717-.653 1.369-2.417 4.043-4.373 7.01-2.129 3.227-4.49 6.806-5.85 9.354-.63 1.18-1.12 2.282-1.593 3.346-.828 1.867-1.611 3.63-2.976 5.487-2.351 3.2-11.46 9.845-17.745 14.429-1.799 1.313-3.364 2.454-4.51 3.327a333.963 333.963 0 01-3.857 2.885c-6.356 4.703-9.674 7.159-10.879 12.985h-1.157c1.227-6.4 4.677-8.954 11.368-13.905 1.169-.865 2.441-1.806 3.844-2.875 1.072-.817 2.682-1.991 4.533-3.34 6.225-4.542 15.249-11.124 17.496-14.184 1.293-1.76 2.051-3.466 2.853-5.273.487-1.095.99-2.227 1.628-3.422 1.386-2.597 3.761-6.197 5.903-9.445 1.934-2.932 3.679-5.578 4.297-6.875.678-1.422 1.274-3.011 1.877-4.622.612-1.632 1.232-3.288 1.959-4.833l.072-.155c1.425-3.028 2.776-5.9 4.459-8.693l.163-.27c1.301-2.155 3.459-5.732 3.554-8.637-5.368-1.815-9.544 3.298-12.057 6.377l-.455.558c-1.072 1.296-3.046 4.224-4.804 7.176-1.223 2.054-2.337 4.11-2.96 5.618 4.51.795 5.914 2.683 5.581 5.075-.473 3.402-4.811 7.71-8.29 11.164-.977.97-1.888 1.873-2.582 2.623l-.847.932c-1.21 1.341-1.726 1.912-3.928 3.345-1.022.664-1.932 1.368-2.858 2.084-.696.537-1.403 1.084-2.206 1.648-3.945 2.78-5.541 5.315-6.699 7.156-.55.873-1.007 1.6-1.587 2.168L133.7 90.84l.536-2c1.562-5.827 7.605-9.907 12.218-13.02 1.8-1.215 3.377-2.28 4.329-3.21.962-.938 4.521-4.782 7.389-8.05 1.902-2.169 3.493-4.071 3.781-4.655.478-.97.587-1.804.398-2.477-.175-.619-.612-1.123-1.253-1.485-.694-.392-1.618-.622-2.703-.66-2.681-.093-6.277.972-9.854 3.587a57.845 57.845 0 00-4.521 3.672 52.24 52.24 0 00-3.98 3.978c-3.89 4.347-10.019 6.634-17.019 9.246-7.885 2.943-16.894 6.305-24.895 13.483-1.389 1.245-2.532 2.439-3.514 3.898-.986 1.466-1.826 3.221-2.61 5.59-.69 2.088-1.228 4.271-1.677 6.509-.45 2.233-.819 4.553-1.168 6.897a212.436 212.436 0 00-1.02 7.857H87zm48.706-51.249l.546-.38-.483.168-.063.212zm21.138-14.546l.5-.042-.294-.042.008-.025a1.547 1.547 0 01-.214.11zm-17.51-3.433c.51-1.247.838-7.203.969-9.68l-.721-.087c-.551-.065-1.125-.105-1.335-.073-3.415.514-4.207 7.801-4.676 12.121a53.72 53.72 0 01-.265 2.18c-.942 6.083-2.502 9.519-3.726 12.217-.705 1.553-1.295 2.854-1.571 4.263a72.302 72.302 0 003.899-1.776c1.411-.693 2.612-1.327 2.74-1.51.116-.165.639-2.945 1.1-5.398.314-1.673.602-3.2.745-3.743a69.866 69.866 0 011.291-4.364 65.866 65.866 0 011.55-4.15zm1.484.78c-1.674 4.777-3.231 9.223-4.01 15.352 1.186-.614 1.925-1.492 2.695-2.406l.534-.623c.284-.325.714-.728 1.193-1.177.964-.904 2.145-2.008 2.461-2.749.416-.968.751-2.025 1.092-3.105.283-.893.572-1.805.915-2.703.349-.908.711-1.631 1.065-2.335.439-.876.864-1.723 1.208-2.84.806-2.618 1.523-5.968 2.217-9.218.804-3.758 1.58-7.383 2.461-9.697.103-.27.256-.615.431-1.01.598-1.352 1.5-3.39 1.211-3.692-.396-.41-1.072-.422-1.79-.248-1.334.322-2.736 1.246-3.161 1.654-2.953 2.845-3.74 6.774-4.616 11.153-.367 1.835-.75 3.749-1.311 5.704-.842 2.936-1.734 5.482-2.595 7.94zm23.402-27.01c.353-.887.706-1.775 1.105-3.11l-.477-.17c-1.54-.55-3.097-1.107-4.971-.073-4.362 2.41-6.643 12.712-8.423 20.758-.633 2.862-1.205 5.445-1.785 7.302-.414 1.326-1.109 2.914-1.818 4.534-.636 1.455-1.285 2.94-1.74 4.257a18.522 18.522 0 012.629-2.035 18.205 18.205 0 015.076-2.248 27.277 27.277 0 011.886-.437c.458-.093.699-.14.806-.221.122-.092.251-.35.519-.885a41.106 41.106 0 011.247-2.339c.749-1.325 1.088-1.925 1.411-4.332a186.134 186.134 0 012.2-12.892c.974-4.684 1.655-6.397 2.335-8.109z"/></g><path fill-rule="evenodd" clip-rule="evenodd" d="M89.879 10.936C84.278 3.088 77.529.348 68.34 1.459 50.608 3.6 42.652 28.897 48.116 43.669c3.004 8.12 13.737 17.43 19.94 22.91l21.823 20.65c4.06-3.712 6.7-7.421 10.821-11.034 8.946-7.846 27.001-21.873 31.022-32.307 4.904-12.725-.753-28.002-6.856-35.133-10.731-12.537-25.32-9.306-34.987 2.18z" fill="#FEFEFE"/><path fill-rule="evenodd" clip-rule="evenodd" d="M47.755 23.105c.184.08.312.178.345.301.223.841-.274 2.97.125 2.979l6.963.136-.193 1.095-3.691.127-.068 2.55 7.503.126-.08 2.21c-.113 3.22-.18 4.33 4.865 5.692 5.044 1.363 11.548 2.643 18.151 3.424 4.675.552 9.358-.366 14.087-.274 1.95.038 3.945 1.262 5.893 1.23 2.103-.032 3.642-2.52 5.711-2.632 4.499-.247 9.417 1.725 13.359 1.06 2.114-.357 4.109-.778 5.95-1.288a3.613 3.613 0 01-.171-1.056l-.457-1.373.009-.003.044.095-.013.005.354.295-.394-.393.008-.003-.008-.024-.008.002.008.025c-.109-.379-.1-1.216.246-1.504l-.001-.044c-.362 0-.886-.08-1.279-.29-1.752-.39-1.181-1.344.586-1.765l2.476-.28-.189-1.739-.003.011.005-.011h-.002l.06-.163c.239-.363.782-.603 1.034-.084.729.208.168.947.168 1.952l3.73.66-.005.002c1.336.214-.287 1.673-.91 1.733a38.61 38.61 0 01-.564.05c.047.296-.018.628-.264.959.09.452.28 1.39-.378 1.514l-.015.037c.944-.4 1.822-.838 2.628-1.32 1.291-10.995-3.454-22.473-8.504-28.374-10.73-12.537-25.32-9.306-34.987 2.18C84.278 3.089 77.529.349 68.34 1.46c-10.659 1.287-17.784 10.94-20.586 21.646zm79.067 16.243l-.205.328-.014.003.219-.331z" fill="#A2D9F7"/><path fill-rule="evenodd" clip-rule="evenodd" d="M132.903 35.106l-1.78.781v2.155l-.309.126-.244 3.656-.152.127-.093 1.994.889.109c.249-.718-.008-1.11.8-2.61.049-.092.099-.181.15-.268.144-1.974 1.209-3.858.911-5.029a6.07 6.07 0 01-.172-1.041zm-2.656 10.775l-4.592.155-.044-1.815 1.246-.276-.698-8.063-2.386-1.188s.517-.633 1.712-.857c.817-.154 1.672-.282 2.505-.318l-.023-.449s-1.163-1.307-2.113-1.52c-4.078-.916-4.526 1.48-5.743 4.574 0 0-.92-1.026-1.33-1.138-.41-.113-1.929-.35-2.721.414-.792.765-1.159 2.23-1.159 2.23s-.211.627-.898.652c-.688.026-.433-.046-.716.026-.283.071-.624.929-.624.929l-.423.387-1.296-1.144s-.621-.455-1.555-.15c-.934.307-1.716.735-1.716.735l.82.868 1.764 2.404s.462.743 1.293.741c.831-.002 2.01-.067 2.01-.067s1.541.334 1.96.686c.42.352 1.667 1.518 1.667 1.518l.853 1.57.352.457s1.923-.136 2.452-.087c.529.048 1.527.326 1.527.326s2.343.776 2.698 1.045c.967.732 1.682 1.312 2.244 2.233.268-.662.593-1.304.982-1.885.278-1.174.928-2.254 1.951-2.99l.001-.003z" fill="#95C98C"/><path fill-rule="evenodd" clip-rule="evenodd" d="M58.76 57.285c3.175 3.191 6.486 6.113 9.105 8.424l.535.473.015.013 21.47 20.315c1.747-1.63 3.251-3.279 4.746-4.918 1.775-1.945 3.539-3.877 5.727-5.796 1.37-1.201 3.025-2.607 4.815-4.128 5.327-4.527 11.886-10.1 17.199-15.67l-.57-.106-3.403-.444-3.98.797-2.69 1.147-.03.012-2.828.996-.087.03h-.093l-2.659-.045-.04-.001-.034-.006-2.947-.482-.033-.006c-.008-.002-2.662-.586-2.8-.586-.147 0-8.887.084-8.912.084h-.004l-7.641.028h-.013l-7.63-.198-1.832.405-3.373 1.778-.063.033-.06.014-1.606.38-.04.01-.048.003-1.632.099-.114.007-.103-.04-6.006-2.325-2.341-.297zm-1.364-.64c3.696 3.82 7.695 7.315 10.66 9.934L89.88 87.23c4.06-3.712 6.7-7.421 10.821-11.034 5.838-5.12 15.553-12.871 22.717-20.54l-1.529-.283-3.511-.458-4.105.822-2.745 1.17-2.828.996-2.659-.044-2.947-.483s-2.745-.6-2.915-.6c-.17 0-8.916.086-8.916.086l-7.641.028-7.699-.2-1.95.432-3.44 1.813-1.607.38-1.632.099-6.065-2.348-3.638-.461-.194.04z" fill="#2497D1"/><path fill-rule="evenodd" clip-rule="evenodd" d="M57.396 56.645c3.696 3.82 7.695 7.315 10.66 9.934L89.88 87.23c4.06-3.712 6.7-7.421 10.821-11.034 5.838-5.12 15.553-12.871 22.717-20.54l-1.529-.283-3.511-.458-4.105.822-2.745 1.17-2.828.996-2.659-.044-2.947-.483s-2.745-.6-2.915-.6c-.17 0-8.916.086-8.916.086l-7.641.028-7.699-.2-1.95.432-3.44 1.813-1.607.38-1.632.099-6.065-2.348-3.638-.461-.194.04z" fill="#0A689D"/><path fill-rule="evenodd" clip-rule="evenodd" d="M92.761 32.13h4.224v6.88h-2.293v.457h-4.981v.029h-9.093v-1.972h-3.076v.571h-4.237v-5.723h4.237v2.723h3.076V30.17h9.093v4.926h3.05v-2.967z" fill="#FEFEFE"/><path fill-rule="evenodd" clip-rule="evenodd" d="M58.66 32.63l-1.376 11.015-6.14.075.125 2.304 7.61.126-1.162 10.445 4.824.808 4.717 1.876v-7.55l-.504-.127-.124-5.964.752-.222-.087-1.157.823-1.278.874-.81.175-1.371.977-.105-.017 1.015h.224v.61l1.059.927.632.895.095 1.434.317.127.125.38 7.73-2.262.09-.723-.194-.638.34-.56h1.157l.264.897-.39.27.639.818 12.636-.015.459-.724-.323-.454.318-.57 1.058-.096.385.602-.264.518.513.805 7.286 2.245.039-.645.718-.416.055-1.226.901-.987.536-.293.302-1.83s.345-.219.444-.219c.099 0 .433.112.427.112l.207 1.068 1.795 2.42.133 1.396.425.226-.191 6.068-.338.126v5.56l4.885-1.768c1.242-.84 2.834-1.142 4.355-.67l3.99.474c.826-1.323 1.926-2.137 1.93-2.142.692-1.151 1.567-2.012 2.523-2.604-.521-.949-1.272-1.83-2.35-2.32-3.178-1.447-2.861-1.032-3.974-1.224-1.113-.192-2.834-.058-2.834-.058s-1.213-2.581-2.105-3.177c-.891-.596-1.81-.857-2.53-.92-.721-.063-2.738-.126-2.738-.126s-.902-.866-1.166-1.496c-.263-.63-2.396-2.699-2.396-2.699l-2.098-.917-3.657-.996-6.876 1.39-3.228-1.828-4.877-.208-3.613 2.442-2.094-.951-5.823-.06-4.673-3.285-5.044.682-2.417-1.78-1.953-.495-2.313-.19z" fill="#95C98C"/><path fill-rule="evenodd" clip-rule="evenodd" d="M88.126 49.234h5.448v2.808h7.409v1.259h-.163v1.234h4.928v.927h-.909v.539c-.291.439-.243 1.254-.525 1.68 0 0-.635.698-.889 1.046-.693-.228-1.421-.443-1.931-.757-1.91-.994-4.07-.94-6.14-.592-1.612.271-4.218.983-5.676 1.96-2.12.248-3.5.136-5.79-.101-3.307-1.262-2.629-.874-5.456-1.574-.708 0-2.978-.006-3.725.692l.046-.166-.537-2.727h-.869v-.927h3.529V53.3h-.386v-1.259h11.636v-2.808z" fill="#D9DADA"/><path fill-rule="evenodd" clip-rule="evenodd" d="M64.16 20.318l3.95.007-.048 5.386.684.066v6.38h.795l.125 2.154-1.197.18-2.284.501-.703.404-.973-.892-1.168-.985-.98-.483.125-.683.76-.3V25.65h.67l.243-5.332z" fill="#FEFEFE"/><path fill-rule="evenodd" clip-rule="evenodd" d="M75.298 27.367c-.194.07-.406.339-.646.65-.24.312-.507.667-.76.942-.254.275-.494.47-.681.689a2.363 2.363 0 00-.397.655.75.75 0 00-.03.543c.06.202.197.46.296.677.099.218.16.396.885.485.725.088 2.113.088 2.856 0 .743-.09.84-.267.92-.437a2.151 2.151 0 00.221-1.157 1.281 1.281 0 00-.237-.676c-.179-.273-.494-.626-.83-1.003-.335-.377-.69-.779-.957-1.044s-.445-.393-.64-.324zM94.727 27.353c-.194.072-.406.346-.646.664-.24.318-.507.68-.76.961-.254.281-.493.48-.681.704a2.428 2.428 0 00-.397.67.783.783 0 00-.03.554c.06.206.197.47.296.692.099.222.16.404.885.494.725.091 2.113.091 2.856 0 .743-.09.84-.272.92-.445a2.244 2.244 0 00.221-1.182 1.326 1.326 0 00-.237-.69c-.179-.28-.494-.64-.83-1.025-.335-.386-.69-.796-.957-1.067-.267-.27-.445-.401-.64-.33zM85.05 20.687c-.632.08-1.402 1.347-1.91 2.12-.508.773-.754 1.05-1.079 1.383-.323.332-.726.717-1.023 1.121-.297.404-.487.826-.647 1.234-.16.408-.286.8-.312 1.3-.026.499.05 1.104.302 1.525.252.42.682.657 2.074.775 1.392.119 3.746.119 5.095.057 1.35-.06 1.692-.184 2.02-.429.328-.243.639-.61.705-1.18.067-.568-.11-1.34-.32-1.875-.208-.535-.446-.834-.714-1.16a21.13 21.13 0 00-.998-1.14c-.434-.46-1.003-1.027-1.535-1.865-.531-.838-1.025-1.945-1.657-1.866zM65.925 16.238c-.174.069-.363.33-.578.632-.214.303-.453.648-.68.915-.227.268-.44.458-.608.67a2.353 2.353 0 00-.355.638.789.789 0 00-.027.527c.054.197.176.447.273.603.096.156.168.217.845.241.676.024 1.958.01 2.614-.02.656-.03.686-.078.73-.181.043-.103.1-.26.135-.449a2.59 2.59 0 00.034-.613 1.317 1.317 0 00-.212-.657c-.16-.266-.442-.61-.742-.976-.3-.367-.618-.758-.857-1.015-.238-.258-.397-.382-.572-.315z" fill="#FFED00"/><path fill-rule="evenodd" clip-rule="evenodd" d="M102.971 18.396l.001.039c0 .424-.377.768-.844.768a.878.878 0 01-.627-.254c-.394.286-.936.462-1.535.462-1.001 0-1.845-.494-2.102-1.168a2.822 2.822 0 01-.986.17c-.294 0-.572-.04-.822-.115a1.058 1.058 0 01-.928.532c-.524 0-.958-.365-1.037-.842-1.325-.102-2.36-.999-2.36-2.089 0-1.16 1.17-2.099 2.615-2.099.163 0 .323.012.479.035.059-.556.56-.99 1.168-.99.314 0 .6.116.811.305.303-.822 1.327-1.428 2.545-1.428 1.455 0 2.635.865 2.635 1.933 0 .183-.035.36-.1.528.163-.033.335-.05.512-.05 1.091 0 1.976.66 1.976 1.475 0 .233-.072.453-.2.648 2.348.046 4.194.51 4.194 1.077 0 .597-2.046 1.08-4.57 1.08-.282 0-.557-.005-.825-.017zM106.016 24.23c-.764 2.637 3.576.889 3.695.718.182.127.238.54.466.598.228.058.598-.23.784-.238.068.25.274.462.555.534.365.093.731-.083.869-.4.941.165 1.818-.272 2.007-1.029.202-.804-.451-1.664-1.457-1.921a2.401 2.401 0 00-.34-.06c.055-.397-.218-.788-.642-.896a.868.868 0 00-.618.068c-.068-.624-.677-1.227-1.525-1.443-1.015-.26-1.987.131-2.173.872a1.058 1.058 0 00-.022.384c-.108-.052.105-.074-.348-.126-1.659-.192-1.571 1.73-1.571 1.73-.991-1.16-3.487.769-.668 1.488.977.25.8-.32.988-.28z" fill="#FEFEFE"/><path fill-rule="evenodd" clip-rule="evenodd" d="M74.932 19.765c.59.13 1.001.402 1.423.828l.178.331s.137-.828.506-1.27c.37-.442.793-.884.793-.884s-.711.332-.861.477c-.15.145-.513.78-.513.78-.635-.52-.688-.337-1.526-.262zM78.193 21.313c.438.329.676.71.865 1.22l.024.34s.42-.63.888-.855c.469-.225.982-.429.982-.429s-.71.004-.887.067c-.178.063-.712.45-.712.45-.33-.67-.441-.538-1.16-.793zM97.156 25.315c.544.05.944.25 1.37.585l.195.278s.032-.76.316-1.198c.283-.438.616-.883.616-.883s-.603.378-.722.525c-.12.147-.376.758-.376.758-.627-.396-.654-.226-1.399-.065zM106.462 14.318c.305.028.529.14.767.328l.11.156s.018-.426.177-.672c.159-.245.345-.494.345-.494s-.338.21-.405.294c-.067.082-.21.425-.21.425-.352-.223-.367-.127-.784-.037zM57.653 27.839c.305.028.528.14.767.328l.11.156s.018-.426.177-.672c.158-.245.345-.494.345-.494s-.338.21-.405.294c-.067.082-.21.424-.21.424-.352-.222-.367-.126-.784-.036z" fill="#0A689D"/><path fill-rule="evenodd" clip-rule="evenodd" d="M130.4 46.397v.097h-5.72v-.097h-.475c.377.09.768.262 1.151.465.255.136.486.32.71.502.096.078.222.187.329.245.008.004.031.016.04.015a.49.49 0 00.082-.11c.298-.467.79-.903 1.355-.966.606-.068 1.04.288 1.581.28.263-.004.495-.099.743-.173l.161-.049-.049.376-.07.019c-.246.066-.526.163-.78.167-.542.007-1.027-.341-1.551-.282-.463.052-.875.434-1.117.815-.144.227-.267.359-.545.21-.374-.2-.659-.545-1.038-.746-.919-.488-1.927-.874-2.562.128 1.983.43 3.241 1.3 4.444 2.978l.046.064-.21.294-.088-.125c-.495-.706-1.117-1.4-1.829-1.887-1.797-1.227-4.506-1.338-6.613-1.265-.361.013-.375-.029-.516-.35-.503-1.199-1.243-2.402-2.351-3.117-1.112-.717-2.696-.732-3.975-.697-1.024.028-1.15-.266-1.625-1.103-.839-1.476-1.697-2.487-3.177-3.336-1.597-.916-3.845-1.591-5.684-1.628-.804-.016-1.636.076-2.428.21-1.188.2-2.1.539-3.158 1.116-.315.172-.453.31-.768.018-.49-.453-1.047-.714-1.62-1.035-.461-.26-.884-.486-1.392-.643-1.788-.553-4.22-.783-5.96.025-.731.34-1.34.806-1.917 1.367-.722.704-1.01.955-1.942.349a4.323 4.323 0 00-1.597-.691 10.655 10.655 0 00-5.052.074c-.25.064-.292.05-.442-.162-.707-1-2.32-2.24-3.426-2.753-1.935-.897-3.816-.3-5.684.442-.172.069-.303.136-.424-.07-.132-.209-.426-.451-.616-.612-2.022-1.714-3.338-1.992-5.9-1.895l-1.111 8.887c.387.197.74.395 1.09.663 1.09.836 2.093 2.184 2.389 3.549.049.226.079.456.106.686.114.958.225 1.008 1.157 1.075 1.745.126 2.997.822 4.149 2.07V45.18h.596c-.096-1.03.38-2.05 1.256-2.593v-.653h.51v-.492h.05v-.752h.248v-.233h1.07v.985h.207v.492h.484v.622c.911.534 1.404 1.574 1.308 2.624h.436v.752a168.74 168.74 0 017.142-2.132v-.215h.248v-.325h.215v-.227h-.323v-.809h.323v-.434h1.517v.434h.389v.81h-.389v.226h.215v.325h.298v.19h5.497v-.125h.331v-.292h.599v.292h.364v.124l5.5-.047v-.142h.249v-.325h.215v-.227h-.323v-.809h.323v-.434h1.517v.434h.389v.81h-.389v.226h.215v.325h.298v.283l7.102 2.063v-.718h.6l-.002-.022c-.099-1.034.374-2.058 1.254-2.604v-.653h.511v-.492h.05v-.752h.248v-.233h1.07v.985h.207v.492h.484v.622c.921.54 1.409 1.597 1.303 2.657h.375v.254h.066v.671h-.066v5.968h-.463v5.305c1.761-.509 3.369-1.47 5.116-2.034 2.704-.873 5.144-.634 7.861-.059l.228.049-.34.27-.049-.01c-2.566-.524-5.056-.741-7.597.079-1.621.523-3.114 1.375-4.729 1.914-1.789.598-4.148.673-5.991.233-.204.389-.468.681-.768.992 1.973.711 4.691.684 6.651.03 1.616-.538 3.11-1.39 4.734-1.915 2.176-.703 4.259-.69 6.484-.323l.209.034-.298.3-.055-.008c-2.141-.345-4.144-.35-6.237.326-2.295.74-4.3 2.092-6.749 2.36a13.027 13.027 0 01-3.289-.078c-1.773-.274-3.273-1.268-4.99-1.711-1.505-.389-3.302-.53-4.842-.319-2.016.276-3.666 1.327-5.523 2.053l-.022.066-.142-.006c-3.685 1.387-5.306-.263-8.62-1.397-1.108-.38-2.319-.62-3.492-.515-2.579.231-4.432 2.143-6.784 2.997-1.209.438-2.548.577-3.804.272-1.224-.297-2.33-1-3.488-1.478a15.44 15.44 0 00-3.353-.977l-.043-.007-.304-.397.269.04c1.217.187 2.422.553 3.56 1.022 1.84.758 3.096 1.75 5.205 1.599 2.106-.152 3.618-1.3 5.405-2.282l.592-.308-.252-1.068c-1.261.672-2.436 1.51-3.787 2-1.208.438-2.549.577-3.804.273-1.224-.297-2.33-1-3.488-1.478-1.434-.591-3.315-1.038-4.866-1.105l-.19-.038-.242-.346.502.016c1.638.056 3.414.531 4.925 1.154 1.213.499 2.404 1.268 3.701 1.518v-7.31h-.628v-1.53c-1.184-1.357-2.346-2.11-4.173-2.244-1.17-.084-1.34-.28-1.48-1.446-.24-2-1.556-3.59-3.284-4.506l-.205 1.642h-6.001v2.16h7.765l-1.27 10.322-.386-.33 1.268-9.647h-7.72v-2.85h6.043l1.611-12.882h-7.687v-2.685H46.79l.023-.453h8.259v-.77h-7.08v-3.265l-.308-.05.002-.35.648.106v3.214h7.08v1.849h-4.07v2.059h7.733l-.293 2.332c1.17-.044 2.352-.023 3.468.365v-.96h.761v-6.38h.894V20.53h-.098v-.23c-.804-.935.075-1.918.726-2.654.465-.526.908-1.045 1.297-1.633v-.45l-.327-.139.1-.395.227.095v-.345h-.386v-.412h.386v-.424h.415v.424h.385v.412h-.386v.52l.333.14-.102.395-.23-.097v.245c.394.6.843 1.128 1.317 1.664.63.712 1.475 1.656.8 2.563h.024v.32h-.169v5.013h.761v6.38h.795v2.288c1.244.105 2.312.695 3.297 1.434v-3.517h-.156v-.36c-.878-1.013.079-2.097.812-2.927.525-.594 1.023-1.177 1.46-1.841v-.461l-.328-.138.101-.396.227.096v-.347h-.385v-.411h.385v-.424h.414v.424h.386v.411h-.386v.52l.333.14-.102.396-.23-.097v.266c.44.672.942 1.262 1.473 1.862.733.83 1.688 1.912.814 2.924h.026v.363h-.2v2.85h2.669V30.11h-.442v-.514h.059c-.75-1.133-.152-3.082.594-4.055.408-.53.865-1.032 1.311-1.53 1.035-1.156 2.018-2.293 2.88-3.592v-.969l-.48-.202.123-.485.356.15v-.654h-.576v-.507h.577v-.633h.51v.633h.577v.507h-.577v.869l.488.204-.124.486-.354-.149.037.692c.871 1.323 1.867 2.476 2.918 3.65.446.498.904 1 1.311 1.53.71.925 1.345 2.942.67 4.056h.229v.513h-.646v4.867h2.702v-2.849h-.17v-.36c-.877-1.012.078-2.097.812-2.927.533-.603 1.038-1.195 1.48-1.872v-.262l-.373-.157.109-.422.264.11v-.435h-.442v-.44h.442v-.486h.442v.486h.443v.44h-.443v.622l.378.159-.108.422-.27-.113v.16c.429.643.915 1.211 1.425 1.788.734.83 1.687 1.913.815 2.925h.026v.362h-.187v5.192c.67-.212 1.373-.338 2.068-.425V35.51h-.235v-.836h-.192v-.737h-.215v-.853h7.164c-.047-.257-.188-.695.147-.735 7.136-.868 9.901-2.546 15.121-7.016 1.756-1.504 3.533-2.982 5.393-4.354l.173-.127v8.315l2.483 1.305v.182h.717v.267h.284v.293h.327v.502l2.717.962-.038.251-.038.419h-3.868v.057c1.164.03 2.786.163 3.815.65l.057.027.031.39-.171-.084c-.97-.474-2.617-.608-3.732-.638v.012l-.112-.005a7.556 7.556 0 00-.898.007l-.118.01v-.021c-.915.028-1.893.119-2.778.34-1.701.426-1.701.95 0 1.376 1.925.482 4.847.481 6.772 0 .325-.081.717-.197 1.006-.371l.127-.076.083.344-.071.041c-.496.289-1.263.46-1.848.557v2.314h-.415v.717h-.138v3.065h-.263v1.662h-.24v.113h1.202l-.221.346h-2.961v-1.047h.131v-1.42h.473v1.82h.299v-1.82h.495v1.662h.495v-1.662h.262v-2.352h-3.619v2.352h.161v1.287h.153v.634h.262v-.634h.022v-1.287h.495v1.42h.196v1.047h-2.3v1.516h4.747l-.041.141c-.044.154-.089.312-.118.47l-.017.09h-.002zm2.508-13.469l-2.749-1.004v.253h-.182v.234h-.415v.301h-.211v.316l3.557-.1zm-9.105 13.408v-.609h1.7v-1.892h1.325v-.489h-.153V42.06h-.16v-3.065h-.167v-.233h-.19v-.61h-.218v-2.194c-.656-.11-2.286-.44-2.286-1.177 0-1.063 3.182-1.321 4.286-1.37-.455-.578-1.076-1.2-1.688-1.552-1.638-.941-4.049-.232-4.895 1.477l-.03.06h-.013c-.399.71-.651 1.508-.828 2.3-.058.26-.178.797-.547.439-.201-.196-.367-.41-.592-.581-.832-.637-2.138-.668-3.004-.08-.709.484-1.095 1.305-1.317 2.113-.196.708-.294.874-1.048.93-.684.05-.847.237-1.227.783-.445.64-.651.53-1.09-.01-.448-.55-.775-.866-1.513-.89-.979-.033-1.491.226-2.277.678 1.041.799 1.696 1.683 2.353 2.835.501.878.491.955 1.501.924 1.294-.039 2.866.035 3.987.757 1.176.758 1.949 1.998 2.478 3.267.02.037.049.121.068.148.022.007.102-.001.126-.002 1.288-.043 2.645-.013 3.917.218.39-.7.919-.925 1.502-.89zm-19.595-.046l-7.102-2.062v.267h.67v.605h-.281v.426h-.125v1.324h1.489v.701h5.349V46.29zM71.51 69.656c1.42-.711 2.68-1.657 4.192-2.194 1.797-.64 3.52-.45 5.296.157 1.239.425 2.404 1.039 3.64 1.47 2.692.941 4.256.228 6.702-.918 1.266-.593 2.407-1.09 3.808-1.283 1.584-.217 3.426-.072 4.973.327.855.221 1.629.542 2.434.896.355.156.712.314 1.077.445 1.524.547 3.716.645 5.301.34l.252-.049-.261.402-.046.008c-2.246.399-4.377.085-6.46-.83-.788-.346-1.545-.661-2.382-.877-1.505-.389-3.302-.53-4.842-.32-1.403.193-2.587.729-3.856 1.323-2.485 1.16-4.093 1.813-6.812.863-1.235-.432-2.4-1.045-3.639-1.469-4.508-1.543-5.492.327-9.207 2.041l-.09.042-.183-.323.103-.051zm-.845-1.24c1.763-.688 3.235-1.931 5.037-2.572 1.796-.639 3.522-.45 5.296.158 1.239.425 2.404 1.038 3.64 1.47 2.625.917 4.158.27 6.556-.85 1.305-.61 2.513-1.154 3.954-1.351 1.584-.217 3.426-.073 4.973.326.855.221 1.629.542 2.434.896.355.156.712.314 1.077.445 1.371.492 3.205.597 4.647.439.825-.09 1.619-.311 2.397-.598l.454-.167-.557.57-.024.008c-2.734.958-5.487.781-8.131-.38-.788-.347-1.545-.662-2.382-.878-1.504-.388-3.302-.53-4.842-.319-1.403.192-2.587.729-3.856 1.322-2.485 1.161-4.092 1.813-6.812.864-1.235-.432-2.4-1.045-3.639-1.47-1.975-.676-3.746-.688-5.674.126-1.52.642-2.85 1.66-4.37 2.286l-.074.03-.243-.3.14-.055zm-1.37-1.375c2.394-.417 4.16-2.163 6.407-2.962 1.796-.639 3.522-.45 5.296.158 1.239.425 2.404 1.038 3.64 1.47 2.625.917 4.158.27 6.556-.851 1.305-.61 2.513-1.153 3.954-1.35 1.584-.217 3.426-.073 4.973.326.855.22 1.629.542 2.434.896.355.156.712.314 1.077.445 1.371.492 3.205.597 4.647.439 2.271-.249 4.204-1.475 6.321-2.222l.526-.186-.707.618c-2.047.767-3.886 1.891-6.104 2.134-2.16.236-3.906-.037-5.897-.912-.788-.346-1.545-.661-2.382-.877-1.504-.388-3.302-.53-4.842-.319-1.406.192-2.584.728-3.856 1.322-2.486 1.16-4.091 1.813-6.812.863-1.235-.431-2.4-1.044-3.639-1.469-5.067-1.735-6.016.935-10.276 2.482a7.373 7.373 0 01-1.161.317l-.053.01-.323-.294.22-.038zm-4.199-3.869c1.197.57 2.195.935 3.556.837 2.767-.199 4.56-2.155 7.05-3.04 3.43-1.22 5.822.54 8.936 1.628 2.698.942 4.25.227 6.702-.92 1.266-.592 2.406-1.09 3.808-1.282 1.583-.217 3.426-.073 4.973.327.855.22 1.629.541 2.434.895.355.156.712.314 1.077.446 1.37.492 3.205.597 4.647.438 2.394-.261 4.427-1.616 6.682-2.344a11.953 11.953 0 013.874-.576l.229.003-.283.342h-.051a11.606 11.606 0 00-3.666.56c-2.292.74-4.302 2.092-6.749 2.36-2.164.236-3.902-.037-5.897-.912-.788-.346-1.545-.662-2.382-.878-1.504-.388-3.302-.53-4.842-.318-1.405.192-2.585.727-3.856 1.321-2.485 1.16-4.093 1.813-6.812.864-1.58-.552-5.176-2.03-6.843-1.923-.687.044-1.405.275-2.062.473-.626.189-1.298.581-1.875.895a43.644 43.644 0 01-3.135 1.567c-1.875.681-3.47.557-5.302-.28l-.879-.8.666.317zm-3.193-2.89c.523.158 1.04.342 1.545.55 1.843.758 3.092 1.75 5.205 1.598 2.767-.2 4.558-2.155 7.05-3.04 1.796-.64 3.52-.45 5.295.157 1.239.425 2.404 1.039 3.64 1.47 2.697.943 4.25.227 6.702-.919 1.266-.592 2.406-1.09 3.808-1.282 1.584-.217 3.425-.073 4.973.326.855.221 1.629.542 2.434.896.355.156.712.314 1.077.446 1.371.492 3.205.596 4.647.438 2.393-.26 4.428-1.616 6.682-2.344 1.667-.539 3.303-.673 5.038-.513l.228.021-.308.318-.051-.004c-1.656-.142-3.216-.005-4.804.507-2.292.74-4.301 2.091-6.749 2.36-2.163.236-3.904-.037-5.897-.912-.788-.346-1.545-.661-2.382-.877-1.505-.389-3.301-.53-4.842-.32-1.405.193-2.585.728-3.856 1.322-2.486 1.16-4.091 1.814-6.812.864-1.235-.432-2.4-1.046-3.639-1.47-5.07-1.735-6.014.935-10.276 2.482-1.208.439-2.549.578-3.804.273-1.224-.297-2.329-1-3.488-1.478-.414-.17-.835-.324-1.26-.46l-.023-.008-.596-.542.463.14zM48.15 30.686H46.82v-.22h1.546v12.042h-.217V30.685zM93.684 51.19v.617h7.533v1.73h-.199v.611h4.489v.277h.35v1.177h-.689c-.209.624-.416 1.325-.675 1.931 1.517.346 3.505.342 5.009-.03V51.76h.463v-.57h-16.28zm0-.62h16.281v-4.432h-5.415v1.76h-6.033v-.702h-1.49v-1.67h-2.37v1.67h-4.71v-1.823h-3.033v1.823h-4.743v-1.637H79.9v1.637h-1.522v.568h-6.034v-1.626h-5.481v4.432h21.091v-1.446h5.73v1.446zm6.991 2.967H77.072v.611h23.603v-.61zm4.839 1.72v-.486H73.581v.485h31.933zm-17.217-5.494h5.045v-.293h-5.045v.293zm5.045.681h-5.045v1.363h5.045v-1.363zm7.533 2.665H76.599v.082h24.276v-.082zm-24.276-.345h24.276v-.612H76.599v.612zm28.117 3.267l-30.247-.069.498 2.11c2.919-1.323 5.154-.58 7.967.636.462.2.916.4 1.369.574l5.179.016c1.93-.74 3.567-1.812 5.666-2.1 1.583-.217 3.426-.072 4.973.327 1.091.282 2.071.765 3.107 1.185.737-.761 1.201-1.665 1.488-2.68zm-30.328-.415l30.417.07.02-.084h-30.44l.003.014zM67.9 20.208c.873-.784-.021-1.69-.59-2.334-.45-.508-.878-1.008-1.26-1.57-.382.562-.81 1.062-1.26 1.57-.569.645-1.464 1.55-.59 2.334h3.7zm6.416 36.6l-.284-1.206h-.794v-1.177h.699v-.277h2.793v-.61h-.474v-1.731h11.698v-.617H66.863v.303h.629v7.71c2.736.346 4.544-1.196 6.825-2.394zm14.066 2.845l-2.968-.016c1.028.263 1.936.276 2.968.016zm40.003-26.48l.013.228h.454v-.244l-.467.017zm.638-.367v-.094h-.837v.119l.837-.025zm.211-.44v-.189h-1.252v.19h1.252zm-1.376.43v-.084h-.075l.075.083zm-.203-.222v-.163h-.16l.16.163zm-.372-.365v-.032h-.035l.035.032zm-.342-.29v-.042h-.054l.054.042zm-.212-.158v-.547h.226v-.293h.314v-.267h.756v-.137l-4.472-3.033v3.741c.937-.262 1.958-.184 2.856.33.108.063.215.132.32.206zm-3.474-.44V26.91l3.042 2.064v-7.519c-1.757 1.307-3.415 2.695-5.08 4.12-5.266 4.51-8.076 6.21-15.225 7.05-.021.062.032.272.06.412h15.089a4.171 4.171 0 012.114-1.715zm7.759 4.692c-.133.019-.267.035-.4.05v1.869h.4v-1.919zm-.728.082c-.172.015-.344.028-.516.038v1.072h.014v-.334h.502v-.776zm-.844.053l-.394.011v1.648h.088v.796h-.633v-1.169h-.019v1.17h-.527v-.41h-.095v.41h-.59v-1.036h-.24v1.035h-.357v.047h3.925v-.047h-.423v-1.052h-.284v1.052h-.589v-.796h.138v-1.66zm-1.202 1.158v-.089h-.167v-1.062l-.313-.012v1.664h.313v-.501h.167zm-1.63 1.11v-.264h-.095V36.04l-.248-.033v1.8h.219v.61h.124zm2.111-2.252l-.321-.002v.71h.168v.217h.153v-.925zm-1.289-.038a17.448 17.448 0 01-.59-.048v1.144h.008v-.3h.546v.3h.036v-1.096zm-19.863 2.732c.918-.53 1.476-.84 2.588-.804.839.028 1.242.385 1.752 1.011.338.414.303.424.617-.025.232-.33.504-.66.9-.786.259-.084.866-.06 1.038-.191.089-.069.149-.229.19-.366h-9.327c.786.305 1.548.681 2.242 1.16zm7.172-1.474c.201-.696.519-1.366 1.033-1.874H99.538v1.35c1.738-.188 3.24-.01 4.898.526l10.305-.002zm1.407-2.187c.954-.647 2.335-.656 3.287 0h.832c.046-.175.096-.35.151-.523H99.303v.523h16.845zm3.663.313c.083.08.161.165.24.253l.064.077.001-.006c.029-.107.052-.216.077-.324h-.382zm.711-1.148c.051-.143.106-.285.164-.425H99.11v.425h21.412zm.302-.737c.036-.077.074-.153.113-.228H98.895v.228h21.929zM94.613 44.072l-4.64.04v.131h.744v.805h-.306v.325h-.122v1.477h4.026v-1.324h-.165V45.1h-.265v-.605h.728v-.423zm-7.572.048h-4.72v.375h.67v.605h-.28v.426h-.197v1.324h4.058v-1.477h-.135v-.325h-.174v-.805h.778v-.123zm-7.213.038a165.885 165.885 0 00-7.142 2.137v1.123h5.35v-.568h1.521v-1.324h-.192V45.1H79.1v-.605h.728v-.337zM62.594 33.011c.815.347 1.595.91 2.266 1.48.234.199.532.447.61.663.023-.005.061-.027.086-.037 1.204-.48 2.563-.948 3.875-.926l.001-1.925h-.794v-6.38h-.76v-4.548h-3.63v4.548h-.893v6.38h-.76v.745zm10.82 2.897c.602.483 1.207 1.007 1.656 1.64.01.014.014.037.026.048.016 0 .036-.015.052-.02 1.716-.44 3.485-.47 5.212-.076a4.825 4.825 0 011.71.739c.77.508.914.28 1.517-.308 2.085-2.033 4.32-2.297 7.072-1.754.921.182 1.645.41 2.468.877.641.363 1.267.648 1.817 1.157a.77.77 0 01.073.08c.093-.021.256-.124.344-.172.482-.261.954-.495 1.468-.684V32.64H92.87v2.682h-3.386v-4.557h-8.757v4.557h-3.354v-2.628h-3.959v3.214zm16.654 9.105v-.31h.306v-.114h-.744v-.134h-.513v-.209h-.347v-.25h-.61v.25h-.247v.21h-.53v.133h-.777v.113h.174v.31h3.288zm5.028-2.444v.118h.322v.918h-.215v.326h-.248v.824h1.808v-.824h-.297v-.326h-.216v-.918h.39v-.117h-.39v-.434h-.832v.433h-.323zm-12.729 2.548h-2.66v.063h2.66v-.063zm-2.056-2.547v.117h.323v.918h-.216v.326h-.248v.824h1.809v-.824h-.298v-.326h-.215v-.918h.389v-.117h-.39v-.434h-.831v.433h-.323zm28.042.226v.068h-2.055v-.017a2.39 2.39 0 00-1.15 2.33l.005.036h4.437a2.39 2.39 0 00-1.237-2.417zm-1.39-1.76v.23h.248v.522h-.298v.642h-.272v.089h1.369v-.089h-.206v-.642h-.207v-.986h-.386v.234h-.248zm-36.298 1.76v.068H68.61v-.017a2.39 2.39 0 00-1.15 2.33l.001.003h4.445c.103-.98-.368-1.919-1.24-2.384zm-1.39-1.76v.23h.248v.522h-.297v.642h-.273v.089h1.37v-.089h-.207v-.642h-.207v-.986h-.386v.234h-.248zm25.569-13.714c-.427.628-.906 1.19-1.409 1.757-.651.737-1.668 1.773-.605 2.652l.013.014c.163.058 1.055.02 1.297.02l2.69-.013c1.097-.884.086-1.921-.578-2.673-.503-.568-.982-1.128-1.408-1.757zm-9.72-6.656h-.078c-.838 1.271-1.812 2.413-2.826 3.543-.42.47-.851.943-1.234 1.443-.514.67-.878 1.735-.848 2.595-.008.491.114 1.029.51 1.349h9.024c.225-.215.388-1.009.378-1.292.017-.85-.352-1.984-.865-2.652-.384-.5-.816-.973-1.236-1.443-1.014-1.131-1.984-2.272-2.825-3.543zm-9.656 6.751l-.067-.082-.046.055c-.415.6-.877 1.14-1.362 1.688-.223.254-.453.51-.658.78-.461.608-.612 1.326.038 1.86l.03.026c.158.057 1.026.02 1.262.02l2.724-.014c1.098-.883.086-1.921-.579-2.672-.477-.54-.932-1.072-1.342-1.66zm-11.22-6.803v.112h3.63v-.117c-1.209 0-2.417.01-3.63.005zm63.497 23.221h.059v-.355h-.059v.355zm1.791 0h.103v-.113h-.103v.113z" fill="#2497D1"/><path d="M67.94 20.318c.993-.85.064-1.822-.55-2.517-.398-.45-.865-.98-1.306-1.64h-.068c-.44.66-.909 1.19-1.307 1.64-.613.695-1.543 1.667-.55 2.517h3.781zm6.362 35.408l30.589.07.071-.304H74.246l.056.234zm30.557.196l-30.528-.07.56 2.375c2.955-1.388 5.185-.634 8 .582.477.207.948.41 1.402.581l5.218.013c1.934-.743 3.528-1.805 5.651-2.096 1.555-.213 3.414-.068 4.932.324 1.144.296 2.088.777 3.161 1.208.822-.828 1.312-1.818 1.604-2.917zM76.49 52.873h24.493v-.83H76.49v.83zm24.493.127H76.49v.301h24.493V53zm-7.532-2.666h-5.263v1.582h5.263v-1.582zm-5.263-.462h5.263v-.512h-5.263v.513zm-13.972 5.494h31.407v-.705H73.472v.705h.744zm26.568-1.938h-23.82v.83h23.82v-.83zm-12.659-4.194h5.45v1.445h16.499v-4.65h-5.632v1.758h-5.817v-.701h-1.489v-1.67h-2.588v1.67h-4.492v-1.822h-3.25v1.822H82.28v-1.637H79.79v1.637H78.27v.568h-5.816v-1.626h-5.699v4.651h21.31v-1.445h.062zm5.45 1.846v.836h7.534v1.512h-.2v.83h4.49v.277h.349v.957h-.658c-.8 2.357-.746 2.41-1.709 3.397 2.008.78 4.849.768 6.88.09 1.607-.535 3.107-1.39 4.733-1.914 2.245-.725 4.329-.666 6.433-.32l-.108.11c-2.055-.331-4.092-.379-6.288.33-2.29.74-4.282 2.087-6.728 2.354-1.018.111-2.247.08-3.261-.076-1.781-.276-3.236-1.26-4.979-1.71-1.504-.387-3.344-.532-4.884-.32-2.075.283-3.698 1.343-5.595 2.077l-.014.04h-.092c-3.66 1.378-5.32-.29-8.556-1.397-1.122-.384-2.349-.627-3.536-.52-2.623.235-4.44 2.141-6.812 3.002-1.188.431-2.506.569-3.742.27-1.188-.29-2.33-1.002-3.472-1.473a15.69 15.69 0 00-3.377-.984l-.112-.147c1.23.188 2.444.564 3.536 1.014 1.843.76 3.1 1.762 5.253 1.607 2.14-.154 3.645-1.303 5.448-2.294l.668-.346-.305-1.29c-1.302.68-2.509 1.556-3.897 2.06-1.187.431-2.507.568-3.742.27-1.187-.289-2.33-1.002-3.472-1.473-1.436-.592-3.176-1.06-4.726-1.128l-.114-.135c1.636.057 3.428.545 4.887 1.146 1.264.52 2.501 1.325 3.85 1.547v-7.55h-.628v-1.462c-1.206-1.39-2.396-2.174-4.274-2.31-1.107-.08-1.245-.232-1.38-1.352-.25-2.085-1.647-3.74-3.48-4.66l-.211 1.7h-6.015v2.379h7.75l-1.206 9.795-.112-.11 1.178-9.56h-7.735v-2.63h6.03l1.638-13.1h-7.7v-2.531h4.069V26.51H48.1v-3.25l-.307-.05v-.127l.432.07v3.23h7.08v1.63h-4.069v2.279h7.718l-.294 2.336c1.25-.051 2.514-.043 3.7.407V32.03h.762v-6.38h.893V20.42h-.098v-.101h.058c-.9-.908.014-1.891.64-2.6.406-.458.882-.997 1.326-1.672v-.557l-.308-.13.047-.181.261.11v-.62h-.386v-.193h.386v-.423h.197v.423h.385v.193h-.385v.703l.312.131-.047.181-.265-.112v.443c.45.69.935 1.239 1.346 1.704.627.708 1.54 1.692.64 2.6h.156v.1h-.17v5.232h.761v6.38h.795v2.28c1.34.085 2.471.746 3.515 1.553v-3.847h-.156v-.143h.15c-1.129-1.015-.09-2.143.634-2.961.455-.514.99-1.12 1.488-1.882v-.566l-.308-.13.046-.18.262.11v-.621h-.386v-.192h.386v-.424h.197v.424h.385v.192h-.386v.703l.313.131-.047.181-.266-.112v.464c.503.771 1.043 1.383 1.502 1.902.723.818 1.762 1.946.634 2.96h.179v.144h-.201v3.07h2.886V30h-.441v-.295h.17c-.91-1.044-.303-3.103.46-4.097.358-.467.807-.968 1.305-1.524.888-.991 1.935-2.16 2.908-3.633v-1.075l-.46-.194.07-.27.39.164v-.927h-.577v-.288h.577v-.634h.294v.634h.577v.288h-.577v1.05l.467.197-.07.27-.397-.166.049.896c.983 1.498 2.046 2.685 2.944 3.688.498.556.947 1.057 1.305 1.524.72.938 1.38 3.082.546 4.097h.33V30h-.646v5.086h2.92v-3.068h-.17v-.143h.15c-1.127-1.015-.09-2.143.634-2.962.46-.52 1.004-1.135 1.508-1.912v-.368l-.353-.149.053-.207.3.125v-.71h-.443v-.22h.443v-.486h.224v.486h.443v.22h-.443v.805l.358.15-.053.208-.305-.128v.358c.489.737 1.01 1.326 1.453 1.828.725.819 1.761 1.947.635 2.962h.178v.143h-.186v5.452c.731-.248 1.52-.387 2.285-.479v-1.59h-.235v-.837h-.193v-.736h-.214v-.634h7.176c0-.188-.211-.706.039-.736 8.107-.986 10.914-3.39 15.178-7.042 1.765-1.511 3.516-2.968 5.387-4.349v8.166l2.483 1.306v.225h.717v.267h.284v.293h.327v.443h-.075l2.78.985-.014.089-2.938-1.074v.3h-.182v.235h-.415v.3h-.211v.468h-.171v.075l3.895-.109-.018.202h-3.877v.274c1.118.023 2.839.151 3.877.642l.01.135c-1.014-.495-2.787-.628-3.887-.651v.01a7.69 7.69 0 00-.911.007v-.015c-1.134.029-2.151.156-2.913.347-1.822.456-1.821 1.132 0 1.589 1.92.48 4.904.48 6.824 0 .463-.116.808-.247 1.036-.384l.029.12c-.553.322-1.501.496-1.903.559v2.297h-.837v.2h.422v.518h-.138v3.064h-.262v1.662h-.24v.333h1.11l-.08.126h-1.141v-.585h.241v-1.662h.262v-2.571h-3.836v2.57h.16v1.287h.153v.635h.211v.326h-1.536v1.736h4.711a5.034 5.034 0 00-.121.48h-6.401v-.45h1.7v-1.892h1.537v-.074h-.211v-.635h-.153v-1.285h-.16v-3.065h-.168v-.234h-.189v-.61h-.219v-2.177c-.578-.093-2.285-.419-2.285-1.084 0-1.026 3.667-1.248 4.392-1.267-.469-.632-1.171-1.36-1.849-1.75-1.698-.976-4.174-.237-5.046 1.523h-.009c-.422.732-.687 1.563-.871 2.385-.042.184-.096.645-.366.384-.21-.206-.354-.4-.601-.59-.87-.665-2.228-.698-3.13-.082-.734.498-1.132 1.34-1.362 2.174-.185.67-.253.799-.951.85-.723.054-.911.26-1.308.829-.405.584-.533.456-.917-.017-.47-.575-.821-.905-1.594-.93-1.067-.036-1.582.258-2.478.775 1.12.827 1.775 1.705 2.457 2.903.545.953.578 1.01 1.598.979 1.266-.039 2.827.031 3.925.74 1.158.745 1.918 1.973 2.441 3.225.106.192.043.213.294.205 1.289-.044 2.704-.009 3.97.23.614-1.178 1.599-1.103 2.947-.388.251.134.492.328.693.49.14.114.26.211.346.257.134.072.183-.005.265-.133.279-.439.744-.857 1.275-.916.586-.067 1.032.288 1.571.28.284-.004.524-.102.772-.177l-.018.135c-.266.072-.528.16-.753.163-.541.008-1.003-.344-1.561-.281-.497.055-.935.454-1.196.864-.115.181-.185.29-.403.173-.345-.184-.647-.538-1.039-.746-1.277-.678-2.199-.777-2.783.302 2.058.414 3.318 1.28 4.527 2.965l-.075.105c-.541-.77-1.18-1.452-1.857-1.914-1.816-1.24-4.538-1.358-6.677-1.284-.311.01-.29-.002-.413-.282-.511-1.22-1.265-2.44-2.393-3.167-1.134-.731-2.732-.752-4.036-.715-.954.025-1.05-.207-1.528-1.047-.854-1.505-1.723-2.519-3.217-3.377-1.599-.916-3.883-1.606-5.736-1.643-.794-.016-1.667.08-2.448.212-1.215.205-2.102.531-3.192 1.128-.299.161-.38.274-.643.034-.512-.476-1.045-.718-1.64-1.051-.48-.27-.878-.486-1.413-.652-1.825-.564-4.278-.787-6.037.03-.747.347-1.36.815-1.947 1.388-.694.676-.93.907-1.807.337a4.357 4.357 0 00-1.633-.707 10.75 10.75 0 00-5.103.075c-.205.052-.205.052-.326-.12-.713-1.006-2.349-2.267-3.47-2.788-1.976-.916-3.87-.316-5.768.44-.135.053-.21.114-.293-.028-.134-.213-.449-.476-.638-.637-2.065-1.75-3.41-2.025-6.067-1.916l-1.132 9.056c.362.182.728.369 1.142.687 1.069.818 2.058 2.145 2.349 3.484.048.224.077.449.104.676.121 1.022.279 1.101 1.258 1.172 1.808.13 3.075.88 4.264 2.246V45.29h.61c-.144-1.046.33-2.106 1.243-2.641v-.605h.51v-.492h.298v-.05h-.248V40.8h.248v-.234h.853v.985h.207v.493h.484v.576c.945.524 1.44 1.603 1.294 2.67h.45v.793c2.45-.803 4.876-1.51 7.358-2.2v-.188h.249v-.326h.215v-.446h-.323v-.59h.323V41.9h1.3v.434h.388v.59H81.7v.445h.215v.326h.297v.19h5.715v-.125h.33v-.293h.382v.293h.365v.125l5.718-.05v-.14h.248v-.326h.214v-.446h-.322v-.59h.322V41.9h1.3v.434h.389v.59h-.389v.445h.216v.326h.297v.256l7.315 2.124-.034.121-7.28-2.114v.523h.67v.385h-.282v.426h-.124v1.544h1.488v.701h5.566v-2.338h.615c-.157-1.056.314-2.132 1.238-2.674v-.605h.511v-.492h.297v-.05h-.248V40.8h.248v-.234h.854v.985h.206v.493h.485v.576c.955.53 1.449 1.627 1.289 2.703h.388v.253h.066v.452h-.066v5.968h-.463v5.56c1.793-.492 3.468-1.496 5.258-2.075 2.749-.887 5.202-.607 7.806-.055l-.118.093c-2.524-.515-5.05-.757-7.651.082-1.624.524-3.123 1.378-4.731 1.916-1.79.597-4.184.669-6.027.206a.275.275 0 00.064-.114c1.576.388 3.711.384 5.273-.02v-5.72h.464v-.789H93.576zm-19.133 5.786l-.324-1.374h-.771v-.957h.698v-.277h2.794v-.83h-.474v-1.512h11.698v-.836H66.754v.522h.629v7.696c2.86.405 4.702-1.208 7.059-2.432zm14.672 2.681l-4.457-.024c1.611.552 2.85.58 4.457.024zM71.558 69.754c1.394-.697 2.65-1.645 4.18-2.189 1.777-.631 3.467-.443 5.225.159 1.24.424 2.406 1.039 3.64 1.47 2.72.95 4.302.24 6.783-.924 1.127-.526 2.287-1.069 3.776-1.273 1.556-.213 3.413-.068 4.932.325.951.245 1.723.584 2.418.89.378.165.734.322 1.083.447 1.529.549 3.747.655 5.359.345l-.095.145c-2.225.395-4.332.084-6.397-.822-.69-.304-1.456-.64-2.399-.884-1.504-.388-3.344-.532-4.884-.32-1.43.195-2.597.725-3.887 1.33-2.467 1.15-4.037 1.8-6.73.86-1.234-.431-2.4-1.046-3.64-1.47-4.667-1.597-5.973.516-9.288 2.045l-.076-.134zm-.854-1.235c1.757-.686 3.2-1.92 5.034-2.571 1.775-.632 3.47-.444 5.225.158 1.24.424 2.406 1.04 3.64 1.47 2.658.929 4.2.28 6.637-.855 1.303-.61 2.477-1.144 3.922-1.341 1.556-.213 3.413-.068 4.932.324.951.245 1.723.584 2.418.89.378.166.734.322 1.083.447 1.381.496 3.245.604 4.695.445.85-.092 1.647-.318 2.423-.604l-.199.204c-2.707.95-5.421.78-8.052-.377-.69-.303-1.456-.64-2.399-.883-1.503-.388-3.345-.533-4.884-.322-1.431.196-2.597.726-3.887 1.331-2.469 1.152-4.036 1.8-6.73.86-1.234-.431-2.4-1.045-3.64-1.47-4.819-1.65-7.144 1.188-10.12 2.415l-.098-.121zm-1.391-1.37c2.45-.427 4.13-2.15 6.425-2.967 1.775-.631 3.47-.443 5.225.159 1.24.425 2.406 1.04 3.64 1.47 2.658.929 4.2.28 6.637-.856 1.303-.61 2.477-1.143 3.922-1.34 1.556-.213 3.413-.069 4.932.323.951.246 1.723.585 2.418.89.378.166.734.322 1.083.448 1.381.495 3.245.603 4.695.445 2.302-.252 4.213-1.475 6.346-2.228l-.255.226c-2.026.76-3.864 1.885-6.078 2.128-2.154.235-3.871-.037-5.841-.903-.69-.303-1.456-.64-2.399-.883-1.503-.388-3.345-.533-4.884-.322-1.435.197-2.594.726-3.887 1.331-2.469 1.151-4.036 1.8-6.73.86-1.234-.431-2.4-1.046-3.64-1.47-5.13-1.758-6.203.977-10.348 2.482-.37.135-.754.24-1.144.314l-.117-.107zm-4.263-3.877c1.099.523 2.146.952 3.61.847 2.817-.203 4.585-2.16 7.078-3.047 3.418-1.216 5.834.57 8.865 1.628 2.728.953 4.296.24 6.783-.923 1.127-.527 2.287-1.07 3.776-1.273 1.555-.213 3.413-.068 4.932.324.951.246 1.723.585 2.418.89.378.166.734.322 1.083.448 1.38.495 3.246.603 4.695.445 2.427-.266 4.426-1.614 6.704-2.35a11.763 11.763 0 013.84-.57l-.104.125a11.638 11.638 0 00-3.699.565c-2.292.74-4.279 2.087-6.728 2.355-2.158.236-3.867-.037-5.841-.903-.69-.303-1.456-.64-2.399-.883-1.503-.388-3.345-.532-4.884-.321-1.434.196-2.594.726-3.887 1.33-2.467 1.151-4.037 1.802-6.73.86-6.258-2.184-6.197-2.29-8.972-1.451-1.061.32-2.322 1.267-5.016 2.464-1.868.679-3.428.542-5.193-.259l-.331-.301zm-3.178-2.886c.535.162 1.053.348 1.535.547 1.845.76 3.096 1.762 5.253 1.606 2.819-.203 4.584-2.16 7.078-3.046 1.776-.631 3.468-.443 5.225.158 1.24.425 2.406 1.04 3.64 1.47 2.727.953 4.297.24 6.783-.923 1.127-.527 2.287-1.07 3.776-1.273 1.556-.213 3.413-.068 4.932.324.951.246 1.723.584 2.418.89.378.166.734.322 1.083.448 1.381.495 3.245.603 4.695.445 2.425-.265 4.427-1.614 6.704-2.35 1.749-.565 3.372-.658 4.996-.508l-.113.116c-1.574-.135-3.151-.035-4.846.512-2.292.74-4.278 2.086-6.728 2.355-2.157.235-3.868-.037-5.841-.903-.69-.303-1.456-.64-2.399-.883-1.504-.388-3.344-.532-4.884-.321-1.434.196-2.594.726-3.887 1.33-2.469 1.152-4.036 1.801-6.73.86-1.234-.43-2.4-1.045-3.64-1.47-5.134-1.757-6.2.977-10.348 2.483-1.187.43-2.507.569-3.742.27-1.188-.29-2.329-1.003-3.472-1.473a16.859 16.859 0 00-1.269-.464l-.219-.2zM128.77 30.89h-1.283v.142l1.508.01-.225-.152zm.385.153l.421.003v-.155h-.647l.226.152zm.027.126l-2.008-.011v.166h2.235l-.227-.155zm-.959 1.775l.711-.025.003.126-.667.023.025.443.666-.001v-.566h.171v-.342h-1.055v.342h.146zm-.146-.468h1.266v-.3h.415v-.108h-2.256v.107h.371v.3h.204zm-.575-.534h2.438v-.175h-2.78v.175h.342zm-.342-.301h2.717l-2.929-.191v.191h.212zm1 1.504v-.075h-.193v-.468h-.204v-.3h-.372v-.234h-.342v-.3h-.211v-.444h.226v-.293h.313v-.267h.757v-.225h.118l-4.808-3.261v4.082l-.081.024v-4.269l3.043 2.064v-7.942c-2.117 1.563-3.776 2.984-5.259 4.254-4.274 3.66-7.088 6.07-15.218 7.059-.122.014.024.495.032.595h15.24c1.039-1.739 3.349-2.53 5.154-1.494.615.354 1.205.942 1.659 1.494h.146zm2.963 2.742c-.197.03-.404.055-.618.077v2.078h.618v-2.155zm-.728.088c-.237.023-.482.04-.734.054v2.014h-.139v.324h.152v-1.052h.219v-.334h.314v.334h.188v-1.34zm-.844.06l-.611.018v1.864h.087v.577h-.416v-1.17h-.262v-.216h-.167V36.05l-.531-.021v1.888h.531v-.501h.193v1.078h-.31v-.41h-.312v.41h-.372v-1.036h-.204v-.3h-.109v.3h-.145v1.036h-.205v-.451h-.094v-2.1l-.465-.061v2.035h.218v.609h.189v.234h4.142v-.266h-.422V37.44h-.19v-.334h-.093v.334h-.219v1.053h-.372v-.577h.139v-1.882zm-.722.02l-.537-.004v.93h.167v.217h.263v1.17h.195v-.325h-.088v-1.989zm-1.288-.032a16.684 16.684 0 01-.807-.067v1.96h.079v-.584h.145v-.3h.329v.3h.204v1.035h.152v-.324h-.102v-2.02zm-.072 7.922h.444v-.575h-.197v-1.42h-.058v1.286h-.022v.635h-.167v.074zm.498.126h-.608v-.326h.168v-.635h.021v-1.286h.278v1.42h.196v.827h-.055zm.558-.126h.414v-.174h-.248v-1.82h-.035v1.419h-.131v.575zm.469.126h-.579v-.827h.131v-1.42h.255v1.82h.248v.427h-.055zm.259-.126h.494v-.333h-.262V41.95h-.057v1.82h-.175v.175zm.549.126h-.659v-.426h.175v-1.821h.277v1.662h.262v.585h-.055zm-22.238-5.084c.953-.55 1.475-.86 2.59-.823.805.027 1.181.37 1.671.97.381.468.423.494.79-.03.216-.309.474-.627.844-.746.306-.098.853-.041 1.071-.208.132-.1.196-.302.268-.563h-10.09c1 .343 1.986.789 2.856 1.4zm7.259-1.493c.218-.794.588-1.566 1.237-2.094H99.43v1.582c1.786-.209 3.284-.038 4.998.512h10.395zm1.358-2.187c.927-.646 2.295-.657 3.22 0h.95c.063-.25.135-.497.217-.742H99.194v.742h16.987zm3.343.093c.196.157.34.318.447.436.147.165.184.272.25.026.041-.151.071-.309.108-.462h-.805zm1.075-.928c.07-.202.154-.42.252-.644h-21.85v.644H120.6zm.294-.737c.07-.153.145-.302.227-.448H98.787v.448h22.106zM94.722 43.962l-5.705.048h.334v.209h.513v.134h.745v.585h-.307v.326h-.122v1.696h4.243v-1.544h-.165v-.426h-.265v-.385h.729v-.643zm-7.043.049h-5.467v.594h.67v.385h-.28v.426h-.197v1.544h4.276v-1.696h-.136v-.326h-.173v-.585h.778v-.134h.529v-.208zm-7.743.003a166.32 166.32 0 00-7.358 2.201v1.313h5.566v-.568h1.522v-1.544h-.193v-.426h-.265v-.385h.728v-.59zm-17.45-10.93c.822.337 1.63.919 2.305 1.492.214.182.521.44.672.68.015.024.086-.018.133-.037 1.22-.486 2.618-.966 3.944-.915l.001-2.148h-.794v-6.38h-.761V21.23H64.14v4.547h-.893v6.38h-.761v.929zm10.82 2.877c.604.484 1.225 1.015 1.675 1.651.072.102.072.102.194.07a10.881 10.881 0 015.161-.075c.665.151 1.11.345 1.674.724.817.531 1 .313 1.652-.321 2.059-2.008 4.26-2.262 6.975-1.726.934.184 1.6.39 2.437.865.64.362 1.246.633 1.797 1.143.044.04.109.119.17.106.1-.023.273-.129.372-.182.316-.172.85-.463 1.525-.703V32.53H92.76v2.682h-3.169v-4.556h-8.974v4.556h-3.136v-2.627h-4.176v3.376zm16.871 9.162v-.311h.306v-.333h-.744v-.134h-.514v-.209h-.346v-.25h-.365v-.293h-.13v.293h-.332v.25h-.248v.21h-.53v.133h-.777v.333h.174v.326h.01v-.015h3.496zm7.084-.116h-2.878v.283l2.878-.283zm-2.014-2.547h-.26v.337h.323v.699h-.215v.325h-.248v.91h-.729v.133h3.424v-.132h-.67v-.91h-.298v-.327h-.215v-.698h.389v-.337h-.39v-.434H95.31v.434h-.063zm-12.771 2.547h-2.877v.283h2.877v-.283zm-2.014-2.547h-.26v.337h.323v.699h-.215v.325h-.249v.91h-.727v.133h3.424v-.132h-.67v-.91h-.298v-.327h-.216v-.698h.39v-.337h-.39v-.434h-1.05v.434h-.062zm27.575-.29v.025h.207v.56h-1.837v-.56h.273v-.025h-.386v.552c-.927.535-1.401 1.54-1.236 2.6h4.626c.168-1.069-.331-2.12-1.288-2.627v-.525h-.359zm-.997-1.244h-.186v.45h.248v.302h-.297v.643h-.273v.308h1.587v-.308h-.207v-.643h-.206v-.986h-.604v.234h-.062zM70.35 42.17v.025h.206v.56H68.72v-.56h.273v-.025h-.385v.552a2.505 2.505 0 00-1.242 2.568h4.636c.152-1.061-.345-2.093-1.292-2.595v-.525h-.36zm-.998-1.244h-.185v.45h.248v.302h-.298v.643h-.273v.308h1.588v-.308h-.207v-.643h-.207v-.986h-.603v.234h-.063zm24.788-9.051l2.714-.007c.009 0 .037-.023.045-.03 1.17-.944.133-2.041-.566-2.832-.443-.5-.962-1.088-1.452-1.823h-.075c-.49.735-1.01 1.322-1.451 1.823-.706.796-1.738 1.886-.563 2.835.079.064 1.164.033 1.348.034zm-13.53-2.17h9.1c.305-.224.457-1.152.449-1.4.019-.97-.422-2.112-.889-2.72-.34-.444-.767-.92-1.24-1.449-1.04-1.16-1.987-2.27-2.848-3.58h-.194c-.856 1.307-1.811 2.423-2.848 3.58-.473.529-.9 1.005-1.24 1.449-.485.632-.904 1.714-.87 2.66-.01.54.132 1.12.58 1.46zm-5.945 2.168l2.747-.006c.01 0 .036-.024.045-.03 1.171-.944.134-2.042-.566-2.832-.45-.51-.979-1.107-1.475-1.859v.035l-.014-.017-.014.017v-.035c-.497.752-1.025 1.35-1.475 1.859a14.04 14.04 0 00-.664.786c-.517.68-.64 1.478.102 2.049.079.063 1.132.032 1.314.033zM64.239 20.504l-.099-.005v.337h3.846v-.337c-1.251 0-2.495.011-3.747.005zM46.916 27.5h8.079v.234h-8.091l.012-.234z" fill="#2497D1"/><path d="M89.3 11.357c-2.722-3.813-5.712-6.38-9.124-7.855-3.414-1.474-7.28-1.865-11.75-1.325A18.643 18.643 0 0064.07 3.24c-6.025 2.271-10.577 7.534-13.436 13.842-2.88 6.35-4.04 13.746-3.273 20.229.257 2.17.73 4.23 1.423 6.106 2.854 7.715 12.982 16.653 19.198 22.139 7.387 6.52 14.705 13.878 21.902 20.689 1.685-1.585 3.15-3.19 4.605-4.784 1.778-1.948 3.545-3.885 5.742-5.812 1.346-1.18 3.015-2.597 4.819-4.13 9.412-7.997 22.683-19.27 26.005-27.891 2.135-5.541 2.214-11.596 1.116-17.224-1.366-6.997-4.541-13.315-7.846-17.177a27.113 27.113 0 00-2.929-2.948c-4.317-3.701-9.086-5.146-13.79-4.776-4.729.371-9.411 2.575-13.523 6.16a34.011 34.011 0 00-3.66 3.74l-.59.702-.535-.748zm-8.565-9.183c3.433 1.482 6.45 3.975 9.189 7.61a35.136 35.136 0 013.225-3.212C97.49 2.785 102.459.457 107.5.061c5.067-.399 10.193 1.149 14.82 5.116a28.402 28.402 0 013.086 3.106c3.448 4.03 6.756 10.596 8.171 17.843 1.145 5.867 1.055 12.198-1.189 18.022-3.454 8.962-16.89 20.377-26.42 28.473a420.292 420.292 0 00-4.801 4.12c-2.128 1.864-3.87 3.775-5.625 5.697-1.604 1.758-3.22 3.528-5.185 5.324l-.488.446-22.3-21.099-.528-.467c-6.32-5.577-16.614-14.663-19.596-22.722-.737-1.995-1.237-4.168-1.506-6.44-.798-6.73.407-14.408 3.396-20.997C52.342 9.852 57.16 4.306 63.573 1.889A20.066 20.066 0 0168.257.741c4.718-.57 8.822-.146 12.478 1.433z" fill="#fff"/></svg>