<svg width="20" height="20" viewBox="0 0 20 20" fill="none" xmlns="http://www.w3.org/2000/svg">
<g clip-path="url(#clip0_177_3837)">
<mask id="path-1-inside-1_177_3837" fill="white">
<path d="M14.36 12C14.44 11.34 14.5 10.68 14.5 10C14.5 9.32 14.44 8.66 14.36 8H17.74C17.9 8.64 18 9.31 18 10C18 10.69 17.9 11.36 17.74 12M12.59 17.56C13.19 16.45 13.65 15.25 13.97 14H16.92C15.9512 15.6683 14.4141 16.932 12.59 17.56ZM12.34 12H7.66C7.56 11.34 7.5 10.68 7.5 10C7.5 9.32 7.56 8.65 7.66 8H12.34C12.43 8.65 12.5 9.32 12.5 10C12.5 10.68 12.43 11.34 12.34 12ZM10 17.96C9.17 16.76 8.5 15.43 8.09 14H11.91C11.5 15.43 10.83 16.76 10 17.96ZM6 6H3.08C4.03886 4.32721 5.5748 3.06149 7.4 2.44C6.8 3.55 6.35 4.75 6 6ZM3.08 14H6C6.35 15.25 6.8 16.45 7.4 17.56C5.57862 16.9317 4.04485 15.6677 3.08 14ZM2.26 12C2.1 11.36 2 10.69 2 10C2 9.31 2.1 8.64 2.26 8H5.64C5.56 8.66 5.5 9.32 5.5 10C5.5 10.68 5.56 11.34 5.64 12M10 2.03C10.83 3.23 11.5 4.57 11.91 6H8.09C8.5 4.57 9.17 3.23 10 2.03ZM16.92 6H13.97C13.657 4.76146 13.1936 3.5659 12.59 2.44C14.43 3.07 15.96 4.34 16.92 6ZM10 0C4.47 0 0 4.5 0 10C0 12.6522 1.05357 15.1957 2.92893 17.0711C3.85752 17.9997 4.95991 18.7362 6.17317 19.2388C7.38642 19.7413 8.68678 20 10 20C12.6522 20 15.1957 18.9464 17.0711 17.0711C18.9464 15.1957 20 12.6522 20 10C20 8.68678 19.7413 7.38642 19.2388 6.17317C18.7362 4.95991 17.9997 3.85752 17.0711 2.92893C16.1425 2.00035 15.0401 1.26375 13.8268 0.761205C12.6136 0.258658 11.3132 0 10 0Z"/>
</mask>
<path d="M14.36 12C14.44 11.34 14.5 10.68 14.5 10C14.5 9.32 14.44 8.66 14.36 8H17.74C17.9 8.64 18 9.31 18 10C18 10.69 17.9 11.36 17.74 12M12.59 17.56C13.19 16.45 13.65 15.25 13.97 14H16.92C15.9512 15.6683 14.4141 16.932 12.59 17.56ZM12.34 12H7.66C7.56 11.34 7.5 10.68 7.5 10C7.5 9.32 7.56 8.65 7.66 8H12.34C12.43 8.65 12.5 9.32 12.5 10C12.5 10.68 12.43 11.34 12.34 12ZM10 17.96C9.17 16.76 8.5 15.43 8.09 14H11.91C11.5 15.43 10.83 16.76 10 17.96ZM6 6H3.08C4.03886 4.32721 5.5748 3.06149 7.4 2.44C6.8 3.55 6.35 4.75 6 6ZM3.08 14H6C6.35 15.25 6.8 16.45 7.4 17.56C5.57862 16.9317 4.04485 15.6677 3.08 14ZM2.26 12C2.1 11.36 2 10.69 2 10C2 9.31 2.1 8.64 2.26 8H5.64C5.56 8.66 5.5 9.32 5.5 10C5.5 10.68 5.56 11.34 5.64 12M10 2.03C10.83 3.23 11.5 4.57 11.91 6H8.09C8.5 4.57 9.17 3.23 10 2.03ZM16.92 6H13.97C13.657 4.76146 13.1936 3.5659 12.59 2.44C14.43 3.07 15.96 4.34 16.92 6ZM10 0C4.47 0 0 4.5 0 10C0 12.6522 1.05357 15.1957 2.92893 17.0711C3.85752 17.9997 4.95991 18.7362 6.17317 19.2388C7.38642 19.7413 8.68678 20 10 20C12.6522 20 15.1957 18.9464 17.0711 17.0711C18.9464 15.1957 20 12.6522 20 10C20 8.68678 19.7413 7.38642 19.2388 6.17317C18.7362 4.95991 17.9997 3.85752 17.0711 2.92893C16.1425 2.00035 15.0401 1.26375 13.8268 0.761205C12.6136 0.258658 11.3132 0 10 0Z" fill="#07A2F0"/>
<path d="M14.36 8V7.7H14.0214L14.0622 8.0361L14.36 8ZM17.74 8L18.031 7.92724L17.9742 7.7H17.74V8ZM12.59 17.56L12.3261 17.4173L11.9603 18.0941L12.6877 17.8437L12.59 17.56ZM13.97 14V13.7H13.7371L13.6794 13.9256L13.97 14ZM16.92 14L17.1794 14.1507L17.4411 13.7H16.92V14ZM12.34 12V12.3H12.6019L12.6372 12.0405L12.34 12ZM7.66 12L7.36339 12.0449L7.40203 12.3H7.66V12ZM7.66 8V7.7H7.40262L7.36349 7.95438L7.66 8ZM12.34 8L12.6372 7.95885L12.6013 7.7H12.34V8ZM10 17.96L9.75327 18.1307L10 18.4874L10.2467 18.1307L10 17.96ZM8.09 14V13.7H7.6919L7.80162 14.0827L8.09 14ZM11.91 14L12.1984 14.0827L12.3081 13.7H11.91V14ZM6 6V6.3H6.22754L6.28889 6.08089L6 6ZM3.08 6L2.81973 5.85081L2.56225 6.3H3.08V6ZM7.4 2.44L7.66391 2.58266L8.02789 1.90929L7.3033 2.15601L7.4 2.44ZM3.08 14V13.7H2.55985L2.82033 14.1502L3.08 14ZM6 14L6.28889 13.9191L6.22754 13.7H6V14ZM7.4 17.56L7.30216 17.8436L8.03005 18.0947L7.66391 17.4173L7.4 17.56ZM2.26 8V7.7H2.02577L1.96896 7.92724L2.26 8ZM5.64 8L5.93782 8.0361L5.97856 7.7H5.64V8ZM10 2.03L10.2467 1.85934L10 1.50262L9.75327 1.85934L10 2.03ZM11.91 6V6.3H12.3081L12.1984 5.91732L11.91 6ZM8.09 6L7.80162 5.91732L7.6919 6.3H8.09V6ZM16.92 6V6.3H17.44L17.1797 5.84981L16.92 6ZM13.97 6L13.6791 6.0735L13.7364 6.3H13.97V6ZM12.59 2.44L12.6872 2.15618L11.9649 1.90887L12.3256 2.58174L12.59 2.44ZM10 0V-0.3V0ZM10 20V20.3V20ZM14.6578 12.0361C14.7385 11.3707 14.8 10.6973 14.8 10H14.2C14.2 10.6628 14.1415 11.3093 14.0622 11.9639L14.6578 12.0361ZM14.8 10C14.8 9.30275 14.7385 8.6293 14.6578 7.9639L14.0622 8.0361C14.1415 8.6907 14.2 9.33725 14.2 10H14.8ZM14.36 8.3H17.74V7.7H14.36V8.3ZM17.449 8.07276C17.6042 8.69369 17.7 9.33896 17.7 10H18.3C18.3 9.28104 18.1958 8.58631 18.031 7.92724L17.449 8.07276ZM17.7 10C17.7 10.661 17.6042 11.3063 17.449 11.9272L18.031 12.0728C18.1958 11.4137 18.3 10.719 18.3 10H17.7ZM12.8539 17.7027C13.4664 16.5696 13.935 15.3465 14.2606 14.0744L13.6794 13.9256C13.365 15.1535 12.9136 16.3304 12.3261 17.4173L12.8539 17.7027ZM13.97 14.3H16.92V13.7H13.97V14.3ZM16.6606 13.8493C15.7279 15.4553 14.2483 16.6718 12.4923 17.2763L12.6877 17.8437C14.5799 17.1922 16.1744 15.8813 17.1794 14.1507L16.6606 13.8493ZM12.34 11.7H7.66V12.3H12.34V11.7ZM7.95661 11.9551C7.85841 11.3069 7.8 10.6622 7.8 10H7.2C7.2 10.6978 7.26159 11.3731 7.36339 12.0449L7.95661 11.9551ZM7.8 10C7.8 9.33754 7.85846 8.68295 7.95651 8.04562L7.36349 7.95438C7.26154 8.61705 7.2 9.30246 7.2 10H7.8ZM7.66 8.3H12.34V7.7H7.66V8.3ZM12.0428 8.04115C12.132 8.68516 12.2 9.33978 12.2 10H12.8C12.8 9.30022 12.728 8.61484 12.6372 7.95885L12.0428 8.04115ZM12.2 10C12.2 10.66 12.1321 11.3046 12.0428 11.9595L12.6372 12.0405C12.7279 11.3754 12.8 10.7 12.8 10H12.2ZM10.2467 17.7893C9.43254 16.6122 8.77813 15.3116 8.37838 13.9173L7.80162 14.0827C8.22187 15.5484 8.90746 16.9078 9.75327 18.1307L10.2467 17.7893ZM8.09 14.3H11.91V13.7H8.09V14.3ZM11.6216 13.9173C11.2219 15.3116 10.5675 16.6122 9.75327 17.7893L10.2467 18.1307C11.0925 16.9078 11.7781 15.5484 12.1984 14.0827L11.6216 13.9173ZM6 5.7H3.08V6.3H6V5.7ZM3.34027 6.14919C4.26282 4.53974 5.7406 3.32194 7.4967 2.72399L7.3033 2.15601C5.40899 2.80103 3.81489 4.11469 2.81973 5.85081L3.34027 6.14919ZM7.13609 2.29734C6.52305 3.43146 6.06555 4.65325 5.71111 5.91911L6.28889 6.08089C6.63445 4.84675 7.07695 3.66854 7.66391 2.58266L7.13609 2.29734ZM3.08 14.3H6V13.7H3.08V14.3ZM5.71111 14.0809C6.06555 15.3468 6.52305 16.5685 7.13609 17.7027L7.66391 17.4173C7.07695 16.3315 6.63445 15.1532 6.28889 13.9191L5.71111 14.0809ZM7.49783 17.2764C5.74469 16.6716 4.26837 15.455 3.33967 13.8498L2.82033 14.1502C3.82132 15.8804 5.41255 17.1917 7.30216 17.8436L7.49783 17.2764ZM2.55104 11.9272C2.39581 11.3063 2.3 10.661 2.3 10H1.7C1.7 10.719 1.80419 11.4137 1.96896 12.0728L2.55104 11.9272ZM2.3 10C2.3 9.33896 2.39581 8.69369 2.55104 8.07276L1.96896 7.92724C1.80419 8.58632 1.7 9.28104 1.7 10H2.3ZM2.26 8.3H5.64V7.7H2.26V8.3ZM5.34218 7.9639C5.26153 8.6293 5.2 9.30275 5.2 10H5.8C5.8 9.33725 5.85847 8.6907 5.93782 8.0361L5.34218 7.9639ZM5.2 10C5.2 10.6973 5.26153 11.3707 5.34218 12.0361L5.93782 11.9639C5.85847 11.3093 5.8 10.6628 5.8 10H5.2ZM9.75327 2.20066C10.5671 3.37727 11.2217 4.6879 11.6216 6.08268L12.1984 5.91732C11.7783 4.4521 11.0929 3.08273 10.2467 1.85934L9.75327 2.20066ZM11.91 5.7H8.09V6.3H11.91V5.7ZM8.37838 6.08268C8.77828 4.6879 9.43291 3.37727 10.2467 2.20066L9.75327 1.85934C8.90709 3.08273 8.22172 4.4521 7.80162 5.91732L8.37838 6.08268ZM16.92 5.7H13.97V6.3H16.92V5.7ZM14.2609 5.9265C13.9419 4.66422 13.4695 3.44574 12.8544 2.29826L12.3256 2.58174C12.9176 3.68606 13.3722 4.8587 13.6791 6.0735L14.2609 5.9265ZM12.4928 2.72382C14.2638 3.3302 15.7363 4.55246 16.6603 6.15019L17.1797 5.84981C16.1837 4.12754 14.5962 2.8098 12.6872 2.15618L12.4928 2.72382ZM10 -0.3C4.30373 -0.3 -0.3 4.3349 -0.3 10H0.3C0.3 4.6651 4.63627 0.3 10 0.3V-0.3ZM-0.3 10C-0.3 12.7317 0.785176 15.3516 2.7168 17.2832L3.14106 16.8589C1.32196 15.0398 0.3 12.5726 0.3 10H-0.3ZM2.7168 17.2832C3.67324 18.2396 4.80871 18.9983 6.05836 19.516L6.28797 18.9616C5.11111 18.4742 4.04179 17.7597 3.14106 16.8589L2.7168 17.2832ZM6.05836 19.516C7.30801 20.0336 8.64738 20.3 10 20.3V19.7C8.72618 19.7 7.46483 19.4491 6.28797 18.9616L6.05836 19.516ZM10 20.3C12.7317 20.3 15.3516 19.2148 17.2832 17.2832L16.8589 16.8589C15.0398 18.678 12.5726 19.7 10 19.7V20.3ZM17.2832 17.2832C19.2148 15.3516 20.3 12.7317 20.3 10H19.7C19.7 12.5726 18.678 15.0398 16.8589 16.8589L17.2832 17.2832ZM20.3 10C20.3 8.64738 20.0336 7.30801 19.516 6.05836L18.9616 6.28797C19.4491 7.46483 19.7 8.72618 19.7 10H20.3ZM19.516 6.05836C18.9983 4.80871 18.2396 3.67324 17.2832 2.7168L16.8589 3.14106C17.7597 4.04179 18.4742 5.11111 18.9616 6.28797L19.516 6.05836ZM17.2832 2.7168C16.3268 1.76036 15.1913 1.00166 13.9416 0.484041L13.712 1.03837C14.8889 1.52584 15.9582 2.24034 16.8589 3.14106L17.2832 2.7168ZM13.9416 0.484041C12.692 -0.0335826 11.3526 -0.3 10 -0.3V0.3C11.2738 0.3 12.5352 0.550898 13.712 1.03837L13.9416 0.484041Z" fill="white" mask="url(#path-1-inside-1_177_3837)"/>
</g>
<defs>
<clipPath id="clip0_177_3837">
<rect width="20" height="20" fill="white"/>
</clipPath>
</defs>
</svg>
