<svg width="80" height="80" viewBox="0 0 80 80" fill="none" xmlns="http://www.w3.org/2000/svg">
<path d="M51.667 23.3333H28.3337C27.4132 23.3333 26.667 24.0795 26.667 25V55C26.667 55.9205 27.4132 56.6667 28.3337 56.6667H51.667C52.5875 56.6667 53.3337 55.9205 53.3337 55V25C53.3337 24.0795 52.5875 23.3333 51.667 23.3333Z" stroke="white" stroke-width="3" stroke-linejoin="round"/>
<path d="M37.5 31.6667H47.5M37.5 40H47.5M37.5 48.3333H47.5" stroke="white" stroke-width="3" stroke-linecap="round" stroke-linejoin="round"/>
<path fill-rule="evenodd" clip-rule="evenodd" d="M32.5007 33.3333C32.9427 33.3333 33.3666 33.1577 33.6792 32.8452C33.9917 32.5326 34.1673 32.1087 34.1673 31.6667C34.1673 31.2246 33.9917 30.8007 33.6792 30.4882C33.3666 30.1756 32.9427 30 32.5007 30C32.0586 30 31.6347 30.1756 31.3221 30.4882C31.0096 30.8007 30.834 31.2246 30.834 31.6667C30.834 32.1087 31.0096 32.5326 31.3221 32.8452C31.6347 33.1577 32.0586 33.3333 32.5007 33.3333ZM32.5007 41.6667C32.9427 41.6667 33.3666 41.4911 33.6792 41.1785C33.9917 40.8659 34.1673 40.442 34.1673 40C34.1673 39.558 33.9917 39.134 33.6792 38.8215C33.3666 38.5089 32.9427 38.3333 32.5007 38.3333C32.0586 38.3333 31.6347 38.5089 31.3221 38.8215C31.0096 39.134 30.834 39.558 30.834 40C30.834 40.442 31.0096 40.8659 31.3221 41.1785C31.6347 41.4911 32.0586 41.6667 32.5007 41.6667ZM32.5007 50C32.9427 50 33.3666 49.8244 33.6792 49.5118C33.9917 49.1993 34.1673 48.7754 34.1673 48.3333C34.1673 47.8913 33.9917 47.4674 33.6792 47.1548C33.3666 46.8423 32.9427 46.6667 32.5007 46.6667C32.0586 46.6667 31.6347 46.8423 31.3221 47.1548C31.0096 47.4674 30.834 47.8913 30.834 48.3333C30.834 48.7754 31.0096 49.1993 31.3221 49.5118C31.6347 49.8244 32.0586 50 32.5007 50Z" fill="white"/>
</svg>
