<svg width="70" height="70" viewBox="0 0 70 70" fill="none" xmlns="http://www.w3.org/2000/svg">
<rect y="0.5" width="69.2951" height="69.2152" rx="34.6076" fill="#07A2F0"/>
<path fill-rule="evenodd" clip-rule="evenodd" d="M35.7654 15.5001C35.0751 15.4937 34.5103 16.0482 34.504 16.7386C34.4977 17.4289 35.0522 17.9936 35.7425 17.9999C37.8699 18.0194 39.9727 18.4577 41.9307 19.2898C43.8888 20.1219 45.6637 21.3316 47.1543 22.8496C48.6448 24.3677 49.8218 26.1645 50.6179 28.1374C51.4141 30.1104 51.8138 32.2208 51.7944 34.3482C51.7881 35.0385 52.3426 35.6033 53.0329 35.6096C53.7232 35.6159 54.288 35.0614 54.2943 34.3711C54.3167 31.9154 53.8553 29.4793 52.9363 27.2019C52.0173 24.9245 50.6587 22.8505 48.9382 21.0981C47.2176 19.3458 45.1687 17.9495 42.9085 16.989C40.6483 16.0285 38.2211 15.5225 35.7654 15.5001ZM17.5005 29.348C17.511 28.9166 17.6898 28.3479 18.0672 27.6892C18.4369 27.0442 18.951 26.3936 19.5159 25.8203C20.0828 25.2449 20.6646 24.7842 21.1461 24.4978C21.3607 24.3702 21.5306 24.2921 21.6513 24.2499C21.6736 24.2687 21.6995 24.2913 21.729 24.3183C21.9069 24.4811 22.1325 24.7252 22.3964 25.0476C22.9213 25.6889 23.5226 26.5475 24.0962 27.4526C24.6683 28.3554 25.1949 29.276 25.5745 30.0318C25.765 30.4111 25.9098 30.7318 26.0044 30.9781C26.0414 31.0744 26.0649 31.1449 26.0797 31.193C26.0601 31.2229 26.0309 31.2638 25.9881 31.3167C25.8576 31.4781 25.7099 31.6268 25.5128 31.8252L25.5127 31.8252L25.5126 31.8254C25.4223 31.9162 25.3217 32.0175 25.2076 32.1353C24.6382 32.7229 23.5654 33.8649 23.8847 35.4554C23.972 35.8899 24.2 36.3402 24.4236 36.7218C24.6649 37.1338 24.977 37.5907 25.3301 38.0648C26.0375 39.015 26.9558 40.0966 27.9211 41.1274C28.8855 42.1574 29.9186 43.16 30.86 43.944C31.3301 44.3355 31.794 44.6865 32.2276 44.9618C32.6388 45.2229 33.1136 45.4753 33.5902 45.5805C34.373 45.7531 35.0777 45.4297 35.5087 45.1864C35.963 44.9298 36.4227 44.5768 36.8002 44.2869L36.8003 44.2868L36.8331 44.2616C37.2539 43.9386 37.5911 43.6822 37.8949 43.5075C38.0826 43.3996 38.1869 43.3656 38.2268 43.3545C38.2694 43.3697 38.366 43.406 38.5283 43.4856C38.772 43.605 39.0809 43.7799 39.4408 44.004C40.1583 44.4509 41.0143 45.0535 41.8464 45.6939C42.6796 46.3352 43.464 46.9951 44.0446 47.5524C44.3367 47.8327 44.5575 48.0682 44.7034 48.249L44.714 48.2621C44.6588 48.3719 44.5751 48.5143 44.4561 48.6863C44.129 49.1586 43.6193 49.7334 42.9959 50.2893C42.3738 50.844 41.6752 51.3473 40.9854 51.7017C40.2826 52.0628 39.6736 52.2261 39.2032 52.2147C38.7131 52.2027 37.8834 51.9701 36.7484 51.4404C35.6494 50.9276 34.3837 50.1939 33.0635 49.3129C30.4188 47.5479 27.6509 45.2558 25.6742 43.1257C23.2283 40.49 21.1427 37.5571 19.6829 34.9782C18.953 33.6887 18.3901 32.5062 18.0169 31.5091C17.6322 30.4815 17.4905 29.7583 17.5005 29.348ZM21.7809 24.2149C21.7808 24.215 21.7789 24.2152 21.7753 24.2155C21.7791 24.2149 21.7809 24.2148 21.7809 24.2149ZM44.7916 48.072C44.7919 48.0719 44.7911 48.0764 44.7883 48.0859C44.7899 48.0769 44.7913 48.0721 44.7916 48.072ZM22.2779 21.7816C21.7854 21.6503 21.3083 21.7389 20.9603 21.8459C20.5899 21.9598 20.2188 22.1406 19.8683 22.349C19.1651 22.7672 18.4177 23.3728 17.7351 24.0656C17.0505 24.7604 16.3948 25.5797 15.8982 26.4462C15.4094 27.2991 15.0256 28.2836 15.0012 29.2871C14.9794 30.1821 15.2566 31.2665 15.6755 32.3855C16.1058 33.5351 16.7309 34.8381 17.5073 36.2097C19.06 38.9528 21.2597 42.0439 23.8417 44.8263C25.9732 47.1232 28.8976 49.5383 31.6757 51.3923C33.0669 52.3207 34.4452 53.1245 35.6912 53.7059C36.9011 54.2705 38.1173 54.689 39.1423 54.7139C40.187 54.7393 41.2231 54.3902 42.1279 53.9254C43.0456 53.4538 43.9169 52.8176 44.6598 52.1552C45.4013 51.4939 46.0514 50.7738 46.5114 50.1095C46.74 49.7793 46.9433 49.432 47.0824 49.0888C47.2052 48.7856 47.355 48.3025 47.2438 47.7852C47.1444 47.3232 46.8451 46.9221 46.6489 46.6789C46.4106 46.3837 46.1071 46.0667 45.7757 45.7486C45.1093 45.1091 44.2501 44.3891 43.3711 43.7127C42.491 43.0354 41.5663 42.3826 40.7625 41.882C40.3617 41.6323 39.9749 41.4104 39.6286 41.2407C39.3182 41.0886 38.9186 40.9159 38.5315 40.8664C37.7741 40.7696 37.0984 41.0817 36.6487 41.3402C36.1866 41.6059 35.725 41.9604 35.3462 42.2514L35.3462 42.2514L35.3106 42.2787C34.8881 42.603 34.5628 42.8495 34.2794 43.0095C34.1709 43.0708 34.0993 43.1011 34.0587 43.116C33.9705 43.0814 33.8096 43.0049 33.5676 42.8513C33.2548 42.6527 32.8804 42.3732 32.4599 42.023C31.6202 41.3236 30.6631 40.3981 29.7459 39.4186C28.8295 38.44 27.9748 37.4307 27.3353 36.5718C27.0149 36.1414 26.76 35.7643 26.5807 35.4581C26.4912 35.3054 26.4273 35.1818 26.3848 35.0869C26.3505 35.0102 26.3384 34.9704 26.3358 34.9619L26.3352 34.9602L26.3358 34.9632C26.301 34.7898 26.3581 34.5404 27.003 33.875C27.0606 33.8156 27.1269 33.7488 27.1985 33.6768L27.1985 33.6768C27.4298 33.444 27.7151 33.1569 27.9321 32.8886C28.217 32.5362 28.6137 31.9538 28.6029 31.1986C28.5973 30.8041 28.4542 30.3839 28.3383 30.0821C28.2036 29.7312 28.0198 29.3304 27.8085 28.9097C27.3845 28.0655 26.8148 27.0722 26.2078 26.1144C25.6022 25.1588 24.9414 24.2099 24.331 23.4642C24.0272 23.093 23.7169 22.7487 23.4168 22.474C23.1571 22.2364 22.7576 21.9095 22.2779 21.7816ZM34.4574 21.8402C34.4637 21.1499 35.0284 20.5954 35.7188 20.6017C37.5045 20.6181 39.2696 20.986 40.9131 21.6844C42.5567 22.3829 44.0466 23.3983 45.2978 24.6725C46.5489 25.9468 47.5369 27.455 48.2052 29.1111C48.8734 30.7672 49.209 32.5387 49.1927 34.3244C49.1863 35.0147 48.6216 35.5692 47.9313 35.5629C47.241 35.5566 46.6864 34.9919 46.6928 34.3015C46.7061 32.8441 46.4322 31.3983 45.8868 30.0466C45.3414 28.695 44.5351 27.4641 43.5139 26.4241C42.4928 25.384 41.2768 24.5553 39.9353 23.9853C38.5939 23.4152 37.1534 23.1149 35.6959 23.1016C35.0056 23.0953 34.4511 22.5306 34.4574 21.8402ZM35.6694 26.0092C34.979 26.0029 34.4143 26.5574 34.408 27.2477C34.4017 27.9381 34.9562 28.5028 35.6465 28.5091C36.3938 28.5159 37.1325 28.6699 37.8203 28.9622C38.5082 29.2545 39.1317 29.6795 39.6553 30.2127C40.1789 30.746 40.5924 31.3772 40.872 32.0703C41.1517 32.7633 41.2921 33.5047 41.2853 34.252C41.279 34.9424 41.8335 35.5071 42.5238 35.5134C43.2141 35.5197 43.7789 34.9652 43.7852 34.2749C43.795 33.1993 43.5929 32.1323 43.1904 31.1347C42.7879 30.1372 42.1928 29.2288 41.4392 28.4612C40.6855 27.6937 39.7881 27.0821 38.7981 26.6614C37.8081 26.2407 36.745 26.0191 35.6694 26.0092Z" fill="white"/>
</svg>
