<svg width="180" height="120" viewBox="0 0 180 120" fill="none" xmlns="http://www.w3.org/2000/svg">
<g id="Component 4">
<g id="_1295954304">
<path id="Vector" d="M91.7459 120L91.66 119.275C91.4146 117.22 91.1429 115.183 90.8428 113.171C90.4932 110.824 90.1241 108.5 89.6767 106.277C89.2249 104.036 88.6868 101.851 87.9977 99.7662C87.2144 97.3972 86.3741 95.6421 85.3882 94.1758C84.4064 92.7166 83.2622 91.5228 81.875 90.2777C73.8732 83.0998 64.8634 79.7376 56.979 76.7951C49.9789 74.1831 43.8503 71.8958 39.9617 67.5492C38.7252 66.1695 37.3861 64.835 35.9801 63.5705C34.5282 62.2634 33.0061 61.0314 31.4581 59.8992C27.8822 57.2838 24.2859 56.2188 21.6054 56.312C20.5203 56.3496 19.5956 56.5795 18.9018 56.9721C18.2615 57.3338 17.8234 57.838 17.6487 58.4574C17.4603 59.1297 17.5689 59.9648 18.0472 60.9336C18.3351 61.5176 19.9259 63.4199 21.828 65.5887C24.6963 68.8569 28.2552 72.7008 29.2139 73.6365C30.1692 74.5695 31.7459 75.634 33.5454 76.8485C38.1591 79.9625 44.202 84.0424 45.7637 89.8681L46.2998 91.8691L44.8239 90.424C44.2444 89.8565 43.7867 89.1293 43.2371 88.2558C42.0783 86.4145 40.4827 83.8793 36.5377 81.1003C35.7347 80.5357 35.0283 79.9891 34.3323 79.4515C33.4066 78.7356 32.4959 78.0319 31.4742 77.3677C29.272 75.9349 28.7564 75.3641 27.5453 74.023L26.6986 73.0907C26.0046 72.3412 25.0942 71.4379 24.117 70.4675C20.6375 67.0136 16.2997 62.7062 15.8262 59.3037C15.4942 56.912 16.898 55.0243 21.4078 54.2293C20.7857 52.7217 19.6708 50.6649 18.4482 48.6111C16.6895 45.6588 14.7163 42.7307 13.6464 41.4345L13.189 40.8793C10.6755 37.7971 6.49991 32.6844 1.132 34.5003C1.22627 37.4052 3.38508 40.9813 4.68572 43.1363L4.84911 43.407C6.53219 46.2008 7.88273 49.0721 9.30755 52.0999L9.38004 52.2545C10.1067 53.7997 10.7272 55.4557 11.3384 57.0877C11.9421 58.6989 12.5382 60.2883 13.216 61.7098C13.8341 63.0069 15.5786 65.6523 17.5132 68.5852C19.6546 71.8326 22.0293 75.4326 23.4165 78.0297C24.0546 79.2248 24.5579 80.3572 25.0439 81.4522C25.846 83.2587 26.6044 84.9639 27.8967 86.7242C30.1442 89.7845 39.1682 96.3666 45.3937 100.908C47.2446 102.258 48.8542 103.432 49.926 104.249C51.3301 105.318 52.6006 106.259 53.7689 107.123C60.0903 111.801 63.5186 114.338 64.9133 120H63.7367C62.3598 114.895 59.0701 112.46 53.1015 108.043C51.9129 107.164 50.6194 106.206 49.2447 105.159C48.0994 104.286 46.5343 103.145 44.7344 101.832C38.4501 97.2481 29.3411 90.6034 26.9906 87.4034C25.6258 85.5451 24.8423 83.7825 24.014 81.916C23.541 80.8516 23.0516 79.75 22.4216 78.5695C21.0612 76.022 18.6998 72.4432 16.5712 69.2152C14.6147 66.2487 12.8508 63.5745 12.1982 62.2056C11.501 60.7439 10.8954 59.1273 10.282 57.4895C9.67949 55.8819 9.06829 54.2505 8.35786 52.7409L8.28578 52.5864C6.87443 49.5863 5.53577 46.7416 3.88497 44.0002L3.72118 43.7293C2.29795 41.3715 -0.10665 37.3896 0.00366706 34.0819L0.0159489 33.705L0.364326 33.5683C6.6631 31.0942 11.2952 36.7665 14.0595 40.1528L14.5154 40.7074C15.6138 42.0405 17.6182 45.009 19.3955 47.9911C19.3272 47.6234 19.2614 47.2074 19.1963 46.7239C18.9139 44.6145 18.5805 42.4477 18.2127 40.293C17.8396 38.1074 17.4332 35.9566 17.009 33.9123C16.0563 29.3275 15.3936 27.6611 14.7313 25.9953C14.3205 24.9623 13.9086 23.9273 13.4354 22.2485L13.2837 21.7129L13.8131 21.5478C14.1221 21.4512 14.4495 21.3336 14.7765 21.2163C16.5512 20.5809 18.3454 19.9389 20.6619 21.2177C22.2368 22.0881 23.5478 23.8077 24.6624 26.0171C24.7086 25.8488 24.7842 25.7036 24.8953 25.5874C25.6246 24.8267 26.6832 24.7625 27.7592 25.0221C29.3027 25.3955 30.9388 26.4779 31.4381 26.9587C34.6472 30.049 35.4678 34.1466 36.3812 38.7143C36.7426 40.5221 37.1205 42.4074 37.6701 44.3232C38.1071 45.8471 38.5632 47.2779 39.0231 48.652C38.7848 46.2605 38.6329 43.3874 38.5576 41.9627L38.5313 41.4681L38.7432 41.2844C38.9211 41.1296 39.6006 40.9805 40.2898 40.8991C40.9192 40.8254 41.6073 40.7848 41.9157 40.8314C46.1953 41.4763 47.0479 49.3118 47.5525 53.9591C47.6468 54.8207 47.7288 55.5721 47.8082 56.0877C48.7256 62.011 50.2495 65.3686 51.4455 68.0058C52.3453 69.9867 53.0668 71.5765 53.247 73.5565L53.3041 74.1843C54.6154 74.6971 55.9743 75.2041 57.3682 75.7241C65.3481 78.7016 74.4669 82.1048 82.6271 89.425C84.0717 90.7209 85.2703 91.9759 86.3208 93.5377C87.3663 95.0929 88.2516 96.9362 89.068 99.4043C89.7725 101.535 90.3213 103.764 90.7818 106.049C91.2449 108.353 91.6146 110.675 91.9614 113.002C92.2643 115.034 92.5378 117.082 92.7835 119.142L92.8846 120H91.7459ZM43.7473 69.4001L44.2935 69.7801L44.2309 69.5674L43.7473 69.4001ZM22.6561 55.1916L23.1566 55.234C23.0808 55.2024 23.0102 55.1674 22.9413 55.1246L22.9496 55.1498L22.6561 55.1916ZM39.6972 42.1207C39.8276 44.5975 40.1559 50.5535 40.6665 51.8003C41.2569 53.2433 41.7588 54.58 42.2159 55.9509C42.674 57.323 43.0894 58.7305 43.5075 60.3153C43.6502 60.8577 43.9378 62.3855 44.2521 64.0581C44.7128 66.5108 45.2359 69.2909 45.3504 69.4541C45.4799 69.6386 46.6807 70.2732 48.092 70.9655C49.4626 71.6376 50.9997 72.335 51.9914 72.7412C51.7145 71.3324 51.1249 70.0321 50.4194 68.4788C49.1956 65.7808 47.6359 62.3447 46.6942 56.2626C46.6005 55.6576 46.5207 54.9255 46.4294 54.0842C45.9604 49.762 45.1679 42.4749 41.7525 41.9605C41.5425 41.9287 40.9692 41.9687 40.4184 42.0337L39.6972 42.1207ZM43.1925 67.9326C42.4132 61.8037 40.8559 57.3582 39.1823 52.5808C38.3212 50.1227 37.4289 47.5766 36.5866 44.6405C36.0263 42.6857 35.6428 40.7722 35.2756 38.9369C34.3998 34.5579 33.6132 30.6286 30.6592 27.7842C30.2351 27.376 28.8335 26.4521 27.4984 26.1298C26.7806 25.9563 26.1053 25.9671 25.7088 26.378C25.4194 26.6804 26.3217 28.7175 26.9195 30.0688C27.0947 30.465 27.2475 30.8089 27.3504 31.08C28.2324 33.3937 29.008 37.019 29.8113 40.7766C30.5065 44.0262 31.2228 47.3763 32.0285 49.9945C32.3725 51.1115 32.7984 51.9592 33.2373 52.8347C33.5908 53.5384 33.9536 54.2611 34.3012 55.1696C34.6454 56.0677 34.934 56.9795 35.2166 57.8732C35.5587 58.9522 35.893 60.0094 36.3083 60.9782C36.6258 61.7184 37.8056 62.8229 38.7697 63.7268C39.249 64.1756 39.6796 64.5785 39.9636 64.9034L40.497 65.5267C41.2672 66.4412 42.0066 67.3185 43.1925 67.9326ZM14.6753 22.4612C15.0734 23.7955 15.4269 24.684 15.7794 25.571C16.4603 27.2832 17.1409 28.9958 18.1143 33.6804C18.5453 35.7532 18.9545 37.9182 19.3272 40.1008C19.6914 42.237 20.0257 44.4166 20.3151 46.572C20.6377 48.9783 20.9772 49.5781 21.7262 50.9016L22.2543 51.8526C22.5803 52.4536 22.8019 52.8986 22.9738 53.2423C23.241 53.7785 23.3695 54.0356 23.4921 54.1274C23.5989 54.2076 23.8397 54.2559 24.298 54.3483C24.7256 54.4343 25.3172 54.5534 26.1839 54.7863C28.0809 55.2962 29.783 56.0896 31.2601 57.0343C32.2347 57.6575 33.1141 58.3486 33.8891 59.0691C33.4343 57.7512 32.7853 56.2674 32.1489 54.8117C31.4405 53.1917 30.7453 51.6033 30.3312 50.278C29.7513 48.4213 29.1787 45.8377 28.5457 42.9764C26.7652 34.9302 24.485 24.6274 20.1226 22.2181C18.2486 21.1839 16.6923 21.7407 15.152 22.2915L14.6753 22.4612Z" fill="white"/>
<path id="Vector_2" d="M86.9995 120C87.0694 119.365 87.1419 118.736 87.2162 118.113C87.4624 116.053 87.7361 114.005 88.0389 111.974C88.3865 109.64 88.7561 107.316 89.2185 105.02C89.68 102.732 90.2292 100.502 90.9317 98.3755C91.7481 95.9074 92.6336 94.0643 93.6794 92.5091C94.7294 90.9478 95.9287 89.6923 97.3729 88.3962C105.533 81.0757 114.652 77.6728 122.632 74.6953C124.026 74.1755 125.384 73.6681 126.695 73.1559L126.753 72.5277C126.933 70.5477 127.655 68.9579 128.554 66.9768C129.751 64.3398 131.274 60.9822 132.192 55.059C132.271 54.5432 132.353 53.7919 132.447 52.9302C132.952 48.2828 133.805 40.4475 138.084 39.8025C138.393 39.756 139.081 39.7965 139.71 39.8703C140.399 39.9517 141.078 40.1008 141.257 40.2556L141.468 40.4393L141.442 40.9339C141.367 42.3586 141.215 45.2315 140.977 47.6234C141.437 46.2491 141.893 44.8183 142.33 43.2944C142.879 41.3785 143.257 39.4935 143.619 37.6853C144.532 33.1176 145.353 29.0202 148.562 25.9297C149.061 25.4493 150.697 24.3667 152.24 23.9932C153.317 23.7337 154.376 23.7983 155.102 24.5566C155.216 24.6746 155.291 24.8201 155.338 24.9885C156.452 22.7789 157.763 21.0593 159.338 20.1891C161.655 18.9103 163.448 19.5521 165.223 20.1875C165.55 20.3046 165.878 20.4222 166.187 20.5187L166.716 20.6841L166.565 21.2197C166.091 22.8983 165.68 23.9335 165.269 24.9665C164.606 26.6325 163.943 28.2988 162.991 32.8835C162.567 34.9276 162.16 37.0786 161.787 39.2639C161.42 41.4189 161.087 43.5859 160.803 45.6951C160.739 46.1786 160.673 46.5946 160.604 46.9621C162.382 43.9802 164.386 41.0119 165.486 39.6794L165.94 39.1234C168.705 35.7376 173.337 30.0654 179.636 32.5395L179.983 32.6762L179.996 33.0532C180.107 36.3608 177.702 40.3429 176.279 42.7007L176.115 42.9714C174.464 45.7127 173.126 48.5577 171.714 51.5576L171.642 51.7121C170.931 53.2217 170.321 54.8531 169.718 56.4605C169.105 58.0985 168.499 59.7149 167.802 61.1769C167.149 62.5456 165.385 65.2197 163.429 68.1863C161.3 71.4143 158.939 74.9934 157.579 77.5406C156.949 78.7212 156.459 79.8226 155.986 80.8872C155.158 82.7535 154.375 84.5161 153.01 86.3744C150.659 89.5746 141.55 96.2191 135.265 100.803C133.466 102.116 131.901 103.257 130.755 104.13C129.38 105.178 128.087 106.135 126.898 107.015C120.542 111.718 117.224 114.174 116.019 120H114.862C116.089 113.6 119.539 111.046 126.23 106.095C127.399 105.23 128.671 104.289 130.074 103.22C131.146 102.403 132.756 101.229 134.607 99.8793C140.832 95.338 149.856 88.7557 152.103 85.6956C153.396 83.9353 154.154 82.2301 154.956 80.4232C155.443 79.3284 155.946 78.196 156.584 77.0009C157.97 74.404 160.345 70.8036 162.487 67.5564C164.421 64.6235 166.166 61.9781 166.784 60.6809C167.462 59.2593 168.058 57.6699 168.661 56.0589C169.273 54.4269 169.893 52.7709 170.62 51.2257L170.692 51.0711C172.117 48.0433 173.468 45.1719 175.151 42.378L175.314 42.1075C176.615 39.9525 178.773 36.3764 178.868 33.4713C173.5 31.6556 169.324 36.7685 166.811 39.8479L166.356 40.4057C165.284 41.7018 163.31 44.6299 161.552 47.5822C160.329 49.6361 159.215 51.6929 158.592 53.2005C163.102 53.9954 164.506 55.8831 164.173 58.2748C163.7 61.6772 159.362 65.9848 155.883 69.4385C154.906 70.4089 153.995 71.3124 153.301 72.0619L152.454 72.9941C151.244 74.3352 150.728 74.906 148.526 76.3389C147.504 77.0031 146.594 77.7068 145.668 78.4227C144.972 78.9605 144.265 79.5069 143.462 80.0715C139.517 82.8505 137.921 85.3857 136.763 87.2272C136.213 88.1005 135.756 88.8276 135.176 89.3954L133.7 90.8401L134.236 88.8392C135.798 83.0134 141.841 78.9333 146.454 75.8197C148.254 74.6051 149.831 73.5407 150.783 72.6101C151.745 71.672 155.304 67.8283 158.172 64.5599C160.074 62.3911 161.665 60.4888 161.953 59.9054C162.431 58.9358 162.54 58.1011 162.351 57.4283C162.176 56.8092 161.739 56.3052 161.098 55.9433C160.404 55.5507 159.48 55.3207 158.395 55.2833C155.714 55.19 152.118 56.2552 148.541 58.8702C146.994 60.0026 145.472 61.2345 144.02 62.5417C142.614 63.8062 141.275 65.1409 140.04 66.5204C136.15 70.8669 130.021 73.1543 123.021 75.7665C115.136 78.7088 106.127 82.0708 98.1255 89.2489C96.7371 90.494 95.594 91.6876 94.6118 93.147C93.6263 94.6133 92.7861 96.3684 92.0024 98.7373C91.3126 100.825 90.7743 103.008 90.3245 105.246C89.8751 107.479 89.5061 109.799 89.1569 112.143C88.8575 114.154 88.5854 116.19 88.34 118.246C88.2703 118.833 88.2025 119.417 88.1372 120H86.9995ZM135.706 68.7513L136.252 68.3713L135.769 68.5386L135.706 68.7513ZM156.844 54.2054L157.344 54.1628L157.05 54.121L157.058 54.0964C156.99 54.1384 156.919 54.1738 156.844 54.2054ZM139.334 50.7716C139.844 49.5247 140.172 43.5691 140.303 41.0919L139.582 41.0047C139.031 40.9399 138.457 40.8999 138.247 40.9317C134.832 41.4463 134.04 48.733 133.571 53.0534C133.479 53.8967 133.399 54.6288 133.306 55.2338C132.364 61.3159 130.804 64.752 129.58 67.45C128.875 69.0032 128.285 70.3036 128.009 71.7126C129 71.3062 130.537 70.6086 131.908 69.9367C133.319 69.2443 134.52 68.6098 134.648 68.4279C134.764 68.2619 135.287 65.482 135.748 63.0293C136.062 61.3565 136.35 59.8289 136.493 59.2865C136.911 57.7017 137.326 56.2942 137.784 54.9223C138.242 53.5512 138.743 52.2149 139.334 50.7716ZM140.818 51.5519C139.144 56.3292 137.587 60.7751 136.808 66.9038C137.994 66.2896 138.733 65.4124 139.503 64.4979L140.037 63.8746C140.321 63.5497 140.751 63.1468 141.23 62.698C142.194 61.7941 143.375 60.6895 143.691 59.9494C144.107 58.9806 144.442 57.9236 144.783 56.8442C145.066 55.9507 145.355 55.0389 145.698 54.1408C146.047 53.2325 146.409 52.5096 146.763 51.8059C147.202 50.9304 147.627 50.0827 147.971 48.9655C148.777 46.3477 149.494 42.9975 150.188 39.7478C150.992 35.9904 151.768 32.3649 152.649 30.0512C152.752 29.7801 152.905 29.4362 153.08 29.0402C153.678 27.6889 154.58 25.6512 154.291 25.3489C153.895 24.9385 153.219 24.9275 152.501 25.101C151.167 25.4233 149.765 26.347 149.34 26.7552C146.387 29.5997 145.6 33.5291 144.724 37.908C144.357 39.7434 143.974 41.6568 143.413 43.6117C142.571 46.5476 141.679 49.0941 140.818 51.5519ZM164.22 24.5422C164.573 23.6552 164.926 22.7667 165.325 21.4324L164.848 21.2626C163.308 20.7119 161.751 20.1551 159.877 21.1895C155.515 23.5986 153.234 33.9013 151.454 41.9475C150.821 44.8089 150.249 47.3923 149.669 49.2492C149.255 50.5747 148.56 52.1629 147.851 53.7831C147.215 55.2384 146.566 56.7224 146.111 58.0403C146.886 57.32 147.765 56.6287 148.74 56.0055C150.217 55.061 151.919 54.2675 153.816 53.7573C154.683 53.5246 155.274 53.4055 155.702 53.3201C156.16 53.2273 156.401 53.1793 156.508 53.0986C156.63 53.007 156.759 52.7497 157.027 52.2137C157.198 51.87 157.42 51.4248 157.746 50.8238C157.949 50.449 158.12 50.1459 158.274 49.8752C159.023 48.5495 159.362 47.9497 159.685 45.5432C159.974 43.3878 160.308 41.2082 160.673 39.0722C161.046 36.8894 161.455 34.7242 161.885 32.6516C162.859 27.967 163.54 26.2544 164.22 24.5422Z" fill="white"/>
</g>
<g id="_1137223784">
<path id="Vector_3" fill-rule="evenodd" clip-rule="evenodd" d="M89.8788 10.9358C84.278 3.08793 77.5292 0.348349 68.3412 1.45873C50.6083 3.60073 42.6522 28.8965 48.1156 43.6686C51.1197 51.7889 61.8531 61.0999 68.0564 66.579L89.8788 87.2281C93.9398 83.5175 96.5796 79.8075 100.7 76.1946C109.646 68.3494 127.701 54.3216 131.722 43.8875C136.626 31.1632 130.969 15.8858 124.866 8.75501C114.135 -3.7823 99.5457 -0.55131 89.8788 10.9358Z" fill="#FEFEFE"/>
<g id="Group">
<path id="Vector_4" fill-rule="evenodd" clip-rule="evenodd" d="M47.7545 23.1051C47.9393 23.185 48.0673 23.2834 48.0997 23.4061C48.3231 24.2474 47.8264 26.3768 48.2247 26.3846L55.1882 26.5206L54.9949 27.6164L51.3037 27.7433L51.2359 30.2924L58.7387 30.4185L58.6599 32.6291C58.5458 35.8485 58.4798 36.9581 63.5239 38.3212C68.568 39.6843 75.0716 40.9636 81.675 41.7445C86.3499 42.2969 91.0333 41.3794 95.7617 41.4714C97.7117 41.509 99.7074 42.7327 101.655 42.7019C103.758 42.6692 105.297 40.1819 107.366 40.0687C111.865 39.8224 116.783 41.7937 120.725 41.1289C122.839 40.7723 124.834 40.3506 126.675 39.8406C126.563 39.5015 126.504 39.0955 126.504 38.7846L126.047 37.4119L126.056 37.4093L126.1 37.5035L126.087 37.5087L126.441 37.8042L126.047 37.4111L126.055 37.4085L126.047 37.3839L126.039 37.3861L126.047 37.4115C125.938 37.0323 125.947 36.1954 126.293 35.9069L126.292 35.8627C125.93 35.8627 125.406 35.7823 125.013 35.573C123.261 35.1838 123.832 34.2293 125.599 33.8083L128.075 33.5278L127.886 31.789L127.883 31.8002L127.888 31.789L127.886 31.7886L127.946 31.6263C128.185 31.2634 128.728 31.0229 128.98 31.5423C129.709 31.7496 129.148 32.4892 129.148 33.4942L132.878 34.1537L132.873 34.1563C134.209 34.37 132.586 35.8291 131.963 35.8891C131.776 35.9073 131.588 35.9241 131.399 35.9397C131.446 36.2346 131.381 36.5668 131.135 36.8975C131.225 37.3497 131.415 38.288 130.757 38.4124L130.742 38.4485C131.686 38.0491 132.564 37.6111 133.37 37.1286C134.661 26.1341 129.916 14.6558 124.866 8.75501C114.136 -3.78231 99.5458 -0.55131 89.8788 10.9358C84.278 3.08793 77.5293 0.348349 68.3412 1.45873C57.6823 2.74625 50.5574 12.3999 47.7545 23.1051ZM126.822 39.3478L126.617 39.6765L126.603 39.6787L126.822 39.3478Z" fill="#A2D9F7"/>
</g>
<path id="Vector_5" fill-rule="evenodd" clip-rule="evenodd" d="M132.903 35.1057L131.123 35.8874V38.0418L130.814 38.168L130.57 41.824L130.418 41.9506L130.325 43.9452L131.214 44.0536C131.463 43.3362 131.206 42.9432 132.014 41.4435C132.063 41.3524 132.113 41.263 132.164 41.1758C132.308 39.2016 133.373 37.3185 133.075 36.1471C132.984 35.7912 132.929 35.444 132.903 35.1057ZM130.247 45.8809L125.655 46.0356L125.611 44.2215L126.857 43.9452L126.159 35.8818L123.773 34.6937C123.773 34.6937 124.29 34.0609 125.485 33.8368C126.302 33.6834 127.157 33.5547 127.99 33.5189L127.967 33.0703C127.967 33.0703 126.804 31.7628 125.854 31.5494C121.776 30.6338 121.328 33.0305 120.111 36.1237C120.111 36.1237 119.191 35.0979 118.781 34.9858C118.371 34.8734 116.852 34.6359 116.06 35.4004C115.268 36.1647 114.901 37.6302 114.901 37.6302C114.901 37.6302 114.69 38.2565 114.003 38.2819C113.315 38.3075 113.57 38.2357 113.287 38.3075C113.004 38.3791 112.663 39.237 112.663 39.237L112.24 39.6238L110.944 38.4798C110.944 38.4798 110.323 38.0246 109.389 38.3307C108.455 38.637 107.673 39.0654 107.673 39.0654L108.493 39.9327L110.257 42.3368C110.257 42.3368 110.719 43.0799 111.55 43.0783C112.381 43.0765 113.56 43.011 113.56 43.011C113.56 43.011 115.101 43.3452 115.52 43.6973C115.94 44.0492 117.187 45.2149 117.187 45.2149L118.04 46.7849L118.392 47.2424C118.392 47.2424 120.315 47.1058 120.844 47.1546C121.373 47.2034 122.371 47.4807 122.371 47.4807C122.371 47.4807 124.714 48.2572 125.069 48.5259C126.036 49.2576 126.751 49.8384 127.313 50.7589C127.581 50.0971 127.906 49.4549 128.295 48.874C128.573 47.7002 129.223 46.62 130.246 45.8831L130.247 45.8809Z" fill="#95C98C"/>
<g id="Group_2">
<path id="Vector_6" fill-rule="evenodd" clip-rule="evenodd" d="M58.7596 57.2849C61.9346 60.4763 65.2455 63.398 67.8646 65.7094L68.4003 66.1822L68.4148 66.1948L89.8841 86.5098C91.6317 84.8794 93.1361 83.2311 94.6315 81.5923C96.4062 79.6474 98.1697 77.7149 100.358 75.7958C101.728 74.5947 103.383 73.189 105.173 71.6676C110.5 67.1415 117.059 61.5689 122.372 55.9978L121.802 55.8922L118.399 55.448L114.419 56.2453L111.729 57.3921L111.699 57.4045L108.871 58.4001L108.784 58.4307L108.691 58.4291L106.032 58.3845L105.992 58.3839L105.958 58.3783L103.011 57.8959L102.978 57.8897C102.97 57.8881 100.316 57.3043 100.178 57.3043C100.031 57.3043 91.2908 57.3877 91.2665 57.3877H91.2623L83.6205 57.4163H83.6083L75.9777 57.2182L74.1455 57.6232L70.7732 59.4005L70.7097 59.4341L70.6503 59.4481L69.0436 59.8286L69.0036 59.8382L68.9557 59.841L67.3237 59.9395L67.2102 59.9465L67.1066 59.9063L61.1014 57.582L58.7596 57.2849ZM57.3958 56.6448C61.0921 60.4659 65.0912 63.96 68.0565 66.5791L89.8789 87.2281C93.9399 83.5175 96.5797 79.8075 100.7 76.1947C106.538 71.0752 116.253 63.3239 123.417 55.6557L121.888 55.372L118.377 54.9138L114.272 55.7361L111.527 56.9065L108.699 57.9021L106.04 57.8575L103.093 57.3751C103.093 57.3751 100.348 56.7753 100.178 56.7753C100.008 56.7753 91.2623 56.8607 91.2623 56.8607L83.6205 56.8893L75.9223 56.6893L73.9713 57.1208L70.5316 58.9335L68.925 59.314L67.293 59.4125L61.2285 57.0654L57.5902 56.6038L57.3958 56.6448Z" fill="#2497D1"/>
</g>
<path id="Vector_7" fill-rule="evenodd" clip-rule="evenodd" d="M57.3958 56.6448C61.0921 60.4659 65.0912 63.96 68.0565 66.5791L89.8789 87.2281C93.9399 83.5175 96.5797 79.8075 100.7 76.1947C106.538 71.0752 116.253 63.3239 123.417 55.6557L121.888 55.372L118.377 54.9138L114.272 55.7361L111.527 56.9065L108.699 57.9021L106.04 57.8575L103.093 57.3751C103.093 57.3751 100.348 56.7753 100.178 56.7753C100.008 56.7753 91.2623 56.8607 91.2623 56.8607L83.6205 56.8893L75.9223 56.6893L73.9713 57.1208L70.5316 58.9335L68.925 59.314L67.293 59.4125L61.2285 57.0654L57.5902 56.6038L57.3958 56.6448Z" fill="#0A689D"/>
<path id="Vector_8" fill-rule="evenodd" clip-rule="evenodd" d="M92.7614 32.1294H96.9845V39.0096H94.692V39.4671H89.7107V39.4956H80.6182V37.524H77.5418V38.0954H73.3055V32.3717H77.5418V35.0953H80.6182V30.1699H89.7107V35.0957H92.7614V32.1294Z" fill="#FEFEFE"/>
<path id="Vector_9" fill-rule="evenodd" clip-rule="evenodd" d="M58.6599 32.6292L57.2836 43.6452L51.1437 43.7204L51.269 46.0238L58.8786 46.1499L57.7166 56.5952L62.5408 57.4033L67.2579 59.2794V51.7284L66.7545 51.6023L66.6303 45.6381L67.3821 45.4158L67.2948 44.2586L68.1181 42.9811L68.9921 42.1704L69.1672 40.7999L70.1444 40.6953L70.1273 41.7096H70.3509V42.3207L71.4096 43.2472L72.0416 44.1416L72.137 45.5763L72.4545 45.7025L72.5793 46.0825L80.3096 43.8212L80.3999 43.098L80.2048 42.4597L80.5441 41.8995H81.7023L81.9659 42.797L81.5769 43.0667L82.2149 43.8849L94.8507 43.8696L95.3098 43.146L94.9867 42.6922L95.3046 42.1228L96.3632 42.0261L96.7478 42.6282L96.4842 43.1464L96.9974 43.9507L104.283 46.1961L104.322 45.5509L105.04 45.1355L105.095 43.9091L105.996 42.9215L106.532 42.6286L106.834 40.7999C106.834 40.7999 107.179 40.58 107.278 40.58C107.377 40.58 107.711 40.6924 107.705 40.6924L107.912 41.7599L109.707 44.1796L109.84 45.5763L110.265 45.8022L110.074 51.8698L109.736 51.9957V57.5556L114.621 55.7883C115.863 54.9474 117.455 54.6459 118.976 55.1172L122.966 55.5918C123.792 54.2689 124.892 53.4548 124.896 53.4496C125.588 52.2986 126.463 51.4385 127.419 50.8465C126.898 49.8971 126.147 49.0168 125.069 48.5258C121.891 47.0794 122.208 47.4936 121.095 47.3019C119.982 47.1101 118.261 47.2443 118.261 47.2443C118.261 47.2443 117.048 44.6629 116.156 44.0669C115.265 43.4709 114.346 43.2096 113.626 43.1464C112.905 43.0835 110.888 43.0213 110.888 43.0213C110.888 43.0213 109.986 42.1552 109.722 41.525C109.459 40.8949 107.326 38.826 107.326 38.826L105.228 37.9088L101.571 36.9132L94.695 38.3026L91.4667 36.4747L86.5904 36.2666L82.9774 38.7095L80.8826 37.758L75.0597 37.6971L70.3866 34.4133L65.3433 35.0952L62.9258 33.3141L60.9726 32.8197L58.6599 32.6292Z" fill="#95C98C"/>
<path id="Vector_10" fill-rule="evenodd" clip-rule="evenodd" d="M88.1256 49.2341H93.5741V52.0425H100.983V53.301H100.82V54.5349H105.748V55.4622H104.839V56.0008C104.548 56.4396 104.596 57.2551 104.314 57.681C104.314 57.681 103.679 58.3785 103.425 58.727C102.732 58.4985 102.004 58.2843 101.494 57.9699C99.5835 56.976 97.4235 57.0292 95.3536 57.3777C93.7422 57.6494 91.136 58.3607 89.6783 59.3374C87.5583 59.5865 86.1771 59.4737 83.8884 59.2366C80.5814 57.9755 81.2592 58.3629 78.4323 57.6632C77.7237 57.6632 75.454 57.6572 74.7073 58.3547L74.7534 58.1888L74.2165 55.4622H73.347V54.5349H76.8756V53.301H76.4902V52.0425H88.1256V49.2341Z" fill="#D9DADA"/>
<path id="Vector_11" fill-rule="evenodd" clip-rule="evenodd" d="M64.1593 20.3176L68.11 20.3254L68.062 25.711L68.7465 25.7766V32.1562H69.5411L69.6661 34.3106L68.4688 34.4907L66.1849 34.9921L65.482 35.3956L64.5089 34.5037L63.3414 33.5189L62.3606 33.0361L62.4856 32.3531L63.2467 32.0534V25.6504H63.9155L64.1593 20.3176Z" fill="#FEFEFE"/>
<path id="Vector_12" fill-rule="evenodd" clip-rule="evenodd" d="M75.2983 27.3674C75.1036 27.4376 74.8917 27.7059 74.6519 28.0174C74.4122 28.3286 74.1448 28.6837 73.8911 28.9586C73.6376 29.2337 73.3984 29.4292 73.2108 29.6478C73.0237 29.8667 72.8888 30.1094 72.8137 30.3035C72.7384 30.4976 72.7232 30.6442 72.7834 30.8459C72.8442 31.048 72.9807 31.3057 73.0797 31.5232C73.1787 31.741 73.2399 31.9187 73.9648 32.0075C74.6897 32.0964 76.0783 32.0964 76.821 32.0075C77.5635 31.9187 77.6607 31.741 77.7409 31.5712C77.822 31.4017 77.8855 31.24 77.9243 31.0452C77.963 30.8511 77.9768 30.6246 77.9622 30.4145C77.9473 30.2043 77.9047 30.0116 77.7253 29.7383C77.5463 29.4652 77.231 29.1124 76.8957 28.7347C76.5601 28.3576 76.2042 27.956 75.9377 27.6909C75.6711 27.426 75.4932 27.2976 75.2983 27.3674Z" fill="#FFED00"/>
<path id="Vector_13" fill-rule="evenodd" clip-rule="evenodd" d="M94.7274 27.3531C94.5327 27.4247 94.3208 27.6987 94.081 28.0168C93.8413 28.3349 93.5738 28.6974 93.3202 28.9783C93.0667 29.2592 92.8275 29.4589 92.6399 29.682C92.4527 29.9057 92.3179 30.1534 92.2426 30.3518C92.1676 30.5501 92.1523 30.6998 92.2125 30.9057C92.2733 31.1123 92.4098 31.3754 92.5088 31.5979C92.6078 31.8202 92.669 32.0016 93.3939 32.0923C94.1188 32.1831 95.5074 32.1831 96.2499 32.0923C96.9926 32.0016 97.0896 31.8202 97.1701 31.6469C97.2509 31.4735 97.3146 31.3084 97.3533 31.1095C97.3921 30.9114 97.4059 30.6798 97.3911 30.4653C97.3762 30.2506 97.3337 30.0537 97.1542 29.7746C96.9754 29.4957 96.6601 29.1352 96.3245 28.7496C95.9892 28.3643 95.6331 27.9543 95.3668 27.6834C95.1002 27.4129 94.9221 27.2817 94.7274 27.3531Z" fill="#FFED00"/>
<path id="Vector_14" fill-rule="evenodd" clip-rule="evenodd" d="M85.0507 20.6869C84.4185 20.7668 83.6476 22.0342 83.1398 22.8067C82.6318 23.58 82.386 23.8579 82.0614 24.1896C81.7376 24.5219 81.3351 24.9075 81.0382 25.3113C80.7412 25.7154 80.5506 26.137 80.3906 26.5449C80.2316 26.9527 80.105 27.3458 80.079 27.8444C80.0531 28.3438 80.1286 28.9486 80.3809 29.3696C80.6332 29.7905 81.0634 30.0266 82.4549 30.1451C83.8465 30.2637 86.2012 30.2637 87.5497 30.2021C88.8991 30.1414 89.2423 30.0182 89.5701 29.7735C89.8979 29.5296 90.2086 29.1625 90.2752 28.5939C90.3417 28.0253 90.1641 27.2534 89.9555 26.718C89.7469 26.1832 89.5093 25.8839 89.2407 25.5577C88.9729 25.2314 88.6759 24.8789 88.2427 24.4181C87.8094 23.9579 87.2398 23.3909 86.7084 22.5528C86.1768 21.7149 85.6827 20.6077 85.0507 20.6869Z" fill="#FFED00"/>
<path id="Vector_15" fill-rule="evenodd" clip-rule="evenodd" d="M65.9255 16.2383C65.7514 16.3065 65.5619 16.5674 65.3474 16.8703C65.1331 17.173 64.8939 17.518 64.6671 17.7853C64.4403 18.0528 64.2264 18.2428 64.0587 18.4553C63.8915 18.6682 63.7709 18.9041 63.7036 19.0928C63.6364 19.2816 63.6227 19.4241 63.6766 19.6201C63.7311 19.8166 63.8529 20.0671 63.9497 20.223C64.0464 20.379 64.1183 20.4404 64.7946 20.4642C65.4712 20.4883 66.753 20.4749 67.4086 20.4442C68.0646 20.4136 68.0949 20.3656 68.1384 20.2628C68.1822 20.1605 68.239 20.0033 68.2737 19.814C68.3084 19.6253 68.3208 19.4051 68.3076 19.2008C68.2943 18.9965 68.2561 18.809 68.0956 18.5435C67.9356 18.2778 67.6538 17.9349 67.3537 17.5678C67.0539 17.201 66.7356 16.8105 66.4971 16.5528C66.2589 16.2953 66.0996 16.1706 65.9255 16.2383Z" fill="#FFED00"/>
<path id="Vector_16" fill-rule="evenodd" clip-rule="evenodd" d="M102.971 18.3963L102.972 18.4347C102.972 18.8593 102.595 19.2034 102.128 19.2034C101.879 19.2034 101.655 19.1053 101.501 18.9489C101.107 19.2348 100.565 19.4113 99.9663 19.4113C98.9649 19.4113 98.1214 18.9169 97.8643 18.2428C97.5756 18.3513 97.2383 18.4139 96.878 18.4139C96.5843 18.4139 96.3058 18.3723 96.0565 18.2981C95.8802 18.6142 95.5307 18.8295 95.128 18.8295C94.6039 18.8295 94.1698 18.4649 94.091 17.9883C92.7664 17.8855 91.731 16.9894 91.731 15.899C91.731 14.7399 92.9017 13.8 94.3457 13.8C94.5095 13.8 94.6695 13.8124 94.825 13.8354C94.8838 13.2788 95.3841 12.8442 95.9927 12.8442C96.3074 12.8442 96.5936 12.9607 96.8044 13.1503C97.1068 12.3276 98.1311 11.7218 99.3486 11.7218C100.804 11.7218 101.984 12.5871 101.984 13.6547C101.984 13.8376 101.949 14.0149 101.884 14.1827C102.047 14.1501 102.219 14.1327 102.396 14.1327C103.487 14.1327 104.372 14.7932 104.372 15.6081C104.372 15.8407 104.3 16.0606 104.172 16.2561C106.52 16.3015 108.366 16.7665 108.366 17.3333C108.366 17.9301 106.32 18.4139 103.796 18.4139C103.514 18.4139 103.239 18.4079 102.971 18.3963Z" fill="#FEFEFE"/>
<path id="Vector_17" fill-rule="evenodd" clip-rule="evenodd" d="M106.016 24.2294C105.252 26.867 109.592 25.1186 109.711 24.9483C109.893 25.0748 109.949 25.4881 110.177 25.5462C110.405 25.6042 110.775 25.3153 110.961 25.3082C111.029 25.5587 111.235 25.7702 111.516 25.8419C111.881 25.9351 112.247 25.7594 112.385 25.4427C113.326 25.607 114.203 25.1696 114.392 24.4133C114.594 23.609 113.941 22.7489 112.935 22.492C112.821 22.463 112.707 22.443 112.595 22.4312C112.65 22.0348 112.377 21.6443 111.953 21.5361C111.734 21.4802 111.514 21.51 111.335 21.6041C111.267 20.9796 110.658 20.3772 109.81 20.1607C108.795 19.9018 107.823 20.2922 107.637 21.0327C107.606 21.1597 107.599 21.289 107.615 21.4166C107.507 21.365 107.72 21.3434 107.267 21.2912C105.608 21.0995 105.696 23.0212 105.696 23.0212C104.705 21.861 102.209 23.7899 105.028 24.5093C106.005 24.7584 105.828 24.1898 106.016 24.2294Z" fill="#FEFEFE"/>
<path id="Vector_18" fill-rule="evenodd" clip-rule="evenodd" d="M74.9324 19.7646C75.5218 19.8941 75.9331 20.1672 76.3552 20.5933L76.5329 20.9245C76.5329 20.9245 76.6697 20.096 77.0391 19.6542C77.4085 19.2122 77.8325 18.7701 77.8325 18.7701C77.8325 18.7701 77.1209 19.1016 76.9706 19.2466C76.8202 19.3917 76.4576 20.0271 76.4576 20.0271C75.8226 19.5071 75.7705 19.69 74.9324 19.7646Z" fill="#0A689D"/>
<path id="Vector_19" fill-rule="evenodd" clip-rule="evenodd" d="M78.193 21.3126C78.6309 21.6419 78.8686 22.0226 79.0583 22.5332L79.0819 22.8733C79.0819 22.8733 79.5019 22.2423 79.9703 22.0178C80.4386 21.7931 80.9519 21.5891 80.9519 21.5891C80.9519 21.5891 80.2425 21.5931 80.0648 21.6559C79.8872 21.7187 79.3528 22.1051 79.3528 22.1051C79.0222 21.4368 78.9115 21.5679 78.193 21.3126Z" fill="#0A689D"/>
<path id="Vector_20" fill-rule="evenodd" clip-rule="evenodd" d="M97.1564 25.3149C97.7 25.3653 98.0995 25.5646 98.5255 25.9003L98.7214 26.178C98.7214 26.178 98.7535 25.4186 99.0369 24.9802C99.3203 24.542 99.6527 24.0975 99.6527 24.0975C99.6527 24.0975 99.0496 24.4746 98.9306 24.6218C98.8113 24.7689 98.5555 25.3803 98.5555 25.3803C97.928 24.984 97.9013 25.1544 97.1564 25.3149Z" fill="#0A689D"/>
<path id="Vector_21" fill-rule="evenodd" clip-rule="evenodd" d="M106.462 14.318C106.767 14.3462 106.991 14.4579 107.229 14.6458L107.339 14.8016C107.339 14.8016 107.357 14.3759 107.516 14.1302C107.675 13.8847 107.861 13.6356 107.861 13.6356C107.861 13.6356 107.523 13.8469 107.456 13.9295C107.389 14.0119 107.246 14.3546 107.246 14.3546C106.894 14.1324 106.879 14.2278 106.462 14.318Z" fill="#0A689D"/>
<path id="Vector_22" fill-rule="evenodd" clip-rule="evenodd" d="M57.6528 27.839C57.9576 27.8671 58.1814 27.9789 58.4201 28.1668L58.53 28.3226C58.53 28.3226 58.548 27.8969 58.7067 27.6512C58.8655 27.4057 59.0519 27.1566 59.0519 27.1566C59.0519 27.1566 58.7138 27.3679 58.6471 27.4505C58.5803 27.5329 58.4369 27.8755 58.4369 27.8755C58.0852 27.6534 58.0703 27.7488 57.6528 27.839Z" fill="#0A689D"/>
<path id="Vector_23" fill-rule="evenodd" clip-rule="evenodd" d="M130.4 46.3974V46.4938H124.68V46.3974H124.205C124.582 46.4868 124.973 46.6592 125.356 46.8623C125.611 46.9978 125.842 47.1828 126.066 47.3641C126.162 47.4415 126.288 47.5514 126.395 47.6094C126.403 47.6132 126.426 47.625 126.435 47.624C126.454 47.6164 126.506 47.532 126.517 47.5134C126.815 47.0466 127.307 46.6112 127.872 46.5478C128.478 46.4796 128.912 46.8355 129.453 46.8277C129.716 46.8237 129.948 46.7291 130.196 46.655L130.357 46.606L130.308 46.9818L130.238 47.0008C129.992 47.0674 129.712 47.1642 129.458 47.1676C128.916 47.1754 128.431 46.8267 127.907 46.8855C127.444 46.9379 127.032 47.3201 126.79 47.7006C126.646 47.9277 126.523 48.0598 126.245 47.9109C125.871 47.711 125.586 47.3663 125.207 47.165C124.288 46.6774 123.28 46.2913 122.645 47.2933C124.628 47.7222 125.886 48.5936 127.089 50.2708L127.135 50.3352L126.925 50.6289L126.837 50.5035C126.342 49.7984 125.72 49.1034 125.008 48.6166C123.211 47.3899 120.502 47.2789 118.395 47.3519C118.034 47.3645 118.02 47.3231 117.879 47.0026C117.376 45.8031 116.636 44.5999 115.528 43.885C114.416 43.1681 112.832 43.1531 111.553 43.188C110.529 43.216 110.403 42.9224 109.928 42.0853C109.089 40.6086 108.231 39.598 106.751 38.7493C105.154 37.8333 102.906 37.1577 101.067 37.1209C100.263 37.1049 99.4312 37.1975 98.6387 37.3312C97.4506 37.5318 96.5383 37.8698 95.4805 38.447C95.1656 38.6188 95.0276 38.7567 94.7127 38.4654C94.2223 38.0124 93.666 37.7515 93.0932 37.4298C92.6319 37.1707 92.2086 36.9444 91.7008 36.787C89.9128 36.2338 87.4817 36.0041 85.7415 36.8118C85.0099 37.1513 84.4015 37.6177 83.8242 38.1795C83.1015 38.8831 82.8131 39.1336 81.8816 38.5278C81.3584 38.1709 80.9007 37.9766 80.2849 37.8366C78.6072 37.4544 76.8987 37.483 75.2327 37.911C74.9831 37.9748 74.9411 37.961 74.7914 37.7495C74.0838 36.7491 72.4708 35.5095 71.3646 34.9965C69.4302 34.0988 67.5485 34.6954 65.6812 35.4383C65.5089 35.5069 65.3784 35.5743 65.2574 35.368C65.1255 35.1593 64.8308 34.9169 64.6409 34.7558C62.6195 33.0424 61.303 32.7643 58.7404 32.8615L57.6297 41.748C58.0169 41.9449 58.3694 42.1428 58.7204 42.4113C59.8105 43.2466 60.813 44.5947 61.1087 45.96C61.1578 46.1863 61.188 46.4161 61.2153 46.6462C61.3292 47.6042 61.4403 47.6538 62.3721 47.7212C64.117 47.8469 65.3689 48.5427 66.5208 49.7918V45.1799H67.1173C67.0215 44.1493 67.4964 43.1301 68.373 42.5867V41.9345H68.8834V41.4417H68.9331V40.6902H69.1813V40.4567H70.2518V41.4417H70.4585V41.9345H70.9424V42.5557C71.8533 43.0903 72.3458 44.1303 72.2496 45.1799H72.6865V45.9318C75.0491 45.1605 77.4345 44.466 79.828 43.8V43.5853H80.0761V43.2596H80.2912V43.0333H79.9682V42.224H80.2912V41.79H81.8085V42.224H82.1969V43.0333H81.8085V43.2596H82.0232V43.5853H82.3211V43.7754H87.8184V43.6501H88.1491V43.3578H88.748V43.6501H89.1123V43.774L94.6129 43.7267V43.5853H94.861V43.2596H95.0759V43.0333H94.7533V42.224H95.0759V41.79H96.593V42.224H96.9816V43.0333H96.593V43.2596H96.8083V43.5853H97.106V43.8682L104.208 45.931V45.2131H104.808L104.806 45.1911C104.707 44.1567 105.18 43.1327 106.06 42.5867V41.9345H106.571V41.4417H106.621V40.6902H106.869V40.4567H107.939V41.4417H108.146V41.9345H108.63V42.5557C109.551 43.0969 110.039 44.1529 109.933 45.2131H110.308V45.4668H110.374V46.138H110.308V52.1055H109.845V57.4112C111.606 56.9023 113.214 55.9409 114.961 55.3767C117.665 54.5038 120.105 54.7431 122.822 55.3181L123.05 55.3665L122.71 55.6364L122.661 55.6264C120.095 55.1034 117.605 54.8857 115.064 55.706C113.443 56.229 111.95 57.0811 110.335 57.6205C108.546 58.2178 106.187 58.2934 104.344 57.853C104.14 58.2416 103.876 58.5345 103.576 58.8446C105.549 59.5563 108.267 59.5292 110.227 58.8756C111.843 58.3366 113.337 57.4841 114.961 56.9601C117.137 56.2574 119.22 56.2704 121.445 56.6366L121.654 56.6712L121.356 56.9719L121.301 56.9631C119.16 56.618 117.157 56.6132 115.064 57.2888C112.769 58.0295 110.764 59.3806 108.315 59.6483C107.259 59.7637 106.076 59.7335 105.026 59.5709C103.253 59.2972 101.753 58.303 100.036 57.8598C98.5314 57.4715 96.7342 57.3298 95.1936 57.5411C93.1777 57.817 91.5275 58.8684 89.6706 59.5935L89.6488 59.6601L89.5068 59.6539C85.8223 61.0412 84.2007 59.3914 80.8874 58.2572C79.7791 57.8776 78.5683 57.6365 77.3951 57.7418C74.8164 57.9733 72.9628 59.8846 70.6108 60.7385C69.4025 61.1769 68.0628 61.3155 66.807 61.011C65.5834 60.7143 64.4777 60.0116 63.319 59.5335C62.246 59.0907 61.1113 58.7448 59.9659 58.5561L59.9235 58.5491L59.6193 58.1519L59.8875 58.1929C61.1054 58.379 62.3097 58.7445 63.4484 59.2139C65.2877 59.9718 66.5444 60.9644 68.6525 60.8127C70.7592 60.6611 72.2709 59.5132 74.0582 58.5305L74.6502 58.2234L74.3979 57.155C73.1369 57.8274 71.962 58.6645 70.6108 59.1551C69.4033 59.5935 68.0625 59.7321 66.807 59.428C65.5834 59.1313 64.4777 58.4278 63.319 57.9501C61.8845 57.3588 60.004 56.9121 58.4526 56.8448L58.2638 56.8068L58.0212 56.4605L58.5235 56.4765C60.1606 56.5335 61.937 57.0081 63.4484 57.6305C64.6613 58.1297 65.8516 58.8994 67.1494 59.1487V51.8382H66.5208V50.3088C65.3374 48.9521 64.1748 48.1986 62.3478 48.0654C61.1784 47.9809 61.0073 47.7847 60.8675 46.6186C60.6274 44.6189 59.3125 43.0281 57.5839 42.1129L57.3793 43.755H51.3776V45.9142H59.143L57.8723 56.2372L57.4869 55.9071L58.7554 46.2597H51.0354L51.035 43.4092H57.0777L58.6891 30.5284H51.0025V27.8432H46.7897L46.8128 27.3897H55.072V26.6204H47.9911V23.3549L47.6843 23.3047L47.6857 22.9544L48.3335 23.0612V26.275H55.4142V28.1235H51.3448V30.1829H59.0769L58.7841 32.5146C59.9539 32.4707 61.1357 32.4922 62.2519 32.8801V31.9201H63.0132V25.5406H63.9065V20.5285H63.8086V20.2982C63.0051 19.3639 63.8843 18.3815 64.5347 17.645C65.0001 17.1186 65.443 16.6002 65.8323 16.0124V15.562L65.5046 15.4232L65.6056 15.0282L65.8323 15.1235V14.7777H65.4463V14.3656H65.8323V13.9418H66.2465V14.3656H66.6321V14.7777H66.2465V15.2977L66.579 15.4372L66.4772 15.8333L66.2465 15.7361V15.9808C66.641 16.5808 67.0902 17.109 67.5643 17.645C68.1946 18.3573 69.0389 19.301 68.3637 20.208H68.3885V20.5285H68.2195V25.5406H68.9803V31.9201H69.7747V34.2086C71.0194 34.3144 72.0866 34.9043 73.0719 35.6431V32.126H72.9162V31.7657C72.0382 30.7533 72.9945 29.6689 73.7283 28.8388C74.2533 28.2452 74.7508 27.6615 75.1881 26.9975V26.5367L74.8603 26.3989L74.9613 26.0033L75.1881 26.0988V25.7524H74.8027V25.3407H75.1881V24.9171H75.6022V25.3407H75.9879V25.7524H75.6022V26.2728L75.9348 26.4123L75.833 26.808L75.6022 26.7108V26.9767C76.0425 27.6493 76.5454 28.2388 77.0758 28.8388C77.8088 29.6681 78.7638 30.7513 77.8902 31.7631H77.9165V32.126H77.7155V34.9761H80.3845V30.1093H79.943V29.5955H80.0017C79.252 28.4617 79.8498 26.5133 80.5964 25.5402C81.0036 25.0102 81.4611 24.5084 81.907 24.0108C82.942 22.8542 83.9248 21.7171 84.7865 20.4184V19.4491L84.3064 19.247L84.4304 18.7616L84.7865 18.9113V18.2584H84.2098V17.7513H84.7865V17.1176H85.2973V17.7513H85.874V18.2584H85.2973V19.1268L85.7847 19.3312L85.6605 19.8166L85.3068 19.668L85.3444 20.3604C86.2151 21.6825 87.2107 22.8364 88.2624 24.0108C88.7084 24.508 89.1661 25.0102 89.5731 25.5402C90.2824 26.4655 90.9183 28.4815 90.2435 29.5955H90.4715V30.1093H89.8258V34.9761H92.5279V32.1272H92.3576V31.7675C91.4814 30.7551 92.4358 29.6701 93.1702 28.8404C93.7032 28.2374 94.208 27.6445 94.6501 26.9685V26.7056L94.2769 26.5489L94.3857 26.1268L94.6501 26.2378V25.8015H94.2076V25.3619H94.6501V24.8761H95.0922V25.3619H95.5346V25.8015H95.0922V26.4239L95.4702 26.5829L95.3625 27.0053L95.0922 26.8917V27.0519C95.5207 27.6946 96.007 28.2634 96.517 28.8404C97.2508 29.6697 98.2044 30.7525 97.332 31.7649H97.3581V32.1272H97.1715V37.3188C97.8412 37.1067 98.5437 36.981 99.2394 36.8942L99.2398 35.5099H99.0041V34.6742H98.8116V33.9373H98.5971V33.0844H105.761C105.714 32.8269 105.573 32.3895 105.908 32.3489C113.044 31.4806 115.809 29.8029 121.029 25.3325C122.785 23.8287 124.562 22.351 126.422 20.979L126.595 20.8516V29.1671L129.078 30.4722V30.6545H129.795V30.9214H130.079V31.2143H130.406V31.7161L133.123 32.6784L133.085 32.9293L133.047 33.3479H129.179V33.4049C130.343 33.4347 131.965 33.568 132.994 34.0545L133.051 34.0817L133.082 34.4717L132.911 34.3883C131.941 33.9141 130.294 33.7798 129.179 33.75V33.7616L129.067 33.7574C128.768 33.746 128.467 33.74 128.169 33.7642L128.051 33.7738V33.7526C127.136 33.781 126.158 33.8717 125.273 34.0933C123.572 34.5187 123.572 35.0435 125.273 35.4689C127.198 35.9506 130.12 35.9502 132.045 35.4689C132.37 35.3878 132.762 35.2724 133.051 35.0979L133.178 35.0215L133.261 35.3662L133.19 35.4072C132.694 35.6957 131.927 35.8676 131.342 35.9644V38.2777H130.927V38.9954H130.789V42.0603H130.526V43.7218H130.286V43.8354H131.488L131.267 44.1809H128.306V43.1341H128.437V41.7144H128.91V43.5347H129.209V41.7144H129.704V43.3762H130.199V41.7144H130.461V39.3625H126.842V41.7144H127.003V43.0005H127.156V43.6351H127.418V43.0005H127.44V41.7144H127.935V43.1341H128.131V44.1809H125.831V45.6973H130.578L130.537 45.8381C130.493 45.9924 130.448 46.1495 130.419 46.3077L130.402 46.3974H130.4ZM132.908 32.9281L130.159 31.9235V32.1774H129.977V32.4115H129.562V32.7122H129.351V33.0279L132.908 32.9281ZM123.803 46.3357V45.7271H125.503V43.8354H126.828V43.346H126.675V42.0603H126.515V38.9954H126.348V38.7617H126.158V38.1523H125.94V35.9579C125.284 35.8482 123.654 35.5177 123.654 34.7814C123.654 33.718 126.836 33.4597 127.94 33.4117C127.485 32.8335 126.864 32.2105 126.252 31.8595C124.614 30.918 122.203 31.6268 121.357 33.3361L121.327 33.3967H121.314C120.915 34.1058 120.663 34.904 120.486 35.6961C120.428 35.9562 120.308 36.4934 119.939 36.1345C119.738 35.9394 119.572 35.7254 119.347 35.5535C118.515 34.9169 117.209 34.8859 116.343 35.4749C115.634 35.9579 115.248 36.7788 115.026 37.5873C114.83 38.2949 114.732 38.4612 113.978 38.517C113.294 38.5674 113.131 38.7545 112.751 39.2999C112.306 39.9401 112.1 39.8299 111.661 39.2901C111.213 38.7397 110.886 38.4236 110.148 38.3994C109.169 38.3671 108.657 38.6258 107.871 39.0776C108.912 39.8769 109.567 40.7606 110.224 41.9133C110.725 42.7906 110.715 42.868 111.725 42.8372C113.019 42.798 114.591 42.8722 115.712 43.5943C116.888 44.3524 117.661 45.5924 118.19 46.8613C118.21 46.8977 118.239 46.9822 118.258 47.0086C118.28 47.016 118.36 47.0078 118.384 47.0068C119.672 46.9636 121.029 46.9938 122.301 47.2253C122.691 46.5258 123.22 46.3003 123.803 46.3357ZM104.208 46.2899L97.106 44.2277V44.4954H97.7756V45.0999H97.4946V45.5258H97.37V46.8501H98.859V47.5514H104.208V46.2899ZM71.5098 69.6556C72.9295 68.945 74.1903 67.9992 75.7021 67.4616C77.4994 66.8228 79.2225 67.012 80.9977 67.6195C82.2367 68.0442 83.4019 68.6579 84.638 69.0898C87.3297 70.03 88.8936 69.3165 91.3402 68.1707C92.6057 67.5778 93.7469 67.0801 95.1478 66.8884C96.7316 66.6715 98.5736 66.8158 100.121 67.2153C100.976 67.436 101.75 67.7569 102.555 68.1108C102.91 68.2667 103.267 68.4246 103.632 68.556C105.156 69.1028 107.348 69.2013 108.933 68.8959L109.185 68.8475L108.924 69.2491L108.878 69.2573C106.632 69.6556 104.501 69.3421 102.418 68.4272C101.63 68.081 100.873 67.7657 100.036 67.5496C98.5314 67.1613 96.7342 67.0202 95.1936 67.2309C93.7913 67.4226 92.6075 67.959 91.338 68.5526C88.8534 69.7131 87.2454 70.3661 84.5263 69.4159C83.2906 68.984 82.126 68.3706 80.8874 67.947C76.3788 66.4038 75.3953 68.2739 71.6796 69.9883L71.5893 70.0296L71.4066 69.7074L71.5098 69.6556ZM70.6651 68.4164C72.4276 67.7285 73.8998 66.485 75.7021 65.844C77.4978 65.2052 79.2241 65.3948 80.9977 66.0021C82.2367 66.4268 83.4019 67.0404 84.638 67.4724C87.2634 68.3893 88.7965 67.7415 91.1942 66.6211C92.4988 66.0121 93.7067 65.4683 95.1478 65.2708C96.7316 65.0541 98.5736 65.1984 100.121 65.5975C100.976 65.8182 101.75 66.1391 102.555 66.4932C102.91 66.6491 103.267 66.8072 103.632 66.938C105.003 67.4296 106.837 67.5346 108.279 67.3768C109.104 67.2871 109.898 67.0659 110.676 66.7787L111.13 66.6115L110.573 67.1813L110.549 67.1899C107.815 68.1483 105.062 67.9712 102.418 66.8094C101.63 66.463 100.873 66.1481 100.036 65.9322C98.5318 65.5439 96.7338 65.4022 95.1936 65.6135C93.7909 65.8052 92.6075 66.3416 91.338 66.9346C88.8526 68.0964 87.2464 68.7481 84.5263 67.7985C83.2906 67.367 82.1256 66.7536 80.8874 66.3294C78.9118 65.6527 77.141 65.6411 75.2129 66.4548C73.6922 67.0965 72.3628 68.1146 70.8432 68.7413L70.7687 68.7719L70.5257 68.4708L70.6651 68.4164ZM69.2948 67.041C71.6895 66.6237 73.4553 64.8784 75.7021 64.0789C77.4978 63.4401 79.2241 63.6296 80.9977 64.237C82.2367 64.6618 83.4019 65.2752 84.638 65.707C87.2634 66.6241 88.7965 65.9761 91.1942 64.8558C92.4988 64.2468 93.7067 63.703 95.1478 63.5057C96.7316 63.289 98.5736 63.4327 100.121 63.8322C100.976 64.0529 101.75 64.3738 102.555 64.7276C102.91 64.8836 103.267 65.0415 103.632 65.1728C105.003 65.6649 106.837 65.7698 108.279 65.6117C110.55 65.3634 112.483 64.1366 114.6 63.3895L115.126 63.2038L114.419 63.8219C112.372 64.5893 110.533 65.7132 108.315 65.956C106.155 66.1921 104.409 65.9192 102.418 65.0441C101.63 64.6978 100.873 64.3829 100.036 64.167C98.5318 63.7786 96.7338 63.637 95.1936 63.8481C93.7883 64.0405 92.6101 64.5759 91.338 65.1698C88.852 66.33 87.2467 66.9834 84.5263 66.0331C83.2906 65.6017 82.1256 64.9885 80.8874 64.5643C75.8201 62.8285 74.8706 65.4989 70.6108 67.0455C70.2334 67.1825 69.8446 67.2897 69.45 67.3634L69.3974 67.3734L69.0743 67.0793L69.2948 67.041ZM65.096 63.1722C66.2928 63.742 67.2906 64.1074 68.6525 64.0093C71.4191 63.8102 73.2123 61.8537 75.7021 60.9682C79.1326 59.7485 81.5239 61.509 84.638 62.5966C87.3361 63.539 88.8876 62.8237 91.3402 61.6774C92.6061 61.0854 93.7463 60.5874 95.1478 60.395C96.7313 60.1783 98.5736 60.3221 100.121 60.7217C100.976 60.9424 101.75 61.2633 102.555 61.617C102.91 61.7729 103.267 61.9314 103.632 62.0626C105.002 62.5546 106.837 62.6596 108.279 62.5014C110.673 62.2397 112.706 60.8848 114.961 60.1571C116.226 59.7491 117.508 59.5627 118.835 59.5809L119.064 59.5839L118.781 59.926L118.73 59.9256C117.473 59.9188 116.263 60.0993 115.064 60.4858C112.772 61.2253 110.762 62.578 108.315 62.8453C106.151 63.0816 104.413 62.8091 102.418 61.9341C101.63 61.588 100.873 61.2723 100.036 61.0564C98.5318 60.6681 96.7338 60.5264 95.1936 60.7377C93.7887 60.9298 92.6095 61.4654 91.338 62.0592C88.853 63.219 87.2454 63.8719 84.5263 62.9227C82.9462 62.3711 79.3501 60.8934 77.683 61.0002C76.9964 61.0442 76.2784 61.2745 75.6215 61.4726C74.9948 61.662 74.3226 62.0544 73.7459 62.3677C72.7142 62.9283 71.6912 63.4551 70.6108 63.9351C68.7363 64.6161 67.1403 64.4917 65.3087 63.6552L64.4303 62.8553L65.096 63.1722ZM61.9033 60.2815C62.4262 60.4396 62.9425 60.6235 63.4484 60.8319C65.2907 61.5898 66.5404 62.5822 68.6525 62.4303C71.4203 62.2308 73.2109 60.2747 75.7021 59.3892C77.499 58.7504 79.2229 58.9396 80.9977 59.5473C82.2367 59.9718 83.4023 60.5856 84.638 61.0174C87.3353 61.9603 88.8884 61.2443 91.3402 60.0983C92.6061 59.5062 93.7463 59.0077 95.1478 58.816C96.732 58.5993 98.5732 58.743 100.121 59.1425C100.976 59.3632 101.75 59.6841 102.555 60.0384C102.91 60.1943 103.267 60.3524 103.632 60.4836C105.003 60.9756 106.837 61.0802 108.279 60.9224C110.672 60.6611 112.707 59.3058 114.961 58.5777C116.628 58.0391 118.264 57.9048 119.999 58.0649L120.227 58.0861L119.919 58.404L119.868 58.3998C118.212 58.2576 116.652 58.3946 115.064 58.9068C112.772 59.6461 110.763 60.998 108.315 61.2663C106.152 61.5026 104.411 61.2299 102.418 60.3551C101.63 60.009 100.873 59.6937 100.036 59.4778C98.5308 59.0895 96.7346 58.9474 95.1936 59.1585C93.7887 59.3508 92.6091 59.8864 91.338 60.4802C88.852 61.6404 87.2467 62.2937 84.5263 61.3437C83.2906 60.912 82.126 60.2983 80.8874 59.8746C75.8162 58.1389 74.8732 60.8089 70.6108 62.3565C69.4029 62.7947 68.0625 62.9335 66.807 62.629C65.5834 62.3323 64.4782 61.6286 63.319 61.1513C62.9053 60.9812 62.4842 60.8267 62.0582 60.6901L62.0358 60.6827L61.4395 60.1411L61.9033 60.2815ZM48.1495 30.6855H46.8214V30.4662H48.3668V42.5085H48.1495V30.6855ZM93.6844 51.1899V51.8066H101.217V53.5374H101.018V54.1484H105.507V54.4253H105.857V55.6018H105.168C104.959 56.2264 104.752 56.9273 104.493 57.5333C106.01 57.8792 107.998 57.8746 109.502 57.5035V51.7601H109.965V51.1899H93.6844ZM93.6844 50.5697H109.965V46.138H104.55V47.8971H98.5167V47.1956H97.0277V45.5258H94.657V47.1956H89.947V45.3734H86.9142V47.1956H82.171V45.5592H79.8999V47.1956H78.3778V47.7635H72.344V46.138H66.863V50.5697H87.9544V49.1244H93.6844V50.5697ZM100.675 53.5374H77.0724V54.1484H100.675V53.5374ZM105.514 55.2564V54.7707H73.5807V55.2564H105.514ZM88.2966 49.7628H93.3421V49.4701H88.2966V49.7628ZM93.3421 50.444H88.2966V51.8066H93.3421V50.444ZM100.875 53.1093H76.5989V53.1913H100.875V53.1093ZM76.5989 52.7637H100.875V52.1521H76.5989V52.7637ZM104.716 56.0307L74.4688 55.9621L74.9665 58.0719C77.8858 56.749 80.1205 57.4927 82.9339 58.7081C83.3964 58.908 83.8503 59.1081 84.3026 59.2824L89.4818 59.298C91.4117 58.5573 93.0486 57.4857 95.1478 57.1982C96.7313 56.9813 98.5742 57.1256 100.121 57.5251C101.212 57.8072 102.192 58.2896 103.228 58.7103C103.965 57.9487 104.429 57.0449 104.716 56.0307ZM74.3876 55.6164L104.805 55.686L104.825 55.6018H74.3842L74.3876 55.6164ZM67.8999 20.208C68.7735 19.4235 67.8789 18.5189 67.3094 17.8743C66.8605 17.3665 66.4323 16.8655 66.0498 16.3049C65.6676 16.8655 65.2394 17.3661 64.7906 17.8743C64.221 18.5189 63.3259 19.4235 64.2 20.208H67.8999ZM74.3165 56.8086L74.0317 55.6018H73.2383V54.4253H73.9366V54.1484H76.7302V53.5374H76.256V51.8066H87.9544V51.1899H66.863V51.4928H67.4917V59.2023C70.2282 59.549 72.0357 58.0067 74.3165 56.8086ZM88.3818 59.6531L85.4138 59.6367C86.4419 59.8998 87.3497 59.9126 88.3818 59.6531ZM128.385 33.1738L128.398 33.4009L128.852 33.4001V33.1574L128.385 33.1738ZM129.023 32.8063V32.7122H128.186V32.8309L129.023 32.8063ZM129.234 32.3661V32.1774H127.982V32.3661H129.234ZM127.858 32.7955V32.7122H127.783C127.809 32.7398 127.833 32.7673 127.858 32.7955ZM127.655 32.5738V32.4115H127.495C127.549 32.4651 127.602 32.519 127.655 32.5738ZM127.283 32.209V32.1774H127.248C127.26 32.1878 127.271 32.1986 127.283 32.209ZM126.941 31.9187V31.8767H126.887C126.905 31.8907 126.923 31.9045 126.941 31.9187ZM126.729 31.7611V31.2143H126.955V30.9214H127.269V30.6545H128.025V30.5172L123.553 27.4839V31.2255C124.49 30.9632 125.511 31.0406 126.409 31.5558C126.517 31.618 126.624 31.6867 126.729 31.7611ZM123.255 31.3213V26.9093L126.297 28.9726V21.454C124.54 22.7609 122.882 24.1492 121.217 25.5744C115.951 30.0843 113.141 31.7835 105.992 32.6236C105.971 32.6862 106.024 32.8957 106.052 33.0356H121.141C121.638 32.2309 122.4 31.6328 123.255 31.3213ZM131.014 36.0135C130.881 36.0317 130.747 36.0481 130.614 36.0627V37.932H131.014V36.0135ZM130.286 36.0953C130.114 36.1103 129.942 36.1229 129.77 36.1327V37.2053H129.784V36.8714H130.286V36.0953ZM129.442 36.1479L129.048 36.1595V37.8069H129.136V38.6034H128.503V37.4342H128.484V38.6034H127.957V38.1943H127.862V38.6034H127.272V37.5675H127.032V38.6034H126.675V38.65H130.6V38.6034H130.177V37.5508H129.893V38.6034H129.304V37.8069H129.442V36.1479ZM128.24 37.3058V37.2173H128.073V36.1549L127.76 36.1427V37.8069H128.073V37.3058H128.24ZM126.61 38.4162V38.1523H126.515V36.0399L126.267 36.0071V37.8069H126.486V38.4162H126.61ZM128.721 36.1639L128.4 36.1617V36.8714H128.568V37.0885H128.721V36.1639ZM127.432 36.1259C127.236 36.1133 127.039 36.0969 126.842 36.0775V37.2221H126.85V36.9214H127.396V37.2221H127.432V36.1259ZM107.569 38.8577C108.487 38.3281 109.045 38.0172 110.157 38.0544C110.996 38.0824 111.399 38.4392 111.909 39.065C112.247 39.4792 112.212 39.4886 112.526 39.0404C112.758 38.7099 113.03 38.3808 113.426 38.2539C113.685 38.1705 114.292 38.1943 114.464 38.0626C114.553 37.9944 114.613 37.834 114.654 37.6967H105.327C106.113 38.002 106.875 38.3782 107.569 38.8577ZM114.741 37.3844C114.942 36.6883 115.26 36.0183 115.774 35.5099H99.5381V36.8592C101.276 36.6723 102.778 36.8506 104.436 37.3858L114.741 37.3844ZM116.148 35.1972C117.102 34.5503 118.483 34.5407 119.435 35.1972H120.267C120.313 35.0215 120.363 34.8474 120.418 34.6742H99.3028V35.1972H116.148ZM119.811 35.5099C119.894 35.5903 119.972 35.6751 120.051 35.7626C120.065 35.7786 120.09 35.8098 120.115 35.8396C120.116 35.8374 120.116 35.8352 120.116 35.834C120.145 35.7268 120.168 35.6185 120.193 35.5099H119.811ZM120.522 34.3619C120.573 34.219 120.628 34.0772 120.686 33.9373H99.1097V34.3619H120.522ZM120.824 33.6252C120.86 33.5483 120.898 33.4723 120.937 33.3967H98.8954V33.6252H120.824ZM94.6129 44.0721L89.9722 44.1119V44.2431H90.7171V45.0478H90.4107V45.3734H90.2893V46.8501H94.3146V45.5258H94.1496V45.0999H93.8846V44.4954H94.6129V44.0721ZM87.041 44.1205L82.3211 44.1209V44.4954H82.9911V45.0999H82.7101V45.5258H82.5136V46.8501H86.572V45.3734H86.4367V45.0478H86.263V44.2431H87.041V44.1205ZM79.828 44.1581C77.4341 44.8244 75.0491 45.5216 72.6865 46.2951V47.4181H78.0352V46.8501H79.557V45.5258H79.3645V45.0999H79.0997V44.4954H79.828V44.1581ZM62.5943 33.0115C63.4089 33.3577 64.1885 33.9215 64.8603 34.4919C65.0938 34.6898 65.3925 34.9377 65.4691 35.1545C65.4927 35.1489 65.5311 35.1269 65.5559 35.1175C66.7604 34.6374 68.1189 34.1694 69.4312 34.1914L69.4324 32.2659H68.6378V25.8863H67.8771V21.3382H64.2489V25.8863H63.3555V32.2659H62.5943V33.0115ZM73.4141 35.9078C74.0162 36.3906 74.6207 36.9146 75.0701 37.5482C75.0794 37.562 75.0841 37.5854 75.0962 37.5961C75.1125 37.5957 75.1317 37.5806 75.1479 37.5762C76.8637 37.1361 78.6329 37.1055 80.3602 37.4998C81.0217 37.6509 81.5025 37.8652 82.0692 38.2387C82.8396 38.7471 82.9838 38.519 83.5871 37.9308C85.6722 35.8982 87.9069 35.6339 90.6585 36.1769C91.5802 36.3586 92.3041 36.5863 93.1272 37.0535C93.7683 37.4168 94.3938 37.7019 94.9444 38.2115C94.9612 38.2271 95.0143 38.2833 95.0169 38.2907C95.11 38.2699 95.2726 38.1671 95.3613 38.1192C95.843 37.8579 96.3153 37.6241 96.8293 37.4354V32.64H92.8702V35.3216H89.4836V30.7655H80.7269V35.3216H77.3733V32.6944H73.4141V35.9078ZM90.0685 45.0128V44.7023H90.3745V44.5887H89.63V44.4552H89.117V44.2461H88.77V43.9956H88.1606V44.2461H87.9128V44.4552H87.3832V44.5887H86.6058V44.7023H86.7795V45.0128H90.0685ZM95.0955 42.5695V42.6874H95.4185V43.6051H95.2032V43.9308H94.9551V44.7545H96.7633V43.9308H96.4655V43.6051H96.2504V42.6874H96.6394V42.5695H96.2504V42.1358H95.4185V42.5695H95.0955ZM82.3672 45.1169H79.7072V45.1803H82.3672V45.1169ZM80.311 42.5695V42.6874H80.6337V43.6051H80.4184V43.9308H80.1702V44.7545H81.9789V43.9308H81.681V43.6051H81.4657V42.6874H81.8547V42.5695H81.4657V42.1358H80.6337V42.5695H80.311ZM108.353 42.7962V42.8644H106.298V42.8468C105.485 43.34 105.047 44.2219 105.148 45.1761L105.153 45.2131H109.59C109.712 44.2251 109.232 43.2652 108.353 42.7962ZM106.963 41.0359V41.2664H107.211V41.7878H106.913V42.4303H106.641V42.5189H108.01V42.4303H107.804V41.7878H107.597V40.8021H107.211V41.0359H106.963ZM70.6651 42.7958V42.8644H68.6105V42.8468C67.7985 43.34 67.3598 44.2215 67.4608 45.1761L67.4612 45.1799H71.9055C72.0091 44.2003 71.5376 43.2614 70.6651 42.7958ZM69.2754 41.0359V41.2664H69.5235V41.7878H69.2259V42.4303H68.9527V42.5189H70.3229V42.4303H70.1161V41.7878H69.9091V40.8021H69.5235V41.0359H69.2754ZM94.8436 27.3224C94.417 27.9503 93.9381 28.5113 93.4354 29.0793C92.7838 29.8163 91.7672 30.8515 92.8303 31.7311L92.8428 31.7451C93.0062 31.8029 93.8983 31.7653 94.1397 31.7649L96.8309 31.7523C97.9275 30.8678 96.9164 29.8308 96.252 29.0793C95.7493 28.5109 95.27 27.9507 94.8436 27.3224ZM85.1236 20.6663H85.0462C84.208 21.9374 83.2337 23.0788 82.2205 24.2095C81.8008 24.6786 81.369 25.152 80.9858 25.6522C80.4715 26.322 80.1078 27.3871 80.1381 28.2466C80.1296 28.738 80.252 29.2758 80.6481 29.5955H89.672C89.8973 29.3812 90.0599 28.5873 90.05 28.3036C90.0669 27.4531 89.6975 26.3204 89.1845 25.6522C88.8011 25.1524 88.3689 24.6786 87.9493 24.2095C86.9352 23.078 85.9647 21.9368 85.1236 20.6663ZM75.4684 27.4173L75.4008 27.3348L75.3545 27.3897C74.94 27.9901 74.4783 28.5303 73.9934 29.0781C73.7696 29.3316 73.5395 29.5877 73.3351 29.8572C72.8738 30.4658 72.7231 31.1839 73.3727 31.7173L73.4022 31.7437C73.5613 31.8007 74.4286 31.7631 74.6648 31.7631L77.3895 31.7503C78.4869 30.8671 77.4747 29.829 76.8102 29.0781C76.3331 28.5389 75.8777 28.0065 75.4684 27.4173ZM64.2489 20.6139V20.7262H67.8771V20.6087C66.6693 20.6093 65.4614 20.6195 64.2489 20.6139ZM127.745 43.8354H127.804V43.4795H127.745V43.8354ZM129.536 43.8354H129.639V43.7218H129.536V43.8354Z" fill="#2497D1"/>
<g id="Group_3">
<path id="Vector_24" d="M67.9404 20.3176C68.9335 19.4677 68.0038 18.4959 67.3907 17.8013C66.992 17.3509 66.5245 16.8219 66.0839 16.1601H66.0159C65.5753 16.8219 65.1075 17.3509 64.7092 17.8013C64.096 18.4959 63.1663 19.4677 64.1594 20.3176H67.9404ZM74.3016 55.7262L104.891 55.7957L104.962 55.4921H74.2463L74.3016 55.7262ZM104.859 55.9215L74.3311 55.8519L74.8912 58.227C77.8464 56.8391 80.0765 57.5929 82.8911 58.8092C83.3684 59.0155 83.8392 59.2191 84.2927 59.3904L89.5109 59.4026C91.4453 58.6597 93.0387 57.5981 95.1623 57.307C96.7172 57.0941 98.5757 57.2392 100.094 57.6313C101.238 57.9267 102.182 58.408 103.255 58.839C104.077 58.0105 104.567 57.0211 104.859 55.9215ZM76.4901 52.8734H100.983V52.0425H76.4901V52.8734ZM100.983 52.9996H76.4901V53.3011H100.983V52.9996ZM93.4508 50.3344H88.1881V51.9164H93.4508V50.3344ZM88.1881 49.8725H93.4508V49.3603H88.1881V49.8725ZM74.2164 55.3659H105.623V54.6612H73.472V55.3659H74.2164ZM100.784 53.4276H76.9637V54.2581H100.784V53.4276ZM88.1255 49.2342H93.5758V50.6795H110.074V46.0282H104.442V47.7873H98.6254V47.086H97.1365V45.4162H94.5483V47.086H90.0556V45.2637H86.8055V47.086H82.2795V45.4494H79.7911V47.086H78.2693V47.6538H72.4528V46.0282H66.7545V50.6795H88.0631V49.2342H88.1255ZM93.5758 51.0801V51.9164H101.109V53.4276H100.909V54.2581H105.399V54.535H105.748V55.4921H105.09C104.29 57.849 104.344 57.9013 103.381 58.8886C105.389 59.6691 108.23 59.6575 110.261 58.9798C111.868 58.4438 113.368 57.5895 114.994 57.0647C117.239 56.3399 119.323 56.3987 121.427 56.745L121.319 56.8547C119.264 56.5239 117.227 56.4761 115.031 57.1842C112.741 57.9241 110.749 59.2722 108.303 59.5391C107.285 59.6505 106.056 59.6189 105.042 59.4626C103.261 59.1871 101.806 58.2036 100.063 57.7536C98.5595 57.3658 96.7188 57.2206 95.1789 57.4321C93.1042 57.716 91.4814 58.7758 89.5838 59.5098L89.5705 59.5499L89.4784 59.5493C85.8172 60.928 84.1583 59.2604 80.9224 58.153C79.8004 57.7686 78.5735 57.5259 77.3857 57.6326C74.7629 57.868 72.9453 59.7744 70.574 60.6353C69.3863 61.0664 68.0676 61.2037 66.8323 60.9042C65.6442 60.6157 64.5026 59.9032 63.3602 59.432C62.3234 59.0043 61.1622 58.6421 59.9834 58.4476L59.8713 58.3012C61.1018 58.4895 62.3153 58.8652 63.4072 59.3154C65.2497 60.0745 66.5075 61.0766 68.6602 60.922C70.7994 60.7679 72.3046 59.6193 74.1077 58.6281L74.7756 58.2818L74.4713 56.9925C73.1689 57.6718 71.9624 58.5479 70.574 59.0519C69.3866 59.483 68.0666 59.6203 66.8323 59.3214C65.645 59.0333 64.5022 58.3198 63.3602 57.8486C61.9243 57.2568 60.184 56.7882 58.634 56.7208L58.5197 56.586C60.1559 56.6432 61.9477 57.1312 63.4072 57.732C64.6711 58.2524 65.908 59.0571 67.2579 59.2794V51.7285H66.6295V50.2674C65.4233 48.8761 64.2334 48.0932 62.3555 47.9563C61.2477 47.8763 61.1099 47.7248 60.9752 46.6052C60.7253 44.52 59.328 42.8654 57.4954 41.9441L57.2836 43.6453H51.2691V46.0238H59.0198L57.8125 55.8191L57.7008 55.7094L58.8786 46.1499H51.1441L51.1437 43.5187H57.1735L58.8123 30.4186H51.1112V27.8877H55.1805V26.5107H48.0998V23.2615L47.7934 23.2115L47.7938 23.0835L48.2248 23.1543V26.3847H55.3055V28.0137H51.236V30.2925H58.9535L58.6599 32.6292C59.9103 32.5778 61.1737 32.5864 62.3606 33.036V32.0296H63.1218V25.6504H64.0152V20.4187H63.9171V20.3176H63.975C63.0752 19.4097 63.9894 18.4267 64.6159 17.7179C65.0207 17.2597 65.4968 16.7211 65.9411 16.0456V15.489L65.6335 15.359L65.6796 15.1779L65.9411 15.2881V14.6679H65.5551V14.4754H65.9411V14.0515H66.1379V14.4754H66.5234V14.6679H66.1379V15.3706L66.4503 15.502L66.4035 15.6833L66.1379 15.5713V16.0138C66.5879 16.7039 67.0728 17.2529 67.4835 17.7179C68.1108 18.4263 69.0246 19.4103 68.1248 20.3176H68.2797V20.4187H68.1108V25.6504H68.8715V32.0296H69.6661V34.3106C71.0058 34.3951 72.1371 35.0561 73.1806 35.8632V32.0162H73.0247V31.8729H73.1751C72.0463 30.8582 73.0855 29.7303 73.8094 28.9118C74.2636 28.3978 74.7987 27.7922 75.2968 27.0303V26.4637L74.9891 26.3341L75.0354 26.1532L75.2968 26.2634V25.6426H74.9112V25.4505H75.2968V25.0268H75.4935V25.4505H75.8791V25.6426H75.4935V26.3457L75.806 26.4771L75.7593 26.658L75.4935 26.5463V27.0097C75.9956 27.7814 76.5363 28.393 76.9946 28.9118C77.7181 29.7303 78.7575 30.8582 77.6292 31.8729H77.808V32.0162H77.6068V35.0859H80.4932V29.9998H80.0518V29.7051H80.2215C79.3114 28.6609 79.9187 26.6022 80.6824 25.6076C81.0405 25.1412 81.4893 24.6402 81.9874 24.0844C82.8747 23.0928 83.9222 21.9236 84.8952 20.4515V19.3761L84.4351 19.1822L84.5045 18.9113L84.8952 19.0758V18.1486H84.3183V17.8609H84.8952V17.2273H85.1887V17.8609H85.7655V18.1486H85.1887V19.1998L85.656 19.3959L85.5866 19.6668L85.1887 19.4997L85.2375 20.3963C86.2206 21.8942 87.2836 23.0806 88.182 24.0844C88.6805 24.6402 89.1289 25.1412 89.487 25.6076C90.2067 26.5457 90.8674 28.6897 90.0326 29.7051H90.363V29.9998H89.7173V35.0859H92.6366V32.0176H92.4663V31.8747H92.6164C91.4895 30.8604 92.5261 29.7319 93.251 28.9134C93.7109 28.3926 94.2548 27.7776 94.7588 27.0015V26.6326L94.4059 26.4841L94.4593 26.2767L94.7588 26.4023V25.6918H94.3164V25.4717H94.7588V24.9856H94.9834V25.4717H95.4259V25.6918H94.9834V26.4969L95.3415 26.6476L95.2884 26.8553L94.9834 26.7272V27.0853C95.4716 27.822 95.9927 28.4111 96.4359 28.9134C97.1612 29.7319 98.1975 30.8596 97.0709 31.8747H97.2494V32.0176H97.0628V37.4696C97.794 37.2225 98.5831 37.0829 99.3482 36.9914L99.3486 35.4004H99.1127V34.5645H98.9202V33.8277H98.7059V33.1942H105.882C105.882 33.0058 105.671 32.4878 105.921 32.4576C114.028 31.4716 116.835 29.0677 121.099 25.4163C122.864 23.9046 124.615 22.4478 126.486 21.0675V29.2335L128.969 30.5388V30.7641H129.686V31.0312H129.97V31.3239H130.297V31.7671H130.222L133.002 32.7517L132.988 32.8407L130.05 31.7671V32.0676H129.868V32.3017H129.453V32.6024H129.242V33.0702H129.071V33.1452L132.966 33.036L132.948 33.2382H129.071V33.5121C130.189 33.5352 131.91 33.6632 132.948 34.1538L132.958 34.2894C131.944 33.7935 130.171 33.661 129.071 33.6376V33.6476C128.769 33.6364 128.461 33.6302 128.16 33.655V33.6398C127.026 33.6688 126.009 33.7962 125.247 33.9867C123.425 34.4427 123.426 35.1194 125.247 35.5757C127.167 36.0555 130.151 36.0555 132.071 35.5757C132.534 35.4599 132.879 35.3294 133.107 35.192L133.136 35.3122C132.583 35.6335 131.635 35.8076 131.233 35.8706V38.1679H130.396V38.3674H130.818V38.8857H130.68V41.9505H130.418V43.6121H130.178V43.9452H131.288L131.208 44.0711H130.067V43.4859H130.308V41.8239H130.57V39.2529H126.734V41.8239H126.894V43.1103H127.047V43.7446H127.258V44.0711H125.722V45.8071H130.433C130.389 45.96 130.34 46.1317 130.312 46.2877H123.911V45.8368H125.611V43.9452H127.148V43.8708H126.937V43.2364H126.784V41.9505H126.624V38.8857H126.456V38.6521H126.267V38.0426H126.048V35.8646C125.47 35.7722 123.763 35.4461 123.763 34.7814C123.763 33.7552 127.43 33.5326 128.155 33.514C127.686 32.8819 126.984 32.1532 126.306 31.7641C124.608 30.7883 122.132 31.527 121.26 33.2869H121.251C120.829 34.0187 120.564 34.8504 120.38 35.6719C120.338 35.856 120.284 36.3168 120.014 36.0555C119.804 35.8504 119.66 35.6551 119.413 35.4663C118.543 34.8008 117.185 34.7684 116.283 35.3838C115.549 35.8822 115.151 36.7241 114.921 37.5581C114.736 38.2289 114.668 38.3566 113.97 38.4076C113.247 38.4616 113.059 38.6689 112.662 39.2369C112.257 39.8209 112.129 39.693 111.745 39.2205C111.275 38.6447 110.924 38.3153 110.151 38.2897C109.084 38.2543 108.569 38.548 107.673 39.0654C108.793 39.8921 109.448 40.7697 110.13 41.9683C110.675 42.9209 110.708 42.9781 111.728 42.9469C112.994 42.9085 114.555 42.9785 115.653 43.6868C116.811 44.4318 117.571 45.6601 118.094 46.9119C118.2 47.104 118.137 47.1248 118.388 47.1166C119.677 47.073 121.092 47.1084 122.358 47.3477C122.972 46.1693 123.957 46.2441 125.305 46.9594C125.556 47.0928 125.797 47.2871 125.998 47.4496C126.138 47.5628 126.258 47.66 126.344 47.7062C126.478 47.7783 126.527 47.7006 126.609 47.5726C126.888 47.1344 127.353 46.7157 127.884 46.6565C128.47 46.5902 128.916 46.945 129.455 46.9372C129.739 46.9334 129.979 46.8345 130.227 46.7599L130.209 46.8951C129.943 46.9672 129.681 47.0548 129.456 47.0578C128.915 47.0656 128.453 46.7135 127.895 46.7767C127.398 46.8323 126.96 47.2315 126.699 47.6414C126.584 47.8223 126.514 47.9317 126.296 47.8141C125.951 47.6302 125.649 47.2759 125.257 47.0678C123.98 46.3904 123.058 46.2907 122.474 47.3697C124.532 47.7843 125.792 48.6508 127.001 50.3352L126.926 50.4401C126.385 49.6692 125.746 48.9881 125.069 48.5258C123.253 47.2859 120.531 47.1679 118.392 47.2423C118.081 47.2527 118.102 47.2397 117.979 46.9598C117.468 45.7401 116.714 44.5207 115.586 43.7926C114.452 43.0615 112.854 43.0411 111.55 43.0783C110.596 43.1029 110.5 42.8714 110.022 42.0309C109.168 40.5256 108.299 39.512 106.805 38.6537C105.206 37.7377 102.922 37.0479 101.069 37.0114C100.275 36.9948 99.402 37.0911 98.6207 37.2229C97.4056 37.428 96.5195 37.7541 95.4288 38.3506C95.1302 38.5122 95.0484 38.6249 94.7861 38.3846C94.274 37.9092 93.7414 37.6673 93.1462 37.3338C92.6669 37.0635 92.2677 36.848 91.7325 36.6821C89.9076 36.1177 87.4555 35.8952 85.6962 36.7119C84.9491 37.0587 84.3367 37.5273 83.7489 38.1005C83.0545 38.7757 82.8182 39.0066 81.9424 38.437C81.3995 38.0667 80.9502 37.8754 80.3088 37.7295C78.6115 37.343 76.8914 37.3718 75.2057 37.8046C75.0015 37.8574 75.0015 37.8574 74.8801 37.6855C74.1671 36.6787 72.531 35.4179 71.41 34.8967C69.4338 33.9811 67.5404 34.5805 65.6416 35.3364C65.5067 35.39 65.4323 35.4511 65.3489 35.3088C65.2146 35.0963 64.9005 34.8328 64.7106 34.6716C62.646 32.9215 61.3016 32.6468 58.6441 32.7557L57.512 41.8116C57.8745 41.9937 58.2399 42.1808 58.6544 42.4987C59.7229 43.3172 60.712 44.6435 61.0026 45.9832C61.0509 46.2073 61.08 46.4316 61.1073 46.6591C61.2281 47.6806 61.386 47.7601 62.3646 47.8305C64.1726 47.9609 65.4396 48.7112 66.6295 50.0769V45.2896H67.2391C67.0949 44.244 67.5691 43.1844 68.4817 42.6488V42.0443H68.9921V41.5515H69.29V41.5027H69.0418V40.7999H69.29V40.5662H70.143V41.5515H70.3498V42.0443H70.8337V42.6196C71.7794 43.1435 72.2731 44.2228 72.1276 45.2896H72.5777V46.0826C75.0273 45.2797 77.4541 44.5735 79.9365 43.8834V43.695H80.1847V43.3694H80.3999V42.9235H80.0769V42.3336H80.3999V41.8995H81.6998V42.3336H82.0884V42.9235H81.6998V43.3694H81.9147V43.695H82.2124V43.885H87.9271V43.7598H88.2578V43.4673H88.6395V43.7598H89.0035V43.8846L94.7216 43.8354V43.695H94.9697V43.3694H95.1844V42.9235H94.8618V42.3336H95.1844V41.8995H96.4843V42.3336H96.8729V42.9235H96.4843V43.3694H96.6996V43.695H96.9974V43.9508L104.312 46.0752L104.278 46.1961L96.9974 44.0819V44.6051H97.6671V44.9904H97.3858V45.4162H97.2615V46.9598H98.7504V47.6612H104.316V45.3228H104.931C104.774 44.2668 105.245 43.191 106.169 42.6488V42.0443H106.68V41.5515H106.977V41.5027H106.729V40.7999H106.977V40.5662H107.831V41.5515H108.037V42.0443H108.522V42.6196C109.477 43.1495 109.971 44.2466 109.811 45.3228H110.199V45.5764H110.265V46.0282H110.199V51.9958H109.736V57.5557C111.529 57.0643 113.204 56.0596 114.994 55.4813C117.743 54.5942 120.196 54.8745 122.8 55.4257L122.682 55.5188C120.158 55.004 117.632 54.7617 115.031 55.6014C113.407 56.1252 111.908 56.9791 110.3 57.5165C108.51 58.1139 106.116 58.1858 104.273 57.7228C104.303 57.69 104.326 57.6508 104.337 57.6089C105.913 57.9967 108.048 57.9933 109.61 57.5891V51.8698H110.074V51.0801H93.5758ZM74.4418 56.8663L74.1176 55.4921H73.347V54.535H74.0453V54.2581H76.8389V53.4276H76.3648V51.9164H88.0631V51.0801H66.7545V51.6023H67.3829V59.2984C70.2436 59.7027 72.0852 58.0905 74.4418 56.8663ZM89.114 59.5473L84.6572 59.5227C86.2682 60.0755 87.5068 60.1031 89.114 59.5473ZM71.5581 69.7541C72.9517 69.0566 74.2079 68.1093 75.7379 67.5651C77.5149 66.9338 79.2053 67.1221 80.9626 67.7237C82.2021 68.1483 83.369 68.7629 84.6025 69.1935C87.3238 70.1446 88.9047 69.4336 91.3859 68.2701C92.5129 67.7435 93.6729 67.2011 95.1623 66.9972C96.7176 66.7842 98.5753 66.929 100.094 67.3216C101.045 67.5669 101.817 67.906 102.512 68.2113C102.89 68.3772 103.246 68.5336 103.595 68.6591C105.124 69.2077 107.342 69.3139 108.954 69.0038L108.859 69.1494C106.634 69.5438 104.527 69.2331 102.462 68.3267C101.772 68.0234 101.006 67.6869 100.063 67.4434C98.5595 67.0555 96.7188 66.9112 95.1789 67.1221C93.7481 67.3176 92.5822 67.848 91.2922 68.4528C88.8246 69.6038 87.2549 70.2537 84.5619 69.3123C83.3282 68.8816 82.1618 68.2675 80.9224 67.8428C76.2548 66.2456 74.9489 68.359 71.6342 69.8885L71.5581 69.7541ZM70.7045 68.5188C72.4609 67.833 73.9041 66.5999 75.7379 65.9477C77.5131 65.3162 79.2071 65.5045 80.9626 66.1063C82.2027 66.5303 83.369 67.1453 84.6025 67.5759C87.2612 68.505 88.8033 67.8566 91.24 66.7208C92.5428 66.1101 93.7168 65.5775 95.1623 65.3797C96.7176 65.1668 98.5753 65.312 100.094 65.7036C101.045 65.9489 101.817 66.288 102.512 66.5939C102.89 66.7596 103.246 66.916 103.595 67.0413C104.976 67.5368 106.84 67.6447 108.29 67.4862C109.14 67.3938 109.937 67.1679 110.713 66.882L110.514 67.0861C107.807 68.0352 105.093 67.8654 102.462 66.7087C101.772 66.4056 101.006 66.0695 100.063 65.8258C98.5599 65.4381 96.7184 65.2934 95.1789 65.5045C93.7477 65.7002 92.5822 66.2302 91.2922 66.8352C88.8235 67.9868 87.2557 68.6353 84.5619 67.6947C83.3282 67.264 82.1618 66.6495 80.9224 66.2254C76.1033 64.5743 73.778 67.4128 70.802 68.6397L70.7045 68.5188ZM69.313 67.1489C71.7625 66.7221 73.4432 64.9987 75.7379 64.1824C77.5131 63.551 79.2071 63.7394 80.9626 64.3409C82.2027 64.7656 83.369 65.3802 84.6025 65.8108C87.2612 66.7399 88.8033 66.0919 91.24 64.9555C92.5428 64.3449 93.7168 63.8124 95.1623 63.6146C96.7176 63.4017 98.5753 63.5462 100.094 63.9385C101.045 64.1838 101.817 64.5229 102.512 64.8282C102.89 64.9945 103.246 65.1504 103.595 65.276C104.976 65.7714 106.84 65.8794 108.29 65.721C110.592 65.4691 112.503 64.246 114.636 63.4933L114.381 63.719C112.355 64.4787 110.517 65.6043 108.303 65.8466C106.149 66.0821 104.432 65.81 102.462 64.9435C101.772 64.6408 101.006 64.3044 100.063 64.0606C98.5599 63.6728 96.7184 63.528 95.1789 63.7394C93.7444 63.9355 92.5855 64.4653 91.2922 65.0701C88.8235 66.2214 87.2561 66.8702 84.5619 65.9295C83.3282 65.4985 82.1618 64.8843 80.9224 64.4603C75.7918 62.7024 74.7187 65.4371 70.574 66.9424C70.2034 67.0767 69.82 67.1825 69.4302 67.2555L69.313 67.1489ZM65.0498 63.2715C66.149 63.7952 67.1964 64.224 68.6602 64.1186C71.4767 63.9159 73.2452 61.9586 75.7379 61.072C79.1562 59.8564 81.5719 61.642 84.6025 62.7002C87.3305 63.6534 88.8991 62.9395 91.3859 61.7767C92.5129 61.2503 93.6729 60.7077 95.1623 60.504C96.7172 60.2906 98.5753 60.4362 100.094 60.8279C101.045 61.0736 101.817 61.4126 102.512 61.7175C102.89 61.8839 103.246 62.0402 103.595 62.1659C104.975 62.6614 106.841 62.7693 108.29 62.6108C110.717 62.3451 112.716 60.9968 114.994 60.2617C116.329 59.8306 117.59 59.6739 118.834 59.6907L118.73 59.8158C117.531 59.8094 116.315 59.9666 115.031 60.3812C112.739 61.1207 110.752 62.4683 108.303 62.736C106.145 62.9715 104.436 62.699 102.462 61.8333C101.772 61.5302 101.006 61.1937 100.063 60.95C98.5599 60.5622 96.7184 60.418 95.1789 60.6287C93.7452 60.8253 92.5851 61.3553 91.2922 61.9594C88.8246 63.1104 87.2549 63.7606 84.5619 62.8189C78.3039 60.6353 78.3655 60.5298 75.5904 61.3677C74.5288 61.6877 73.2678 62.635 70.574 63.8317C68.7055 64.5107 67.1462 64.3743 65.3814 63.5734L65.0498 63.2715ZM61.872 60.3864C62.4074 60.5484 62.9245 60.7345 63.4072 60.9332C65.2522 61.6921 66.5032 62.6946 68.6602 62.5394C71.4785 62.3361 73.2444 60.3796 75.7379 59.4927C77.5145 58.8618 79.2059 59.0497 80.9626 59.6513C82.2021 60.0759 83.369 60.6901 84.6025 61.1211C87.3297 62.0744 88.8995 61.3605 91.3859 60.1977C92.5129 59.6713 93.6729 59.1287 95.1623 58.925C96.718 58.712 98.5746 58.857 100.094 59.2489C101.045 59.4946 101.817 59.8332 102.512 60.1389C102.89 60.3048 103.246 60.4612 103.595 60.5869C104.976 61.0824 106.84 61.1903 108.29 61.0318C110.715 60.7669 112.717 59.4182 114.994 58.6822C116.743 58.1173 118.366 58.0243 119.99 58.1743L119.877 58.2904C118.303 58.1553 116.726 58.2554 115.031 58.8022C112.739 59.5417 110.753 60.8884 108.303 61.1569C106.146 61.3924 104.435 61.1204 102.462 60.2543C101.772 59.9512 101.006 59.6147 100.063 59.3714C98.5591 58.9832 96.7194 58.839 95.1789 59.0497C93.7452 59.2463 92.5851 59.7762 91.2922 60.3804C88.8235 61.5324 87.2561 62.181 84.5619 61.2399C83.3282 60.8093 82.1618 60.1951 80.9224 59.7706C75.788 58.0135 74.7213 60.7471 70.574 62.2531C69.3866 62.6838 68.0672 62.8215 66.8323 62.5222C65.6442 62.2337 64.503 61.5202 63.3602 61.0498C62.9588 60.8844 62.5331 60.7273 62.0911 60.5855L61.872 60.3864ZM128.77 30.8898L128.245 30.8902V30.8906H127.487V31.032L128.995 31.0424L128.77 30.8898ZM129.155 31.0432L129.576 31.0462V30.8906H128.929L129.155 31.0432ZM129.182 31.1693L127.174 31.1577V31.3239H129.409L129.182 31.1693ZM128.223 32.9437L128.934 32.9189L128.937 33.0446L128.27 33.068L128.295 33.5106L128.961 33.5098V32.9437H129.132V32.6024H128.077V32.9437H128.223ZM128.077 32.4758H129.343V32.1751H129.758V32.0676H127.502V32.1751H127.873V32.4758H128.077ZM127.502 31.9416H129.94V31.7671H127.16V31.9416H127.502ZM127.16 31.641H129.877L126.948 31.45V31.641H127.16ZM128.16 33.1452V33.0702H127.967V32.6024H127.763V32.3017H127.391V32.0676H127.049V31.7671H126.838V31.3239H127.064V31.0312H127.377V30.7641H128.134V30.5388H128.252L123.444 27.2778V31.3603L123.363 31.3844V27.1154L126.406 29.1787V21.2372C124.289 22.7999 122.63 24.2207 121.147 25.4907C116.873 29.1511 114.059 31.561 105.929 32.5496C105.807 32.564 105.953 33.045 105.961 33.1452H121.201C122.24 31.406 124.55 30.6159 126.355 31.6513C126.97 32.0054 127.56 32.5932 128.014 33.1452H128.16ZM131.123 35.8874C130.926 35.9163 130.719 35.9419 130.505 35.9643V38.0418H131.123V35.8874ZM130.395 35.9751C130.158 35.9975 129.913 36.0157 129.661 36.0291V38.0426H129.522V38.3674H129.674V37.3148H129.893V36.981H130.207V37.3148H130.395V35.9751ZM129.551 36.0347L128.94 36.0529V37.9166H129.027V38.4936H128.611V37.3244H128.349V37.1075H128.182V36.0495L127.651 36.0287V37.9166H128.182V37.4156H128.375V38.4936H128.065V38.0845H127.753V38.4936H127.381V37.4578H127.177V37.1577H127.068V37.4578H126.923V38.4936H126.718V38.0426H126.624V35.9435L126.159 35.8818V37.9166H126.377V38.526H126.566V38.7597H130.708V38.4936H130.286V37.441H130.096V37.1075H130.003V37.441H129.784V38.4936H129.412V37.9166H129.551V36.0347ZM128.829 36.0545L128.292 36.0515V36.981H128.459V37.1983H128.722V38.3674H128.917V38.0426H128.829V36.0545ZM127.541 36.0227C127.262 36.0061 126.992 35.9837 126.734 35.9557V37.9166H126.813V37.3318H126.958V37.0311H127.287V37.3318H127.491V38.3674H127.643V38.0426H127.541V36.0227ZM127.469 43.9452H127.913V43.3698H127.716V41.9505H127.658V43.2364H127.636V43.8708H127.469V43.9452ZM127.967 44.0711H127.359V43.7446H127.527V43.1103H127.548V41.8239H127.826V43.2436H128.022V44.0711H127.967ZM128.525 43.9452H128.939V43.7706H128.691V41.9505H128.656V43.3698H128.525V43.9452ZM128.994 44.0711H128.415V43.2436H128.546V41.8239H128.801V43.6445H129.049V44.0711H128.994ZM129.253 43.9452H129.747V43.6121H129.485V41.9505H129.428V43.7706H129.253V43.9452ZM129.802 44.0711H129.143V43.6445H129.318V41.8239H129.595V43.4859H129.857V44.0711H129.802ZM107.564 38.9872C108.517 38.437 109.039 38.1269 110.154 38.1641C110.959 38.1907 111.335 38.5338 111.825 39.1345C112.206 39.6022 112.248 39.6282 112.615 39.1038C112.831 38.7955 113.089 38.4768 113.459 38.3584C113.765 38.2595 114.312 38.3169 114.53 38.1497C114.662 38.0492 114.726 37.8478 114.798 37.5869H104.708C105.708 37.9304 106.694 38.3756 107.564 38.9872ZM114.823 37.4942C115.041 36.6995 115.411 35.928 116.06 35.4004H99.4294V36.9819C101.216 36.7732 102.714 36.944 104.428 37.4942H114.823ZM116.181 35.307C117.108 34.6608 118.476 34.6496 119.401 35.307H120.351C120.414 35.0561 120.486 34.8104 120.568 34.5645H99.1941V35.307H116.181ZM119.524 35.4004C119.72 35.5575 119.864 35.7176 119.971 35.8364C120.118 36.0005 120.155 36.1077 120.221 35.8624C120.262 35.7108 120.292 35.5535 120.329 35.4004H119.524ZM120.599 34.4717C120.669 34.27 120.753 34.0511 120.851 33.8277H99.0012V34.4717H120.599ZM120.893 33.7348C120.963 33.5824 121.038 33.4329 121.12 33.2869H98.7867V33.7348H120.893ZM94.7216 43.9616L89.0172 44.0103H89.3509V44.2189H89.8635V44.3528H90.6086V44.938H90.3021V45.2637H90.1805V46.9598H94.4233V45.4162H94.2581V44.9904H93.9933V44.6051H94.7216V43.9616ZM87.6789 44.0107L82.2124 44.0111V44.6051H82.8824V44.9904H82.6013V45.4162H82.4049V46.9598H86.6807V45.2637H86.5454V44.938H86.3717V44.3528H87.1495V44.2189H87.6789V44.0107ZM79.9365 44.0141C77.4541 44.7039 75.0269 45.4118 72.5777 46.2151V47.5278H78.1439V46.9598H79.6657V45.4162H79.4732V44.9904H79.2084V44.6051H79.9365V44.0141ZM62.4856 33.0848C63.3079 33.4213 64.1158 34.0027 64.7906 34.5757C65.0053 34.7576 65.312 35.0151 65.4632 35.256C65.4776 35.2798 65.5491 35.2382 65.5957 35.2192C66.8169 34.7334 68.2144 34.2532 69.5398 34.3042L69.5411 32.1562H68.7465V25.7765H67.9858V21.2286H64.1402V25.7765H63.2467V32.1562H62.4856V33.0848ZM73.3056 35.9609C73.9104 36.4446 74.531 36.9764 74.9815 37.6121C75.0534 37.7135 75.0534 37.7135 75.1748 37.6825C76.8765 37.2459 78.623 37.2155 80.3362 37.6069C81.0011 37.7585 81.4461 37.9516 82.0096 38.3306C82.8273 38.8624 83.0099 38.6443 83.6625 38.0098C85.7209 36.0015 87.9219 35.7484 90.6375 36.2844C91.5707 36.4683 92.2366 36.6735 93.0743 37.1491C93.7131 37.511 94.3197 37.7819 94.8709 38.2923C94.9145 38.332 94.98 38.411 95.0402 38.3976C95.1417 38.3748 95.3138 38.2695 95.4126 38.2159C95.7291 38.044 96.2632 37.7533 96.9378 37.5128V32.5302H92.7614V35.212H89.5923V30.6557H80.6182V35.212H77.482V32.5846H73.3056V35.9609ZM90.1772 45.1225V44.8118H90.4832V44.479H89.7387V44.3454H89.2255V44.1365H88.8785V43.886H88.5141V43.5935H88.3832V43.886H88.052V44.1365H87.8043V44.3454H87.2745V44.479H86.4971V44.8118H86.6708V45.1375H86.6807V45.1225H90.1772ZM97.2609 45.0072H94.3831V45.2901L97.2609 45.0072ZM95.247 42.4597H94.9868V42.797H95.3098V43.4955H95.0947V43.8212H94.8465V44.7317H94.1183V44.8642H97.5421V44.7317H96.8721V43.8212H96.5742V43.4955H96.3589V42.797H96.7479V42.4597H96.3589V42.0261H95.3098V42.4597H95.247ZM82.476 45.0072H79.5986V45.2901H82.476V45.0072ZM80.4623 42.4597H80.2023V42.797H80.5249V43.4955H80.3096V43.8212H80.0615V44.7317H79.3338V44.8642H82.7576V44.7317H82.0874V43.8212H81.7897V43.4955H81.5744V42.797H81.9634V42.4597H81.5744V42.0261H80.5249V42.4597H80.4623ZM108.037 42.1704V42.1946H108.244V42.7548H106.407V42.1946H106.68V42.1704H106.294V42.722C105.367 43.2566 104.893 44.2612 105.058 45.3228H109.684C109.852 44.253 109.353 43.2018 108.396 42.6952V42.1704H108.037ZM107.04 40.9261H106.854V41.3761H107.102V41.678H106.805V42.3208H106.532V42.6287H108.119V42.3208H107.912V41.678H107.706V40.6924H107.102V40.9261H107.04ZM70.3498 42.1704V42.1946H70.5564V42.7548H68.7192V42.1946H68.9921V42.1704H68.6067V42.722C67.6911 43.2502 67.2148 44.2384 67.3655 45.2896H72.0014C72.1533 44.2288 71.656 43.1966 70.7087 42.6952V42.1704H70.3498ZM69.3524 40.9261H69.1668V41.3761H69.415V41.678H69.1171V42.3208H68.8442V42.6287H70.4316V42.3208H70.2248V41.678H70.0177V40.6924H69.415V40.9261H69.3524ZM94.1401 31.8747L96.854 31.8681C96.8626 31.8681 96.8905 31.8449 96.899 31.8379C98.0691 30.8942 97.0325 29.797 96.3329 29.0063C95.8901 28.5053 95.3706 27.9179 94.8812 27.1828H94.8058C94.3164 27.9179 93.7968 28.5053 93.3546 29.0063C92.6493 29.8022 91.6174 30.892 92.7923 31.8413C92.8705 31.9052 93.9561 31.8737 94.1401 31.8747ZM80.6109 29.7051H89.7108C90.0146 29.4806 90.1673 28.5529 90.1588 28.3058C90.1776 27.3354 89.7373 26.1928 89.2705 25.5848C88.93 25.1412 88.5034 24.6648 88.0297 24.1362C86.9901 22.9752 86.0432 21.866 85.1818 20.5565H84.9879C84.1323 21.863 83.1769 22.979 82.1401 24.1362C81.6669 24.6648 81.2403 25.1412 80.8997 25.5848C80.415 26.2166 79.9961 27.2994 80.0294 28.2448C80.0201 28.7852 80.1617 29.3652 80.6109 29.7051ZM74.6648 31.8729L77.4121 31.8669C77.4216 31.8669 77.4485 31.8431 77.457 31.8361C78.6281 30.8932 77.5909 29.7954 76.891 29.0049C76.4414 28.4957 75.9124 27.8975 75.4161 27.146V27.181L75.402 27.1638L75.3875 27.181V27.146C74.8912 27.8975 74.3628 28.4957 73.9126 29.0049C73.6593 29.291 73.4313 29.5491 73.2485 29.7906C72.7322 30.4718 72.6088 31.2687 73.3509 31.8397C73.4296 31.9034 74.4834 31.8721 74.6648 31.8729ZM64.2394 20.5043L64.1402 20.4991V20.836H67.9858V20.4991C66.7347 20.4991 65.4913 20.5103 64.2394 20.5043ZM46.9158 27.4993H54.9949V27.7334H46.9039L46.9158 27.4993Z" fill="#2497D1"/>
</g>
<path id="Vector_25" d="M89.2992 11.3569C86.5779 7.54395 83.5884 4.97631 80.1757 3.50226C76.7618 2.02821 72.8956 1.63675 68.4253 2.17675C66.8931 2.36168 65.44 2.72394 64.0708 3.24015C58.0456 5.5111 53.4944 10.7743 50.6345 17.0822C47.7554 23.4316 46.5942 30.8284 47.3622 37.311C47.6189 39.4804 48.0913 41.5415 48.7849 43.4174C51.6386 51.1321 61.7668 60.0703 67.9828 65.5559C75.3703 72.0751 82.6877 79.4343 89.8848 86.2448C91.5703 84.6604 93.0349 83.0556 94.49 81.4606C96.2684 79.5125 98.0354 77.5758 100.232 75.6491C101.578 74.4692 103.247 73.0517 105.051 71.5185C114.463 63.5225 127.734 52.2481 131.056 43.6277C133.191 38.0867 133.27 32.0318 132.172 26.4037C130.806 19.4071 127.631 13.0893 124.326 9.22711C123.379 8.12113 122.399 7.1393 121.397 6.27942C117.08 2.5776 112.311 1.13274 107.607 1.50261C102.878 1.87447 98.1958 4.07764 94.084 7.6633C92.8055 8.77789 91.5802 10.0296 90.4249 11.4023L89.8331 12.105L89.2992 11.3569ZM80.7354 2.17375C84.1681 3.6564 87.1855 6.14907 89.9235 9.78431C90.95 8.62294 92.0286 7.54914 93.1486 6.57231C97.4908 2.78532 102.459 0.457394 107.501 0.0607417C112.568 -0.337909 117.694 1.20971 122.321 5.17723C123.377 6.08209 124.408 7.11611 125.407 8.28307C128.855 12.3128 132.163 18.8789 133.578 26.1264C134.723 31.9934 134.633 38.3242 132.389 44.1477C128.935 53.1097 115.499 64.5251 105.969 72.6207C104.237 74.0925 102.637 75.4522 101.168 76.7401C99.0403 78.6052 97.2973 80.5163 95.5427 82.4384C93.939 84.1961 92.3237 85.9661 90.3578 87.7624L89.8696 88.208L67.5709 67.1091L67.0415 66.6417C60.7227 61.0654 50.4277 51.9794 47.4464 43.92C46.7088 41.9255 46.2091 39.7525 45.94 37.4804C45.1424 30.7499 46.3472 23.0723 49.3355 16.4828C52.3417 9.85168 57.1602 4.30555 63.5727 1.88905C65.0561 1.33026 66.6196 0.93841 68.2575 0.741084C72.9748 0.171296 77.0789 0.594741 80.7354 2.17375Z" fill="white"/>
</g>
</g>
</svg>
