<svg width="20" height="20" viewBox="0 0 20 20" fill="none" xmlns="http://www.w3.org/2000/svg">
<g clip-path="url(#clip0_614_4180)">
<path d="M16.875 2C17.7038 2 18.4987 2.32924 19.0847 2.91529C19.6708 3.50134 20 4.2962 20 5.125V15.125C20 15.9538 19.6708 16.7487 19.0847 17.3347C18.4987 17.9208 17.7038 18.25 16.875 18.25H3.125C2.2962 18.25 1.50134 17.9208 0.915291 17.3347C0.32924 16.7487 0 15.9538 0 15.125V5.125C0 4.2962 0.32924 3.50134 0.915291 2.91529C1.50134 2.32924 2.2962 2 3.125 2H16.875ZM18.75 6.95125L10.3175 11.9137C10.2378 11.9606 10.1487 11.9891 10.0566 11.9973C9.9645 12.0055 9.87175 11.9932 9.785 11.9613L9.6825 11.9137L1.25 6.95375V15.125C1.25 15.6223 1.44754 16.0992 1.79917 16.4508C2.15081 16.8025 2.62772 17 3.125 17H16.875C17.3723 17 17.8492 16.8025 18.2008 16.4508C18.5525 16.0992 18.75 15.6223 18.75 15.125V6.95125ZM16.875 3.25H3.125C2.62772 3.25 2.15081 3.44754 1.79917 3.79917C1.44754 4.15081 1.25 4.62772 1.25 5.125V5.5025L10 10.65L18.75 5.5V5.125C18.75 4.62772 18.5525 4.15081 18.2008 3.79917C17.8492 3.44754 17.3723 3.25 16.875 3.25Z" fill="#07A2F0"/>
</g>
<defs>
<clipPath id="clip0_614_4180">
<rect width="20" height="20" fill="white"/>
</clipPath>
</defs>
</svg>
