<svg width="82" height="80" viewBox="0 0 82 80" fill="none" xmlns="http://www.w3.org/2000/svg">
<path d="M51.2781 60L45.167 53.3333L47.7448 50.7556L51.2781 54.2889L59.2559 46.3111L61.8337 49.4444M41.9448 60H24.6114C22.1448 60 20.167 58.0222 20.167 55.5556V24.4444C20.167 21.9778 22.1448 20 24.6114 20H55.7225C58.1892 20 60.167 21.9778 60.167 24.4444V41.7778C58.8114 41 57.3225 40.4444 55.7225 40.1778V24.4444H24.6114V55.5556H40.3448C40.6114 57.1556 41.167 58.6444 41.9448 60ZM40.167 51.1111H29.0559V46.6667H40.167M46.1225 42.2222H29.0559V37.7778H51.2781V40.1778C49.3892 40.4889 47.6559 41.2 46.1225 42.2222ZM51.2781 33.3333H29.0559V28.8889H51.2781" fill="white"/>
</svg>
