<svg width="22" height="22" viewBox="0 0 22 22" fill="none" xmlns="http://www.w3.org/2000/svg">
<path d="M6 9H9M9 9H12M9 9V6M9 9V12M14 14L20 20M9 16C8.08075 16 7.1705 15.8189 6.32122 15.4672C5.47194 15.1154 4.70026 14.5998 4.05025 13.9497C3.40024 13.2997 2.88463 12.5281 2.53284 11.6788C2.18106 10.8295 2 9.91925 2 9C2 8.08075 2.18106 7.1705 2.53284 6.32122C2.88463 5.47194 3.40024 4.70026 4.05025 4.05025C4.70026 3.40024 5.47194 2.88463 6.32122 2.53284C7.1705 2.18106 8.08075 2 9 2C10.8565 2 12.637 2.7375 13.9497 4.05025C15.2625 5.36301 16 7.14348 16 9C16 10.8565 15.2625 12.637 13.9497 13.9497C12.637 15.2625 10.8565 16 9 16Z" stroke="black" stroke-width="2" stroke-linecap="round" stroke-linejoin="round"/>
</svg>
