<svg width="42" height="42" viewBox="0 0 42 42" fill="none" xmlns="http://www.w3.org/2000/svg">
<g id="Frame 980">
<path id="Icon" d="M17.1262 9.8862C16.8504 9.61609 16.4993 9.46875 16.0856 9.46875C15.2582 9.46875 14.5938 10.1072 14.5938 10.9176C14.5938 11.3227 14.7693 11.6911 15.0576 11.9735L23.8333 20.3717L15.0576 28.7453C14.7693 29.0277 14.5938 29.4083 14.5938 29.8012C14.5938 30.6115 15.2582 31.25 16.0856 31.25C16.4993 31.25 16.8504 31.1027 17.1262 30.8325L26.8797 21.5012C27.2307 21.182 27.3937 20.7891 27.4062 20.3594C27.4062 19.9296 27.2307 19.5613 26.8797 19.2298L17.1262 9.8862Z" fill="#006CAA"/>
</g>
</svg>
