<svg width="75" height="70" viewBox="0 0 75 70" fill="none" xmlns="http://www.w3.org/2000/svg">
<path d="M48.7076 0H25.848C4.9677 0 0 4.66659 0 24.2447V45.7188C0 65.3332 4.92906 70 25.8091 70H48.6687C69.549 70 74.5167 65.3697 74.5167 45.7551V24.2812C74.5167 4.66659 69.5877 0 48.7076 0ZM60.1567 49.9478H54.7232C52.6663 49.9478 52.0453 48.3801 48.3583 44.9166C45.1369 42 43.7786 41.6353 42.9636 41.6353C41.8381 41.6353 41.5275 41.927 41.5275 43.3853V47.9791C41.5275 49.2188 41.1006 49.9478 37.6466 49.9478C34.2948 49.7363 31.0444 48.7798 28.1632 47.1571C25.2819 45.5344 22.8523 43.292 21.0743 40.6145C16.8533 35.6791 13.9164 29.8867 12.4972 23.6978C12.4972 22.9322 12.8076 22.2395 14.3601 22.2395H19.7935C21.1907 22.2395 21.6953 22.8228 22.2386 24.1719C24.8776 31.4635 29.3799 37.8072 31.2039 37.8072C31.9025 37.8072 32.2129 37.5156 32.2129 35.875V28.3645C31.98 24.9375 30.0396 24.6457 30.0396 23.4062C30.0651 23.0792 30.2253 22.7745 30.4862 22.5566C30.7471 22.3388 31.088 22.225 31.4367 22.2395H39.9752C41.1395 22.2395 41.5275 22.7863 41.5275 24.0988V34.2344C41.5275 35.3281 42.0321 35.6926 42.3814 35.6926C43.08 35.6926 43.6233 35.3281 44.904 34.125C47.6562 30.9721 49.905 27.4595 51.5796 23.6978C51.7505 23.2452 52.0744 22.8576 52.502 22.5942C52.9295 22.3309 53.4371 22.2063 53.9471 22.2395H59.3805C61.0106 22.2395 61.3599 23.0051 61.0106 24.0988C59.0335 28.2579 56.5874 32.2059 53.7142 35.875C53.1321 36.7135 52.8992 37.151 53.7142 38.1353C54.2575 38.901 56.1593 40.3957 57.4401 41.8176C59.3029 43.5632 60.8498 45.5829 62.0196 47.7969C62.4853 49.2188 61.7092 49.9478 60.1567 49.9478Z" fill="white"/>
</svg>
