<?xml version="1.0" encoding="utf-8"?><svg width="20" height="20" fill="none" xmlns="http://www.w3.org/2000/svg" viewBox="0 0 20 20"><g clip-path="url(#eclip0_614_4180)"><path d="M16.875 2A3.125 3.125 0 0120 5.125v10a3.125 3.125 0 01-3.125 3.125H3.125A3.125 3.125 0 010 15.125v-10A3.125 3.125 0 013.125 2h13.75zm1.875 4.951l-8.432 4.963a.623.623 0 01-.533.047l-.103-.047-8.432-4.96v8.171A1.875 1.875 0 003.125 17h13.75a1.875 1.875 0 001.875-1.875V6.951zM16.875 3.25H3.125A1.875 1.875 0 001.25 5.125v.378L10 10.65l8.75-5.15v-.375a1.875 1.875 0 00-1.875-1.875z" fill="#07A2F0"/></g><defs><clipPath id="eclip0_614_4180"><path fill="#fff" d="M0 0h20v20H0z"/></clipPath></defs></svg>