<?xml version="1.0" encoding="utf-8"?><svg width="20" height="20" fill="none" xmlns="http://www.w3.org/2000/svg" viewBox="0 0 20 20"><g clip-path="url(#dclip0_177_3837)"><mask id="da" fill="#fff"><path d="M14.36 12c.08-.66.14-1.32.14-2 0-.68-.06-1.34-.14-2h3.38c.16.64.26 1.31.26 2s-.1 1.36-.26 2m-5.15 5.56c.6-1.11 1.06-2.31 1.38-3.56h2.95a8.03 8.03 0 01-4.33 3.56zM12.34 12H7.66c-.1-.66-.16-1.32-.16-2 0-.68.06-1.35.16-2h4.68c.09.65.16 1.32.16 2 0 .68-.07 1.34-.16 2zM10 17.96c-.83-1.2-1.5-2.53-1.91-3.96h3.82c-.41 1.43-1.08 2.76-1.91 3.96zM6 6H3.08A7.923 7.923 0 017.4 2.44C6.8 3.55 6.35 4.75 6 6zm-2.92 8H6c.35 1.25.8 2.45 1.4 3.56A8.008 8.008 0 013.08 14zm-.82-2C2.1 11.36 2 10.69 2 10s.1-1.36.26-2h3.38c-.08.66-.14 1.32-.14 2 0 .68.06 1.34.14 2M10 2.03c.83 1.2 1.5 2.54 1.91 3.97H8.09C8.5 4.57 9.17 3.23 10 2.03zM16.92 6h-2.95a15.65 15.65 0 00-1.38-3.56c1.84.63 3.37 1.9 4.33 3.56zM10 0C4.47 0 0 4.5 0 10A10 10 0 1010 0z"/></mask><path d="M14.36 12c.08-.66.14-1.32.14-2 0-.68-.06-1.34-.14-2h3.38c.16.64.26 1.31.26 2s-.1 1.36-.26 2m-5.15 5.56c.6-1.11 1.06-2.31 1.38-3.56h2.95a8.03 8.03 0 01-4.33 3.56zM12.34 12H7.66c-.1-.66-.16-1.32-.16-2 0-.68.06-1.35.16-2h4.68c.09.65.16 1.32.16 2 0 .68-.07 1.34-.16 2zM10 17.96c-.83-1.2-1.5-2.53-1.91-3.96h3.82c-.41 1.43-1.08 2.76-1.91 3.96zM6 6H3.08A7.923 7.923 0 017.4 2.44C6.8 3.55 6.35 4.75 6 6zm-2.92 8H6c.35 1.25.8 2.45 1.4 3.56A8.008 8.008 0 013.08 14zm-.82-2C2.1 11.36 2 10.69 2 10s.1-1.36.26-2h3.38c-.08.66-.14 1.32-.14 2 0 .68.06 1.34.14 2M10 2.03c.83 1.2 1.5 2.54 1.91 3.97H8.09C8.5 4.57 9.17 3.23 10 2.03zM16.92 6h-2.95a15.65 15.65 0 00-1.38-3.56c1.84.63 3.37 1.9 4.33 3.56zM10 0C4.47 0 0 4.5 0 10A10 10 0 1010 0z" fill="#07A2F0"/><path d="M14.36 8v-.3h-.339l.041.336L14.36 8zm3.38 0l.291-.073-.057-.227h-.234V8zm-5.15 9.56l-.264-.143-.366.677.728-.25-.098-.284zM13.97 14v-.3h-.233l-.058.226.291.074zm2.95 0l.26.15.261-.45h-.521v.3zm-4.58-2v.3h.262l.035-.26-.297-.04zm-4.68 0l-.297.045.039.255h.258V12zm0-4v-.3h-.257l-.04.254L7.66 8zm4.68 0l.297-.041-.036-.259h-.261V8zM10 17.96l-.247.17.247.357.247-.356L10 17.96zM8.09 14v-.3h-.398l.11.383L8.09 14zm3.82 0l.288.083.11-.383h-.398v.3zM6 6v.3h.228l.06-.22L6 6zM3.08 6l-.26-.15-.258.45h.518V6zM7.4 2.44l.264.143.364-.674-.725.247.097.284zM3.08 14v-.3h-.52l.26.45.26-.15zM6 14l.289-.08-.061-.22H6v.3zm1.4 3.56l-.098.284.728.25-.366-.677-.264.143zM2.26 8v-.3h-.234l-.057.227L2.26 8zm3.38 0l.298.036.04-.336H5.64V8zM10 2.03l.247-.17L10 1.502l-.247.356.247.171zM11.91 6v.3h.398l-.11-.383L11.91 6zM8.09 6l-.288-.083-.11.383h.398V6zm8.83 0v.3h.52l-.26-.45-.26.15zm-2.95 0l-.29.074.056.226h.234V6zm-1.38-3.56l.097-.284-.722-.247.36.673.265-.142zM10 0v-.3.3zm0 20v.3-.3zm4.658-7.964A16.8 16.8 0 0014.8 10h-.6c0 .663-.058 1.31-.138 1.964l.596.072zM14.8 10a16.8 16.8 0 00-.142-2.036l-.596.072c.08.655.138 1.301.138 1.964h.6zm-.44-1.7h3.38v-.6h-3.38v.6zm3.089-.227c.155.62.251 1.266.251 1.927h.6a8.54 8.54 0 00-.269-2.073l-.582.146zM17.7 10c0 .661-.096 1.306-.251 1.927l.582.146A8.54 8.54 0 0018.3 10h-.6zm-4.846 7.703a15.945 15.945 0 001.407-3.629l-.582-.148a15.353 15.353 0 01-1.353 3.491l.528.286zM13.97 14.3h2.95v-.6h-2.95v.6zm2.69-.45a7.73 7.73 0 01-4.168 3.426l.196.568a8.33 8.33 0 004.491-3.693l-.518-.302zm-4.32-2.15H7.66v.6h4.68v-.6zm-4.383.255A12.97 12.97 0 017.8 10h-.6c0 .698.062 1.373.163 2.045l.594-.09zM7.8 10c0-.662.058-1.317.157-1.954l-.594-.092A13.464 13.464 0 007.2 10h.6zm-.14-1.7h4.68v-.6H7.66v.6zm4.383-.259c.089.644.157 1.299.157 1.959h.6c0-.7-.072-1.385-.163-2.041l-.594.082zM12.2 10c0 .66-.068 1.305-.157 1.96l.594.08c.09-.665.163-1.34.163-2.04h-.6zm-1.953 7.79c-.814-1.178-1.469-2.478-1.869-3.873l-.576.166c.42 1.465 1.105 2.825 1.951 4.048l.494-.342zM8.09 14.3h3.82v-.6H8.09v.6zm3.532-.383c-.4 1.395-1.054 2.695-1.869 3.872l.494.342c.845-1.223 1.531-2.583 1.951-4.048l-.576-.166zM6 5.7H3.08v.6H6v-.6zm-2.66.45a7.623 7.623 0 014.157-3.426l-.194-.568A8.223 8.223 0 002.82 5.851l.52.298zm3.796-3.853c-.613 1.134-1.07 2.356-1.425 3.622l.578.162c.345-1.234.788-2.412 1.375-3.498l-.528-.286zM3.08 14.3H6v-.6H3.08v.6zm2.631-.22c.355 1.267.812 2.489 1.425 3.623l.528-.286c-.587-1.086-1.03-2.264-1.375-3.498l-.578.162zm1.787 3.196A7.708 7.708 0 013.34 13.85l-.52.3a8.308 8.308 0 004.482 3.694l.196-.568zM2.55 11.927A7.942 7.942 0 012.3 10h-.6c0 .719.104 1.414.269 2.073l.582-.146zM2.3 10c0-.661.096-1.306.251-1.927l-.582-.146A8.541 8.541 0 001.7 10h.6zm-.04-1.7h3.38v-.6H2.26v.6zm3.082-.336A16.81 16.81 0 005.2 10h.6c0-.663.058-1.31.138-1.964l-.596-.072zM5.2 10c0 .697.062 1.37.142 2.036l.596-.072A16.22 16.22 0 015.8 10h-.6zm4.553-7.8c.814 1.177 1.469 2.488 1.869 3.883l.576-.166c-.42-1.465-1.105-2.834-1.951-4.058l-.494.342zm2.157 3.5H8.09v.6h3.82v-.6zm-3.532.383c.4-1.395 1.055-2.706 1.869-3.882l-.494-.342c-.846 1.224-1.531 2.593-1.951 4.058l.576.166zM16.92 5.7h-2.95v.6h2.95v-.6zm-2.66.226a15.953 15.953 0 00-1.406-3.628l-.528.284a15.347 15.347 0 011.353 3.492l.582-.147zm-1.767-3.202A7.687 7.687 0 0116.66 6.15l.52-.3a8.287 8.287 0 00-4.493-3.694l-.194.568zM10-.3C4.304-.3-.3 4.335-.3 10h.6C.3 4.665 4.636.3 10 .3v-.6zM-.3 10a10.3 10.3 0 003.017 7.283l.424-.424A9.7 9.7 0 01.3 10h-.6zm3.017 7.283a10.302 10.302 0 003.341 2.233l.23-.554a9.698 9.698 0 01-3.147-2.103l-.424.424zm3.341 2.233A10.3 10.3 0 0010 20.3v-.6a9.7 9.7 0 01-3.712-.738l-.23.554zM10 20.3a10.3 10.3 0 007.283-3.017l-.424-.424A9.7 9.7 0 0110 19.7v.6zm7.283-3.017A10.3 10.3 0 0020.3 10h-.6a9.7 9.7 0 01-2.841 6.859l.424.424zM20.3 10a10.3 10.3 0 00-.784-3.942l-.554.23A9.7 9.7 0 0119.7 10h.6zm-.784-3.942a10.302 10.302 0 00-2.233-3.341l-.424.424c.9.9 1.615 1.97 2.103 3.147l.554-.23zm-2.233-3.341A10.3 10.3 0 0013.942.484l-.23.554a9.7 9.7 0 013.147 2.103l.424-.424zM13.942.484A10.3 10.3 0 0010-.3v.6a9.7 9.7 0 013.712.738l.23-.554z" fill="#fff" mask="url(#da)"/></g><defs><clipPath id="dclip0_177_3837"><path fill="#fff" d="M0 0h20v20H0z"/></clipPath></defs></svg>