<?xml version="1.0" encoding="utf-8"?><svg width="82" height="80" fill="none" xmlns="http://www.w3.org/2000/svg" viewBox="0 0 82 80"><path d="M51.278 60l-6.111-6.667 2.578-2.577 3.533 3.533 7.978-7.978 2.578 3.133M41.944 60H24.612a4.43 4.43 0 01-4.444-4.444V24.444A4.43 4.43 0 0124.611 20h31.111a4.43 4.43 0 014.445 4.444v17.334a13.298 13.298 0 00-4.445-1.6V24.444h-31.11v31.112h15.733c.266 1.6.822 3.088 1.6 4.444zm-1.777-8.889H29.056v-4.444h11.111m5.956-4.445H29.056v-4.444h22.222v2.4a13.092 13.092 0 00-5.155 2.044zm5.155-8.889H29.056V28.89h22.222" fill="#fff"/></svg>