<?xml version="1.0" encoding="utf-8"?><svg width="80" height="80" fill="none" xmlns="http://www.w3.org/2000/svg" viewBox="0 0 80 80"><path d="M51.667 23.333H28.334c-.92 0-1.667.747-1.667 1.667v30c0 .92.746 1.667 1.667 1.667h23.333c.92 0 1.667-.747 1.667-1.667V25c0-.92-.747-1.667-1.667-1.667z" stroke="#fff" stroke-width="3" stroke-linejoin="round"/><path d="M37.5 31.667h10M37.5 40h10m-10 8.333h10" stroke="#fff" stroke-width="3" stroke-linecap="round" stroke-linejoin="round"/><path fill-rule="evenodd" clip-rule="evenodd" d="M32.5 33.333a1.667 1.667 0 100-3.334 1.667 1.667 0 000 3.334zm0 8.334a1.667 1.667 0 100-3.334 1.667 1.667 0 000 3.334zm0 8.333a1.667 1.667 0 100-3.333 1.667 1.667 0 000 3.333z" fill="#fff"/></svg>