<?xml version="1.0" encoding="utf-8"?><svg width="130" height="85" fill="none" xmlns="http://www.w3.org/2000/svg" viewBox="0 0 130 85"><path fill-rule="evenodd" clip-rule="evenodd" d="M66.052 44.198l-.046-.392c-.204-1.735-.112-1.029-.368-2.713-.297-1.95-.628-3.87-1.22-5.627-.68-2.016-1.466-2.997-2.67-4.056-6.437-5.66-14.34-5.663-17.798-9.452a23.63 23.63 0 00-3.65-3.222c-3.584-2.569-7.258-1.652-6.057.73.329.654 4.111 4.704 4.795 5.359 1.469 1.405 6.071 3.371 6.969 6.654-.728-.7-1.064-2.191-3.552-3.91-.772-.532-1.386-1.067-2.16-1.56-1.1-.703-1.18-.893-1.985-1.745-2.14-2.264-7.816-6.714-2.093-7.509-.523-1.466-2.612-4.682-3.446-5.672-1.104-1.311-3.077-3.932-5.743-2.905-.047 1.36 1.036 3.06 1.615 4.002.72 1.173 1.3 2.385 1.913 3.665.612 1.275 1.048 2.742 1.632 3.942.567 1.166 3.224 4.76 4.34 6.81.729 1.336 1.027 2.454 1.924 3.651 1.262 1.686 7.325 5.793 9.411 7.351 4.923 3.421 6.529 6.55 6.31 6.55l9.555.044h2.004l.32.005zM43.41 11.352c.048.898.192 3.7.44 4.292a26.256 26.256 0 011.197 3.519c.147.548.688 3.701.82 3.885.184.257 2.798 1.444 3.313 1.593-.174-1.867-1.628-2.95-2.31-7.264-.231-1.464-.356-5.871-2.303-6.158-.221-.034-1.08.067-1.157.133zm2.023 11.302c-.468-4.149-1.782-6.445-2.866-10.15-.815-2.786-.74-5.39-2.584-7.13-.319-.3-1.82-1.214-2.443-.578-.297.304.46 1.724.648 2.208.684 1.762 1.237 5.492 1.982 7.867.27.861.644 1.333.972 2.173.324.83.528 1.677.857 2.428.229.523 1.248 1.312 1.594 1.7.518.58.908 1.167 1.84 1.482zM32.729 3.174c.53 1.84.867 1.785 1.522 4.878.36 1.7.687 3.562.933 5.355.172 1.26.355 1.385.852 2.282.767 1.388.24.923 1.82 1.339a7.579 7.579 0 013.81 2.39c-.19-1.23-1.333-3.238-1.758-4.57-.955-2.995-1.825-10.406-4.453-11.83-1.067-.577-1.878-.104-2.726.156z" fill="#FEFEFE"/><path fill-rule="evenodd" clip-rule="evenodd" d="M63.983 44.193a88.62 88.62 0 01.463-3.53c.296-1.948.627-3.869 1.22-5.625.68-2.017 1.465-2.997 2.67-4.057 6.436-5.66 14.34-5.662 17.797-9.452a23.635 23.635 0 013.651-3.221c3.583-2.57 7.257-1.652 6.057.73-.33.653-4.112 4.703-4.795 5.358-1.47 1.406-6.072 3.371-6.97 6.654.728-.699 1.064-2.19 3.553-3.91.771-.532 1.386-1.067 2.16-1.56 1.1-.702 1.18-.893 1.985-1.745 2.139-2.264 7.683-6.625 2.092-7.509.523-1.466 2.612-4.681 3.446-5.672 1.105-1.311 3.078-3.931 5.744-2.905.046 1.36-1.037 3.06-1.615 4.002-.721 1.174-1.3 2.385-1.914 3.665-.612 1.275-1.048 2.742-1.631 3.942-.567 1.166-3.225 4.761-4.34 6.81-.73 1.337-1.027 2.454-1.924 3.652-1.263 1.685-7.325 5.792-9.412 7.35-3.952 2.953-5.844 3.838-6.406 7.023h-11.83zm22.69-33.27c-.049.898-.193 3.701-.44 4.293a26.289 26.289 0 00-1.197 3.518c-.148.548-.688 3.701-.82 3.885-.184.258-2.799 1.444-3.313 1.594.173-1.867 1.628-2.95 2.31-7.265.23-1.463.356-5.87 2.302-6.158.222-.033 1.08.067 1.158.134zM84.65 22.227c.467-4.15 1.781-6.446 2.865-10.15.816-2.787.74-5.39 2.584-7.13.32-.301 1.821-1.215 2.443-.579.298.305-.459 1.724-.647 2.209-.685 1.762-1.237 5.491-1.983 7.867-.27.86-.643 1.332-.972 2.172-.323.83-.528 1.677-.856 2.429-.23.523-1.249 1.311-1.594 1.698-.519.58-.909 1.168-1.84 1.484zm12.705-19.48c-.53 1.84-.867 1.784-1.523 4.877a76.39 76.39 0 00-.932 5.355c-.173 1.26-.356 1.385-.852 2.283-.767 1.387-.24.922-1.82 1.338a7.58 7.58 0 00-3.81 2.39c.19-1.23 1.332-3.238 1.757-4.57C91.13 11.424 92 4.013 94.629 2.59c1.067-.577 1.877-.104 2.726.157z" fill="#FEFEFE"/><path d="M8.969 58.748l.269 7.29c.02.371.138.684.359.939.222.255.15.382-.217.382H6.351c-.376 0-.443-.126-.199-.382.244-.255.384-.568.423-.938l.806-4.726c.033-.186-.027-.293-.183-.32-.16-.033-.256.035-.287.207l-.987 4.839c-.066.37-.42.554-1.063.554-.644 0-.997-.184-1.057-.554l-.99-4.84c-.034-.17-.13-.24-.286-.206-.16.027-.22.134-.181.32l.805 4.726c.037.37.178.683.422.938.243.255.177.382-.2.382H.347c-.37 0-.443-.126-.22-.382.223-.255.344-.568.362-.938l.27-7.291c.015-.454-.083-.813-.295-1.08-.211-.268-.094-.4.35-.4h2.95c.534 0 .688.132.462.4-.224.267-.285.626-.181 1.08l.577 3.84c.025.178.105.268.24.268.133 0 .214-.09.246-.268l.571-3.84c.105-.454.047-.813-.177-1.08-.225-.268-.073-.4.456-.4h2.95c.444 0 .56.132.35.4-.21.267-.308.626-.288 1.08zm8.459 8.268c.2.228.101.343-.3.343h-2.423c-.503 0-.667-.1-.494-.3.174-.199.34-.585.5-1.157l.538-2.303c.041-.185-.014-.299-.166-.338-.156-.04-.255.022-.298.19l-.669 2.451c-.11.427-.289.777-.537 1.05-.247.27-.538.407-.873.407h-1.034c-.394 0-.492-.126-.295-.382.195-.255.295-.614.295-1.075v-7.178c0-.516-.101-.889-.3-1.117-.201-.226-.1-.34.3-.34h2.422c.504 0 .668.1.494.297-.174.199-.34.585-.5 1.16l-.536 2.304c-.043.187.012.298.164.337.16.038.26-.027.299-.195l.668-2.446c.11-.427.29-.776.539-1.047.25-.273.54-.41.872-.41h1.034c.393 0 .49.13.294.383-.195.255-.294.614-.294 1.075v7.177c0 .515.1.886.3 1.114zm4.404-1.102c0 .468-.119.827-.359 1.075-.238.247-.523.37-.852.37h-1.149c-.4 0-.505-.123-.316-.37.191-.248.297-.607.316-1.075l.255-7.166c.016-.46-.08-.823-.284-1.086-.205-.262-.111-.395.284-.395h4.933c.412 0 .51.133.295.395-.217.263-.314.626-.295 1.086l.264 7.166c.013.468.117.827.308 1.075.189.247.088.37-.308.37h-2.482c-.388 0-.485-.123-.29-.37.193-.248.29-.607.29-1.075v-5.96c0-.18-.1-.27-.302-.27-.207 0-.308.09-.308.27v5.96zm10.285-5.64v4.074c0 .819-.236 1.546-.706 2.182-.47.636-1.143.954-2.02.954s-1.551-.318-2.023-.954a3.566 3.566 0 01-.708-2.182v-4.075c0-.823.235-1.55.707-2.184.473-.636 1.147-.952 2.023-.952.874 0 1.545.316 2.019.952.472.634.708 1.361.708 2.184zm-2.423 4.388v-4.703c0-.18-.101-.269-.304-.269-.205 0-.308.09-.308.27v4.702c0 .18.103.269.308.269.203 0 .304-.09.304-.27zm5.982-.012c0 .18.116.27.346.27h.606c.174 0 .363-.09.57-.272.205-.181.308-.091.308.271v2.44c0 .42-.103.525-.308.314-.207-.208-.484-.314-.83-.314-2.073 0-3.108-1.17-3.108-3.509v-3.074c0-2.338 1.035-3.509 3.109-3.509.345 0 .622-.105.829-.316.205-.212.308-.107.308.316v2.407c0 .361-.103.45-.308.272-.207-.182-.396-.272-.57-.272h-.606c-.23 0-.346.09-.346.273v4.703zm6.345-7.383c.453 0 .81-.105 1.067-.316.26-.212.39-.107.39.316v2.417c0 .5-.13.624-.39.375-.257-.25-.614-.375-1.067-.375-.214 0-.333.072-.36.213v1.016c.02.127.084.19.195.19.109 0 .279-.096.505-.29.226-.193.34-.095.34.29v2.422c0 .384-.114.481-.34.288-.226-.193-.396-.288-.505-.288-.111 0-.176.062-.195.189v1.016c.027.142.146.213.36.213.453 0 .81-.125 1.067-.375.26-.25.39-.125.39.375v2.416c0 .424-.13.529-.39.318-.257-.212-.614-.318-1.067-.318h-2.777c-.396 0-.495-.126-.298-.38.199-.254.298-.62.298-1.1v-7.131c0-.48-.1-.846-.298-1.1-.197-.254-.098-.38.298-.38h2.777zm2.9 9.71c.196-.255.295-.622.295-1.098v-7.131c0-.468-.1-.833-.298-1.092-.197-.258-.098-.389.298-.389h2.725c.876 0 1.55.309 2.023.927.472.616.71 1.336.71 2.16v1.405a3.67 3.67 0 01-.71 2.203c-.472.653-1.147.98-2.023.98-.205 0-.308.09-.308.268v.669c0 .476.1.843.3 1.098.2.255.1.382-.3.382h-2.417c-.394 0-.491-.126-.294-.382zm3.328-4.859V59.96c0-.183-.101-.275-.308-.275-.205 0-.308.092-.308.275v2.16c0 .179.103.269.308.269.207 0 .308-.09.308-.27zm4.235 2.996l.234-6.366c.015-.456-.082-.82-.293-1.083-.208-.265-.093-.398.344-.398h4.823c.439 0 .554.133.345.398-.206.264-.306.627-.294 1.083l.234 6.366c.447.236.669.58.669 1.034v1.783c0 .392-.129.396-.386.008a1.217 1.217 0 00-1.071-.58h-3.811c-.457 0-.816.193-1.075.58-.26.388-.388.384-.388-.008v-1.783c0-.454.222-.798.669-1.034zm3.005-.452v-4.709c0-.18-.103-.269-.308-.269-.203 0-.304.09-.304.27v4.708c0 .183.101.275.304.275.205 0 .309-.092.309-.275zm10.557 2.354c.2.228.1.343-.3.343h-2.423c-.504 0-.667-.1-.494-.3.174-.199.34-.585.5-1.157l.538-2.303c.04-.185-.014-.299-.166-.338-.156-.04-.255.022-.298.19l-.67 2.451c-.109.427-.288.777-.536 1.05-.248.27-.538.407-.874.407H60.29c-.394 0-.492-.126-.295-.382.195-.255.295-.614.295-1.075v-7.178c0-.516-.102-.889-.3-1.117-.202-.226-.1-.34.3-.34h2.422c.503 0 .667.1.494.297-.174.199-.34.585-.5 1.16l-.536 2.304c-.043.187.012.298.164.337.16.038.26-.027.298-.195l.67-2.446c.108-.427.288-.776.538-1.047.25-.273.54-.41.871-.41h1.034c.394 0 .492.13.295.383-.195.255-.295.614-.295 1.075v7.177c0 .515.102.886.3 1.114zm4.815-9.749c.453 0 .81-.105 1.067-.316.26-.212.39-.107.39.316v2.417c0 .5-.13.624-.39.375-.257-.25-.614-.375-1.067-.375-.214 0-.333.072-.36.213v1.016c.019.127.083.19.194.19.11 0 .28-.096.506-.29.226-.193.339-.095.339.29v2.422c0 .384-.113.481-.34.288-.226-.193-.395-.288-.505-.288-.11 0-.175.062-.195.189v1.016c.028.142.147.213.361.213.453 0 .81-.125 1.067-.375.26-.25.39-.125.39.375v2.416c0 .424-.13.529-.39.318-.257-.212-.614-.318-1.067-.318h-2.777c-.396 0-.496-.126-.299-.38.2-.254.299-.62.299-1.1v-7.131c0-.48-.1-.846-.299-1.1-.197-.254-.097-.38.299-.38h2.777zm2.6 6.367v-1.229c0-.1.242-.174.726-.226a15.44 15.44 0 011.6-.076c.582 0 1.117.023 1.602.07.486.049.73.125.73.232v1.229c0 .1-.244.173-.73.222-.485.049-1.02.074-1.603.074-.581 0-1.115-.025-1.6-.08-.483-.052-.725-.125-.725-.216zm8.813-2.801c0 .18.103.27.308.27.203 0 .302-.09.302-.27v-2.085c0-.476-.102-.843-.304-1.098-.205-.254-.104-.383.304-.383h2.424c.412 0 .513.13.308.383-.206.255-.308.622-.308 1.098v7.13c0 .485.098.853.297 1.105.199.251.1.376-.297.376h-2.424c-.408 0-.51-.125-.304-.376.203-.252.304-.62.304-1.104v-2.085c0-.18-.1-.27-.302-.27-.205 0-.308.09-.308.27v2.085c0 .484-.12.852-.356 1.104a1.123 1.123 0 01-.85.376h-1.211c-.396 0-.496-.125-.299-.376.2-.252.299-.62.299-1.104v-7.131c0-.476-.1-.843-.299-1.098-.197-.254-.097-.383.299-.383h1.211c.332 0 .615.13.85.383.236.255.355.622.355 1.098v2.085zm8.131 6.156c.195-.248.29-.607.29-1.075v-.708c0-.18-.099-.27-.302-.27-.204 0-.308.09-.308.27v.708c0 .468-.119.827-.357 1.075-.238.247-.522.37-.854.37h-1.206c-.4 0-.505-.123-.316-.37.192-.248.297-.607.316-1.075l.256-7.166c.016-.46-.08-.823-.285-1.086-.205-.262-.11-.395.285-.395h4.933c.411 0 .509.133.294.395-.216.263-.314.626-.294 1.086l.263 7.166c.014.468.117.827.308 1.075.19.247.088.37-.308.37h-2.424c-.388 0-.486-.123-.291-.37zm.29-4.738v-2.298c0-.18-.099-.269-.302-.269-.204 0-.308.09-.308.27v2.297c0 .18.104.27.308.27.203 0 .303-.09.303-.27zm4.161 1.383v-1.229c0-.1.242-.174.726-.226a15.44 15.44 0 011.599-.076c.583 0 1.118.023 1.603.07.486.049.73.125.73.232v1.229c0 .1-.244.173-.73.222-.485.049-1.02.074-1.603.074-.581 0-1.116-.025-1.6-.08-.483-.052-.725-.125-.725-.216zm6.47 1.48l.234-6.366c.015-.456-.082-.82-.293-1.083-.208-.265-.093-.398.344-.398h4.823c.439 0 .554.133.345.398-.207.264-.306.627-.294 1.083l.234 6.366c.446.236.669.58.669 1.034v1.783c0 .392-.129.396-.386.008a1.218 1.218 0 00-1.071-.58h-3.811c-.457 0-.816.193-1.075.58-.26.388-.388.384-.388-.008v-1.783c0-.454.222-.798.669-1.034zm3.005-.452v-4.709c0-.18-.103-.269-.308-.269-.203 0-.304.09-.304.27v4.708c0 .183.101.275.304.275.205 0 .308-.092.308-.275zm9.657-4.389v4.075c0 .819-.236 1.546-.706 2.182-.47.636-1.143.954-2.021.954-.875 0-1.55-.318-2.022-.954a3.566 3.566 0 01-.708-2.182v-4.075c0-.823.236-1.55.708-2.184.472-.636 1.147-.952 2.022-.952.874 0 1.545.316 2.019.952.472.634.708 1.361.708 2.184zm-2.422 4.389v-4.703c0-.18-.102-.269-.305-.269-.204 0-.308.09-.308.27v4.702c0 .18.104.269.308.269.203 0 .305-.09.305-.27zm6.577-3.829c0 .18.103.27.308.27.203 0 .302-.09.302-.27v-2.085c0-.476-.101-.843-.304-1.098-.205-.254-.103-.383.304-.383h2.425c.411 0 .513.13.308.383-.207.255-.308.622-.308 1.098v7.13c0 .485.097.853.296 1.105.199.251.1.376-.296.376h-2.425c-.407 0-.509-.125-.304-.376.203-.252.304-.62.304-1.104v-2.085c0-.18-.099-.27-.302-.27-.205 0-.308.09-.308.27v2.085c0 .484-.119.852-.355 1.104a1.124 1.124 0 01-.851.376h-1.211c-.396 0-.495-.125-.298-.376.199-.252.298-.62.298-1.104v-7.131c0-.476-.099-.843-.298-1.098-.197-.254-.098-.383.298-.383h1.211c.332 0 .615.13.851.383.236.255.355.622.355 1.098v2.085zm9.719 5.081c-.09.42-.273.765-.548 1.038-.273.27-.577.407-.909.407h-.993c-.324 0-.409-.136-.255-.407.154-.273.187-.619.099-1.038l-1.599-7.521c-.108-.365-.254-.646-.439-.839-.187-.195-.119-.292.205-.292h2.645c.327 0 .415.097.263.292-.152.193-.221.472-.205.833l.193 3.864c0 .18.08.27.24.27.16 0 .24-.09.24-.27l.195-3.864c.016-.36-.053-.64-.205-.833-.152-.195-.066-.292.262-.292h2.646c.32 0 .387.097.199.292-.185.193-.331.474-.433.839l-1.601 7.521z" fill="#2497D1"/><path d="M7.396 72.25l1.629 3.49h-.376l-.545-1.146H6.592L6.05 75.74h-.39l1.649-3.49h.087zm-.044.733l-.6 1.27H7.95l-.598-1.27zm2.22-.732h.688c.277 0 .49.032.638.098a.822.822 0 01.482.755.816.816 0 01-.113.424.842.842 0 01-.332.309c.181.061.32.134.418.217a.902.902 0 01.31.684.94.94 0 01-.308.712c-.205.194-.48.29-.824.29h-.959v-3.49zm.34.34v1.118h.2c.244 0 .423-.023.537-.067a.58.58 0 00.372-.538.46.46 0 00-.168-.377c-.113-.09-.29-.136-.535-.136h-.406zm0 1.468V75.4h.434c.255 0 .442-.025.561-.074a.642.642 0 00.396-.58.6.6 0 00-.153-.407.784.784 0 00-.418-.237c-.119-.029-.326-.043-.622-.043h-.198zm2.096-1.468v-.34h1.91v.34h-.777v3.15h-.355v-3.15h-.778zm4.08-.428c.527 0 .97.177 1.325.53.356.352.534.786.534 1.301 0 .511-.177.945-.532 1.3a1.768 1.768 0 01-1.3.534c-.516 0-.953-.177-1.309-.531a1.748 1.748 0 01-.533-1.286c0-.335.08-.646.243-.932.162-.286.383-.51.663-.673a1.78 1.78 0 01.908-.243zm.015.34a1.44 1.44 0 00-.734.202c-.231.135-.412.315-.542.543-.13.228-.195.482-.195.762 0 .414.144.764.431 1.05.288.285.635.428 1.04.428.271 0 .521-.066.752-.197.23-.131.41-.311.539-.539.129-.227.194-.48.194-.759a1.447 1.447 0 00-.739-1.288 1.476 1.476 0 00-.746-.202zm2.54-.252h.35v1.463h1.78V72.25h.35v3.49h-.35v-1.687h-1.78v1.687h-.35v-3.49zm4.99-.088c.528 0 .97.177 1.326.53.356.352.534.786.534 1.301 0 .511-.178.945-.532 1.3a1.768 1.768 0 01-1.3.534c-.517 0-.953-.177-1.31-.531a1.748 1.748 0 01-.533-1.286c0-.335.081-.646.243-.932.162-.286.383-.51.664-.673a1.78 1.78 0 01.908-.243zm.015.34c-.257 0-.502.068-.734.202-.23.135-.411.315-.542.543-.13.228-.194.482-.194.762 0 .414.143.764.43 1.05.288.285.635.428 1.04.428.272 0 .522-.066.752-.197.23-.131.41-.311.54-.539.128-.227.193-.48.193-.759a1.447 1.447 0 00-.739-1.288 1.476 1.476 0 00-.746-.202zm2.395 3.238l.484-3.49h.072l1.42 2.863 1.411-2.863h.053l.502 3.49h-.338l-.35-2.499-1.236 2.499h-.092l-1.248-2.518-.335 2.518h-.343zm4.613-3.49h.35v1.463h1.779V72.25h.35v3.49h-.35v-1.687h-1.78v1.687h-.35v-3.49zm4.754 0l1.629 3.49h-.375l-.546-1.147h-1.512l-.542 1.147h-.389l1.648-3.49h.087zm-.043.732l-.6 1.27h1.198l-.598-1.27zm4.193-.732h-.697c-.388 0-.651.016-.789.047a.893.893 0 00-.506.305.865.865 0 00-.195.575c0 .19.044.357.134.5.09.144.217.253.384.327.166.073.396.11.69.112l-1.257 1.624h.428l1.257-1.624h.201v1.624h.35v-3.49zm-.35.34v1.186l-.603.005c-.234 0-.406-.022-.518-.067a.544.544 0 01-.263-.212.591.591 0 01.002-.645.529.529 0 01.25-.206c.103-.04.275-.061.515-.061h.617zm2.546-.34h.35v1.463h1.78V72.25h.35v3.49h-.35v-1.687h-1.78v1.687h-.35v-3.49zm3.33 0h1.998v.34h-1.648v1.094h1.634v.34h-1.633V75.4h1.633v.34h-1.983v-3.49zm2.602 0h.355v1.309l1.399-1.31h.47l-1.682 1.566 1.813 1.925h-.466l-1.534-1.63v1.63h-.355v-3.49zm4.536-.088c.528 0 .97.177 1.326.53.356.352.534.786.534 1.301 0 .511-.178.945-.532 1.3a1.768 1.768 0 01-1.3.534c-.517 0-.953-.177-1.309-.531a1.747 1.747 0 01-.534-1.286c0-.335.081-.646.243-.932.162-.286.383-.51.664-.673a1.78 1.78 0 01.908-.243zm.015.34c-.257 0-.502.068-.734.202-.23.135-.411.315-.542.543-.13.228-.194.482-.194.762 0 .414.143.764.43 1.05.288.285.635.428 1.04.428.272 0 .522-.066.752-.197.23-.131.41-.311.54-.539.128-.227.193-.48.193-.759 0-.277-.065-.527-.193-.75a1.447 1.447 0 00-.546-.538 1.476 1.476 0 00-.746-.202zm2.395 3.238l.484-3.49h.072l1.42 2.863 1.411-2.863h.053l.502 3.49h-.338l-.35-2.499-1.236 2.499h-.092l-1.248-2.518-.335 2.518h-.343zm4.467 0l.484-3.49h.072l1.42 2.863 1.411-2.863h.053l.502 3.49h-.338l-.35-2.499-1.236 2.499h-.091l-1.249-2.518-.335 2.518h-.343zm4.623-3.49h1.997v.34h-1.647v1.094h1.633v.34h-1.633V75.4h1.633v.34h-1.983v-3.49zm2.601 0h.696c.398 0 .668.017.808.052a.867.867 0 01.679.878.878.878 0 01-.186.575.914.914 0 01-.51.305c-.158.038-.454.056-.888.056h-.25v1.624h-.349v-3.49zm.35.34v1.186l.591.007c.24 0 .414-.022.525-.065a.538.538 0 00.262-.211.587.587 0 00.095-.326.58.58 0 00-.095-.322.527.527 0 00-.251-.207c-.104-.042-.273-.062-.51-.062h-.617zm3.95 1.166v-1.506h.35v3.49h-.35v-1.643h-.25a4.81 4.81 0 01-.76-.043.983.983 0 01-.43-.187.728.728 0 01-.259-.351 1.875 1.875 0 01-.07-.573v-.693h.34v.714c0 .293.06.498.178.616.117.117.313.176.587.176l.246-.002.107.002h.312zm1.201-1.506h1.998v.34h-1.648v1.094h1.634v.34h-1.634V75.4h1.634v.34h-1.984v-3.49zm5.854.644l-.276.211a1.5 1.5 0 00-.547-.45 1.595 1.595 0 00-.7-.153 1.55 1.55 0 00-.773.201c-.238.134-.42.314-.551.54-.13.224-.196.479-.196.76 0 .426.146.782.437 1.066.292.285.66.428 1.105.428.488 0 .896-.192 1.225-.574l.276.21a1.762 1.762 0 01-.652.513c-.26.12-.55.181-.871.181-.611 0-1.093-.203-1.446-.61a1.839 1.839 0 01-.444-1.243c0-.51.18-.94.538-1.288.358-.35.807-.524 1.347-.524.325 0 .62.064.882.192.262.129.478.309.646.54zm.7-.644h.354v1.309l1.4-1.31h.47l-1.682 1.566 1.813 1.925h-.466l-1.535-1.63v1.63h-.354v-3.49zm4.3 0l1.629 3.49h-.375l-.545-1.147h-1.513l-.542 1.147h-.389l1.648-3.49h.087zm-.043.732l-.6 1.27h1.198l-.598-1.27zm4.193-.732h-.697c-.388 0-.651.016-.789.047a.866.866 0 00-.702.88c0 .19.045.357.135.5.09.144.217.253.384.327.166.073.396.11.69.112l-1.257 1.624h.429l1.256-1.624h.201v1.624h.35v-3.49zm-.35.34v1.186l-.603.005c-.234 0-.406-.022-.518-.067a.544.544 0 01-.263-.212.591.591 0 01.002-.645.53.53 0 01.25-.206c.103-.04.275-.061.515-.061h.617zm4.215-.428c.528 0 .97.177 1.326.53.356.352.534.786.534 1.301 0 .511-.177.945-.532 1.3a1.768 1.768 0 01-1.3.534c-.516 0-.953-.177-1.309-.531a1.748 1.748 0 01-.534-1.286c0-.335.082-.646.244-.932.162-.286.383-.51.663-.673a1.78 1.78 0 01.908-.243zm.016.34a1.44 1.44 0 00-.734.202c-.231.135-.412.315-.542.543-.13.228-.195.482-.195.762 0 .414.144.764.431 1.05.288.285.634.428 1.04.428.27 0 .521-.066.751-.197.231-.131.411-.311.54-.539.129-.227.194-.48.194-.759a1.446 1.446 0 00-.739-1.288 1.475 1.475 0 00-.746-.202zm2.545-.252h.696c.398 0 .668.017.808.052a.867.867 0 01.679.878.878.878 0 01-.186.575.914.914 0 01-.51.305c-.158.038-.454.056-.887.056h-.25v1.624h-.35v-3.49zm.35.34v1.186l.591.007c.24 0 .414-.022.525-.065a.538.538 0 00.262-.211.587.587 0 00.095-.326.58.58 0 00-.095-.322.527.527 0 00-.251-.207c-.104-.042-.273-.062-.51-.062h-.617zm2.872 3.15h-.35v-3.49h1.75v.34h-1.4v3.15zm3.329-3.49l1.628 3.49h-.375l-.545-1.147h-1.513l-.542 1.147h-.389l1.648-3.49h.088zm-.044.732l-.6 1.27h1.198l-.598-1.27zm2.205-.732h.35v1.463h1.779V72.25h.35v3.49h-.35v-1.687h-1.779v1.687h-.35v-3.49zm6.077 3.49h-.365v-2.682l-2.303 2.682h-.079v-3.49h.35v2.72l2.318-2.72h.079v3.49zm.916-3.15c.246-.285.549-.428.91-.428.287 0 .524.083.711.248a.814.814 0 01.281.64c0 .372-.175.638-.525.799.46.143.69.45.69.925 0 .316-.103.571-.309.764-.207.193-.488.29-.846.29a1.31 1.31 0 01-.653-.156c-.184-.104-.358-.285-.521-.545l.269-.16c.162.238.314.39.456.458.141.067.287.1.44.1.222 0 .41-.063.566-.191.155-.128.233-.316.233-.565a.633.633 0 00-.304-.578.807.807 0 00-.276-.114 2.765 2.765 0 00-.43-.024h-.059v-.306h.117c.518 0 .777-.21.777-.629a.617.617 0 00-.177-.463.62.62 0 00-.449-.172c-.235 0-.455.106-.662.318l-.239-.212zm4.181-.34l1.629 3.49h-.376l-.545-1.147h-1.512l-.542 1.147h-.389l1.648-3.49h.087zm-.044.732l-.6 1.27h1.198l-.598-1.27zm4.797 2.758h-2.586v-3.49h.349v3.164h1.614v-3.164h.35v3.164h.598v.846h-.325v-.52zm3.606 0h-.364v-2.682l-2.304 2.682h-.078v-3.49h.35v2.72l2.318-2.72h.078v3.49zm2.828-3.49h-.697c-.388 0-.652.016-.789.047a.867.867 0 00-.702.88c0 .19.045.357.135.5a.833.833 0 00.384.327c.166.073.396.11.689.112l-1.256 1.624h.428l1.257-1.624h.201v1.624h.35v-3.49zm-.35.34v1.186l-.603.005c-.234 0-.407-.022-.519-.067a.546.546 0 01-.262-.212.595.595 0 01.001-.645.533.533 0 01.251-.206c.103-.04.274-.061.514-.061h.618zM14.926 78.19l-.203.155a1.104 1.104 0 00-.402-.33 1.174 1.174 0 00-.515-.113c-.204 0-.394.05-.568.148a1.057 1.057 0 00-.55.955c0 .314.107.575.322.784.215.21.485.315.812.315.36 0 .66-.14.901-.422l.203.154a1.296 1.296 0 01-.48.377 1.505 1.505 0 01-.64.134c-.45 0-.804-.15-1.063-.449a1.353 1.353 0 01-.326-.914c0-.375.131-.691.395-.947.264-.257.594-.385.99-.385.24 0 .456.047.649.14.193.096.352.228.475.398zm1.738-.538c.389 0 .714.13.976.389.261.259.392.578.392.957 0 .376-.13.695-.391.956a1.3 1.3 0 01-.956.393c-.38 0-.701-.13-.962-.391a1.285 1.285 0 01-.393-.946c0-.246.06-.474.178-.685.12-.21.282-.376.489-.495a1.31 1.31 0 01.667-.178zm.012.25c-.19 0-.37.05-.54.148a1.072 1.072 0 00-.542.96c0 .304.106.562.317.771.212.21.467.316.765.316.2 0 .383-.049.552-.145.17-.097.302-.229.397-.396.095-.168.143-.354.143-.559a1.063 1.063 0 00-.543-.947 1.083 1.083 0 00-.55-.148zm3.773 2.38h-1.902v-2.566h.258v2.327h1.187v-2.327h.257v2.327h.44v.622h-.24v-.383zm2.652 0h-.268v-1.971l-1.693 1.971h-.058v-2.566h.257v2.001l1.705-2.001h.057v2.566zm1.672-2.566l1.197 2.566h-.275l-.401-.843H24.18l-.398.843h-.286l1.212-2.566h.064zm-.032.538l-.442.935h.881l-.44-.934zm3.705 2.028h-.279l-.852-1.986-.866 1.986h-.28l1.12-2.566h.056l1.101 2.566zm.43-2.566h.257v1.1h.186c.335 0 .577.017.723.05a.595.595 0 01.354.224c.09.117.135.268.135.453a.74.74 0 01-.131.45.6.6 0 01-.333.235c-.135.036-.362.054-.68.054h-.511v-2.566zm.257 2.316h.274c.29 0 .477-.013.565-.04a.39.39 0 00.21-.153.487.487 0 00.077-.286.48.48 0 00-.098-.312.407.407 0 00-.248-.147 3.854 3.854 0 00-.563-.027h-.217v.965zm1.905-2.316h.258v1.076h1.308v-1.076h.257v2.566h-.257v-1.24h-1.308v1.24h-.258v-2.566zm3.67-.064c.388 0 .713.13.975.389.261.259.392.578.392.957 0 .376-.13.695-.391.956a1.3 1.3 0 01-.956.393c-.38 0-.7-.13-.962-.391a1.285 1.285 0 01-.393-.946c0-.246.06-.474.179-.685.119-.21.282-.376.488-.495a1.31 1.31 0 01.668-.178zm.01.25c-.189 0-.368.05-.539.148-.17.099-.302.232-.398.4a1.114 1.114 0 00-.143.56c0 .304.105.562.317.771.211.21.466.316.764.316.2 0 .384-.049.553-.145.17-.097.302-.229.397-.396.094-.168.142-.354.142-.559a1.064 1.064 0 00-.543-.947 1.084 1.084 0 00-.55-.148zm2.127 2.38h-.258v-2.566h1.287v.25h-1.03v2.316zm2.62-2.63c.389 0 .714.13.975.389.262.259.393.578.393.957 0 .376-.13.695-.391.956a1.3 1.3 0 01-.956.393c-.38 0-.701-.13-.962-.391a1.285 1.285 0 01-.393-.946c0-.246.06-.474.178-.685.12-.21.282-.376.489-.495a1.31 1.31 0 01.667-.178zm.012.25c-.19 0-.37.05-.54.148a1.072 1.072 0 00-.542.96c0 .304.106.562.317.771.212.21.467.316.765.316.2 0 .383-.049.552-.145.17-.097.302-.229.397-.396.095-.168.143-.354.143-.559a1.063 1.063 0 00-.543-.947 1.083 1.083 0 00-.55-.148zm4.085-.25c.388 0 .713.13.975.389.261.259.392.578.392.957 0 .376-.13.695-.39.956a1.3 1.3 0 01-.956.393c-.38 0-.702-.13-.963-.391a1.285 1.285 0 01-.393-.946c0-.246.06-.474.179-.685.12-.21.282-.376.488-.495a1.31 1.31 0 01.668-.178zm.011.25c-.19 0-.37.05-.54.148a1.07 1.07 0 00-.398.4 1.115 1.115 0 00-.143.56c0 .304.105.562.317.771.211.21.466.316.764.316.2 0 .384-.049.553-.145.17-.097.302-.229.397-.396.094-.168.142-.354.142-.559a1.063 1.063 0 00-.543-.947 1.084 1.084 0 00-.549-.148zm1.872 2.38v-2.566h1.287v.25h-1.03v.822h.12c.319 0 .55.028.695.085a.716.716 0 01.245 1.188c-.147.148-.35.221-.612.221h-.705zm.257-1.236v.986h.314c.187 0 .323-.018.41-.055a.46.46 0 00.284-.425c0-.12-.036-.22-.109-.303a.517.517 0 00-.273-.164 2.223 2.223 0 00-.483-.04h-.143zm4.182-.856l-.203.155a1.103 1.103 0 00-.402-.33 1.173 1.173 0 00-.515-.113c-.205 0-.394.05-.569.148a1.056 1.056 0 00-.549.955c0 .314.107.575.322.784.214.21.485.315.812.315.36 0 .66-.14.901-.422l.203.154a1.296 1.296 0 01-.48.377 1.505 1.505 0 01-.64.134c-.45 0-.804-.15-1.063-.449a1.352 1.352 0 01-.327-.914c0-.375.132-.691.395-.947.264-.257.594-.385.991-.385.24 0 .456.047.649.14.193.096.352.228.475.398zm2.595 2.092h-.28l-.851-1.986-.867 1.986h-.279l1.119-2.566h.057l1.1 2.566zm.235-2.559H53l.78 1.743.71-1.75h.282l-.976 2.306a.486.486 0 01-.483.325.63.63 0 01-.263-.057c-.083-.038-.187-.127-.314-.268l.187-.154c.129.127.214.2.257.217a.354.354 0 00.131.026.29.29 0 00.175-.054c.05-.036.104-.126.163-.269l-.936-2.065zm3.99 1.368v1.191h-.257v-1.191l-.079-.072-1.048 1.263h-.34l1.222-1.422-1.126-1.144h.345l1.026 1.085v-1.085h.258V78.8l1.032-1.085h.342l-1.126 1.144 1.222 1.422h-.34l-1.052-1.263-.078.072zm3.879 1.191h-.268v-1.971l-1.694 1.971h-.058v-2.566h.258v2.001l1.704-2.001h.058v2.566zm.628-2.566h.506c.203 0 .36.024.469.072a.605.605 0 01.354.555.6.6 0 01-.083.312.62.62 0 01-.244.227.934.934 0 01.307.16.665.665 0 01.228.503c0 .207-.075.381-.226.523-.15.143-.353.214-.606.214h-.705v-2.566zm.25.25v.822h.147c.179 0 .31-.016.395-.05a.427.427 0 00.273-.395.339.339 0 00-.123-.277c-.083-.067-.214-.1-.394-.1h-.298zm0 1.08v.986h.319c.187 0 .325-.018.413-.055a.471.471 0 00.29-.425.441.441 0 00-.112-.3.578.578 0 00-.307-.175 2.256 2.256 0 00-.458-.031h-.145zm2.846-1.33l1.197 2.566h-.276l-.4-.843h-1.113l-.398.843h-.286l1.212-2.566h.064zm-.032.538l-.442.935h.881l-.44-.934zm1.621-.538h.258v1.076h1.308v-1.076h.257v2.566h-.257v-1.24h-1.308v1.24h-.258v-2.566zm4.469 2.566h-.268v-1.971l-1.694 1.971h-.058v-2.566h.258v2.001l1.704-2.001h.058v2.566zm2.08-2.566h-.513c-.285 0-.48.012-.58.035a.636.636 0 00-.516.647c0 .14.032.262.099.368.065.106.16.185.282.24.122.054.291.081.507.082l-.924 1.194h.315l.924-1.194h.148v1.194h.257v-2.566zm-.258.25v.872l-.443.004a1.1 1.1 0 01-.382-.049.4.4 0 01-.193-.156.435.435 0 01.001-.475.388.388 0 01.185-.15c.075-.031.201-.046.378-.046h.454zm1.091 1.845l.235.112-.353.66-.172-.074.29-.698zm1.774.471v-2.566h1.287v.25h-1.03v.822h.12c.32 0 .55.028.695.085a.716.716 0 01.246 1.188c-.147.148-.351.221-.613.221h-.705zm.258-1.236v.986h.314c.186 0 .323-.018.409-.055a.46.46 0 00.285-.425c0-.12-.037-.22-.11-.303a.518.518 0 00-.272-.164 2.222 2.222 0 00-.484-.04h-.142zm3.87 1.236h-.28l-.851-1.986-.866 1.986h-.28l1.12-2.566h.056l1.101 2.566zm1.48-2.566l1.198 2.566h-.276l-.4-.843h-1.113l-.398.843h-.286l1.211-2.566h.065zm-.031.538l-.442.935h.881l-.44-.934zm1.878 2.028h-.257v-2.566h1.287v.25h-1.03v2.316zm2.621-2.63c.389 0 .714.13.975.389.262.259.393.578.393.957 0 .376-.13.695-.391.956a1.3 1.3 0 01-.956.393c-.38 0-.701-.13-.963-.391a1.285 1.285 0 01-.392-.946c0-.246.06-.474.178-.685.12-.21.282-.376.488-.495a1.31 1.31 0 01.668-.178zm.011.25c-.189 0-.369.05-.54.148a1.07 1.07 0 00-.398.4 1.115 1.115 0 00-.143.56c0 .304.106.562.317.771.212.21.467.316.764.316.2 0 .384-.049.553-.145.17-.097.302-.229.397-.396.095-.168.142-.354.142-.559a1.063 1.063 0 00-.543-.947 1.084 1.084 0 00-.549-.148zm1.619.064v-.25h1.404v.25h-.572v2.316h-.26v-2.316h-.572zm1.783-.25h.505c.204 0 .36.024.47.072a.604.604 0 01.354.555.599.599 0 01-.327.54.934.934 0 01.307.159.665.665 0 01.228.503c0 .207-.075.381-.226.523-.15.143-.353.214-.607.214h-.704v-2.566zm.25.25v.822h.147c.179 0 .31-.016.394-.05a.427.427 0 00.274-.395.339.339 0 00-.123-.277c-.083-.067-.214-.1-.394-.1h-.298zm0 1.08v.986h.319c.187 0 .325-.018.412-.055a.47.47 0 00.291-.425.442.442 0 00-.112-.3.577.577 0 00-.307-.175 2.254 2.254 0 00-.458-.031h-.145zm3.019-1.394c.388 0 .713.13.975.389.261.259.392.578.392.957 0 .376-.13.695-.391.956a1.3 1.3 0 01-.956.393c-.38 0-.7-.13-.962-.391a1.285 1.285 0 01-.393-.946c0-.246.06-.474.179-.685.119-.21.282-.376.488-.495a1.31 1.31 0 01.668-.178zm.01.25c-.189 0-.368.05-.539.148-.17.099-.303.232-.398.4a1.114 1.114 0 00-.143.56c0 .304.105.562.317.771.211.21.466.316.764.316.2 0 .383-.049.553-.145.17-.097.302-.229.396-.396.095-.168.143-.354.143-.559a1.063 1.063 0 00-.543-.947 1.083 1.083 0 00-.55-.148zm1.873-.186h.511c.294 0 .492.013.594.038a.638.638 0 01.5.646c0 .17-.046.311-.137.423a.672.672 0 01-.374.224c-.117.028-.335.041-.653.041h-.184v1.194h-.257v-2.566zm.257.25v.872l.435.006c.176 0 .304-.016.386-.049a.396.396 0 00.192-.154.433.433 0 00.07-.24.427.427 0 00-.07-.237.387.387 0 00-.184-.153c-.076-.03-.201-.045-.375-.045h-.454zm3.881 2.316h-.268v-1.971l-1.693 1.971h-.058v-2.566h.257v2.001l1.704-2.001h.058v2.566zm.367-2.316v-.25h1.405v.25h-.572v2.316h-.26v-2.316h-.573zm1.78-.25h1.469v.25h-1.212v.804h1.201v.25h-1.201v1.012h1.201v.25h-1.458v-2.566zm3.993 2.566h-.279l-.852-1.986-.866 1.986h-.28l1.119-2.566h.057l1.101 2.566zm.43-2.566h.257v1.1h.185c.336 0 .577.017.724.05a.592.592 0 01.354.224c.09.117.135.268.135.453a.739.739 0 01-.132.45.596.596 0 01-.333.235c-.135.036-.361.054-.679.054h-.511v-2.566zm.257 2.316h.274c.289 0 .477-.013.565-.04a.388.388 0 00.209-.153.485.485 0 00.078-.286.48.48 0 00-.098-.312.405.405 0 00-.249-.147 3.845 3.845 0 00-.563-.027h-.216v.965zm1.905-2.316h.258v1.076h1.308v-1.076h.257v2.566h-.257v-1.24h-1.308v1.24h-.258v-2.566zM110.232 77.652c.389 0 .714.13.976.389.261.259.392.578.392.957 0 .376-.13.695-.391.956-.262.262-.58.393-.956.393-.38 0-.701-.13-.963-.391a1.287 1.287 0 01-.392-.946 1.361 1.361 0 01.667-1.18c.205-.119.428-.178.667-.178zm.012.25c-.19 0-.37.05-.54.148a1.072 1.072 0 00-.542.96c0 .304.106.562.317.771.212.21.467.316.765.316.199 0 .383-.049.552-.145a1.03 1.03 0 00.397-.396c.095-.168.143-.354.143-.559a1.06 1.06 0 00-.544-.947 1.083 1.083 0 00-.548-.148zm3.895 2.38h-.268v-1.971l-1.694 1.971h-.058v-2.566h.257v2.001l1.705-2.001h.058v2.566zm-1.627-3.184h.229a.37.37 0 00.16.136c.066.03.146.046.237.046a.54.54 0 00.227-.04.447.447 0 00.162-.142h.222a.442.442 0 01-.196.262.737.737 0 01-.416.106.766.766 0 01-.419-.104.456.456 0 01-.206-.264zm5.26 3.184h-.268v-1.971l-1.694 1.971h-.057v-2.566h.257v2.001l1.704-2.001h.058v2.566zm-94.603 2.166l-.203.156a1.103 1.103 0 00-.402-.331 1.172 1.172 0 00-.515-.113c-.204 0-.394.05-.568.148a1.057 1.057 0 00-.55.956c0 .313.107.575.322.784.215.21.485.314.812.314.36 0 .66-.14.901-.422l.203.154a1.295 1.295 0 01-.48.378 1.505 1.505 0 01-.64.133c-.45 0-.804-.15-1.063-.448a1.352 1.352 0 01-.326-.914c0-.376.131-.692.395-.948.264-.257.594-.385.99-.385.24 0 .456.047.65.141.192.095.35.227.474.397zm1.738-.538c.389 0 .714.13.976.39.261.258.392.578.392.956 0 .376-.13.695-.391.957a1.3 1.3 0 01-.956.392c-.38 0-.701-.13-.963-.39a1.285 1.285 0 01-.392-.946c0-.247.06-.475.179-.686a1.3 1.3 0 01.488-.494c.205-.12.428-.179.667-.179zm.012.25c-.19 0-.37.05-.54.149-.17.099-.303.231-.399.399a1.115 1.115 0 00-.143.56c0 .305.106.562.317.772.212.21.467.315.765.315.2 0 .383-.048.552-.145.17-.096.303-.229.397-.396.095-.167.143-.353.143-.558a1.064 1.064 0 00-.543-.947 1.085 1.085 0 00-.55-.149zm3.773 2.38h-1.901v-2.566h.257v2.327h1.187v-2.327h.257v2.327h.44v.622h-.24v-.382zm2.652 0h-.268V82.57l-1.693 1.972h-.058v-2.567h.257v2.001l1.705-2h.057v2.566zm1.672-2.566l1.198 2.567h-.276l-.401-.844h-1.112l-.4.844h-.285l1.212-2.567h.064zm-.032.539l-.442.934h.882l-.44-.934zm3.705 2.028h-.279l-.852-1.987-.866 1.987h-.28l1.12-2.567h.057l1.1 2.567zm.43-2.567h.257v1.101h.186c.336 0 .577.016.724.05a.594.594 0 01.353.223c.09.118.135.268.135.453a.74.74 0 01-.131.451.601.601 0 01-.333.234c-.135.036-.362.055-.68.055h-.511v-2.567zm.257 2.317h.274c.29 0 .478-.014.565-.041a.39.39 0 00.21-.153.486.486 0 00.077-.285.481.481 0 00-.097-.313.408.408 0 00-.25-.147 3.86 3.86 0 00-.562-.026h-.217v.965zm1.906-2.317h.257v1.076h1.308v-1.076h.258v2.567h-.258V83.3H39.54v1.24h-.258v-2.567zm3.669-.064c.388 0 .713.13.975.39.261.258.392.578.392.956 0 .376-.13.695-.39.957a1.3 1.3 0 01-.956.392c-.38 0-.702-.13-.963-.39a1.285 1.285 0 01-.393-.946c0-.247.06-.475.179-.686a1.3 1.3 0 01.488-.494c.205-.12.428-.179.668-.179zm.011.25c-.19 0-.37.05-.54.149-.17.099-.302.231-.398.399a1.114 1.114 0 00-.143.56c0 .305.105.562.317.772.211.21.466.315.764.315.2 0 .384-.048.553-.145.17-.096.302-.229.397-.396.094-.167.142-.353.142-.558a1.064 1.064 0 00-.543-.947 1.084 1.084 0 00-.549-.149zm3.895 2.38h-.268V82.57l-1.694 1.972h-.058v-2.567h.258v2.001l1.704-2h.058v2.566zm-1.626-3.184h.228c.04.06.093.106.16.137a.57.57 0 00.238.045c.093 0 .169-.013.226-.04a.448.448 0 00.163-.142h.221a.44.44 0 01-.196.263.738.738 0 01-.416.105.762.762 0 01-.418-.103.451.451 0 01-.206-.265zm3.233.618h1.823v2.567h-.258v-2.323h-1.308v2.323h-.257v-2.567zm3.669-.064c.388 0 .714.13.975.39.262.258.393.578.393.956 0 .376-.13.695-.392.957a1.3 1.3 0 01-.955.392c-.38 0-.701-.13-.963-.39a1.285 1.285 0 01-.393-.946c0-.247.06-.475.18-.686a1.3 1.3 0 01.487-.494c.206-.12.428-.179.668-.179zm.011.25c-.19 0-.37.05-.54.149-.17.099-.302.231-.398.399a1.115 1.115 0 00-.143.56c0 .305.105.562.317.772.211.21.466.315.764.315.2 0 .384-.048.553-.145.17-.096.302-.229.397-.396.095-.167.142-.353.142-.558a1.064 1.064 0 00-.543-.947 1.085 1.085 0 00-.549-.149zm1.872 2.763h-.257v-.622h.205l1.007-2.327h.089l1.063 2.327h.199v.622h-.258v-.382h-2.048v.382zm.238-.622h1.566l-.803-1.79-.763 1.79zm2.436.622h-.258v-.622h.206l1.007-2.327h.089l1.063 2.327h.198v.622h-.257v-.382H56.69v.382zm.238-.622h1.565l-.802-1.79-.764 1.79zm2.44-2.327h1.468v.25h-1.212v.805h1.202v.25h-1.202v1.012h1.202v.25h-1.459v-2.567zm1.912 0h.512c.293 0 .491.013.594.038a.638.638 0 01.5.646c-.001.171-.046.312-.137.423a.673.673 0 01-.375.224c-.117.028-.334.042-.653.042h-.184v1.194h-.257v-2.567zm.257.25v.873l.435.005c.176 0 .305-.016.386-.048a.396.396 0 00.193-.155.432.432 0 00.07-.24.426.426 0 00-.07-.237.388.388 0 00-.185-.152c-.076-.03-.2-.045-.375-.045h-.454zm3.345 1.125v1.192h-.257v-1.192l-.079-.071-1.048 1.263h-.34l1.222-1.423-1.126-1.144h.345l1.026 1.085v-1.085h.257v1.085l1.033-1.085h.342l-1.126 1.144 1.222 1.423h-.34l-1.052-1.263-.079.071zm1.856-1.375h.26v.963l1.03-.963h.345l-1.237 1.151 1.334 1.416h-.343l-1.128-1.199v1.199h-.261v-2.567zm4.135 2.567h-.268v-1.972l-1.694 1.972h-.058v-2.567h.258v2.001l1.704-2h.058v2.566zm3.633 0h-.268v-1.972l-1.694 1.972h-.057v-2.567h.257v2.001l1.704-2h.058v2.566zm1.663-2.317a.85.85 0 01.67-.314c.21 0 .385.06.523.182.137.121.206.279.206.472 0 .273-.129.468-.386.586.338.105.507.332.507.68 0 .233-.075.42-.227.563-.152.141-.359.212-.622.212a.962.962 0 01-.48-.114c-.136-.076-.264-.21-.383-.4l.198-.118c.119.175.23.287.335.336.103.05.211.075.323.075a.634.634 0 00.417-.142c.114-.094.171-.232.171-.415a.465.465 0 00-.223-.425.6.6 0 00-.203-.084 2.033 2.033 0 00-.317-.017h-.043v-.226h.086c.38 0 .572-.154.572-.462a.453.453 0 00-.13-.34.456.456 0 00-.331-.127c-.173 0-.335.078-.487.234l-.175-.156zm3.075-.25l1.198 2.567h-.276l-.401-.844h-1.112l-.399.844h-.286l1.212-2.567h.064zm-.032.539l-.442.934h.882l-.44-.934zm4.606 1.785h.444v.625h-.24v-.382h-3.188v-2.567h.257v2.324h1.097v-2.324h.258v2.324h1.115v-2.324h.257v2.324zm2.853.243h-.268v-1.972l-1.694 1.972h-.058v-2.567h.258v2.001l1.704-2h.058v2.566zm.367-2.316v-.25h1.404v.25h-.571v2.316h-.261v-2.316h-.572zm1.776-.25h.257v1.1h.185c.336 0 .578.016.724.05a.595.595 0 01.354.223c.09.118.135.268.135.453a.74.74 0 01-.131.451.601.601 0 01-.334.234c-.135.036-.361.055-.679.055h-.511v-2.567zm.257 2.316h.274c.289 0 .477-.014.565-.041a.39.39 0 00.21-.153.486.486 0 00.077-.285.482.482 0 00-.098-.313.408.408 0 00-.249-.147 3.858 3.858 0 00-.563-.026h-.216v.965zm1.698-2.317h.257v2.567h-.257v-2.567zm2.122 2.567h-.257v-2.567h1.287v.25h-1.03v2.317zm1.397-2.567h.512c.293 0 .492.013.594.038a.638.638 0 01.5.646c0 .171-.046.312-.137.423a.672.672 0 01-.375.224c-.117.028-.334.042-.653.042h-.183v1.194h-.258v-2.567zm.258.25v.873l.435.005c.175 0 .304-.016.386-.048a.396.396 0 00.192-.155.432.432 0 00.07-.24.426.426 0 00-.07-.237.388.388 0 00-.184-.152c-.077-.03-.201-.045-.375-.045h-.454zm2.909-.25l1.197 2.567h-.276l-.4-.844h-1.113l-.398.844h-.286l1.212-2.567h.064zm-.032.539l-.442.934h.881l-.44-.934zm3.112.836v1.192h-.257v-1.192l-.079-.071-1.049 1.263h-.34l1.223-1.423-1.126-1.144h.344l1.027 1.085v-1.085h.257v1.085l1.033-1.085h.341l-1.126 1.144 1.223 1.423h-.34l-1.052-1.263-.079.071zm1.855 1.574h-.257v-.622h.205l1.007-2.327h.089l1.063 2.327h.199v.622h-.258v-.382h-2.048v.382zm.238-.622h1.565l-.802-1.79-.763 1.79zm3.487-2.327l1.197 2.567h-.276l-.401-.844h-1.112l-.398.844h-.286l1.211-2.567h.065zm-.032.539l-.442.934h.881l-.439-.934zm1.621-.539h.258v1.076h1.308v-1.076h.257v2.567h-.257V83.3h-1.308v1.24h-.258v-2.567z" fill="#2B2A29"/><path d="M65.732 50.193l-.036-.303a87.213 87.213 0 00-.345-2.553 57.704 57.704 0 00-.493-2.884 23.264 23.264 0 00-.709-2.723c-.33-.991-.685-1.725-1.102-2.339-.414-.61-.897-1.11-1.483-1.63-3.378-3.003-7.182-4.409-10.511-5.64-2.956-1.092-5.544-2.049-7.185-3.867a22.074 22.074 0 00-1.682-1.664 24.276 24.276 0 00-1.909-1.536c-1.51-1.094-3.028-1.54-4.16-1.5-.458.016-.848.112-1.141.276-.27.151-.456.362-.53.621-.08.281-.033.63.169 1.036.121.244.793 1.04 1.596 1.947 1.211 1.367 2.714 2.975 3.119 3.366.403.39 1.069.836 1.828 1.344 1.948 1.302 4.5 3.009 5.16 5.445l.226.837-.624-.604c-.244-.237-.438-.541-.67-.907-.489-.77-1.163-1.83-2.828-2.993-.34-.236-.637-.465-.931-.69-.391-.299-.776-.593-1.207-.871-.93-.6-1.148-.838-1.659-1.4l-.357-.39c-.294-.313-.678-.69-1.09-1.096-1.47-1.445-3.301-3.247-3.501-4.67-.14-1 .453-1.79 2.357-2.122-.263-.63-.734-1.491-1.25-2.35-.742-1.235-1.576-2.46-2.027-3.002l-.194-.232c-1.06-1.29-2.824-3.428-5.09-2.668.04 1.215.951 2.71 1.5 3.612l.07.113c.71 1.169 1.28 2.37 1.882 3.636l.03.065c.307.646.57 1.339.827 2.021.255.674.507 1.339.793 1.934.26.542.997 1.649 1.814 2.875.904 1.359 1.907 2.864 2.493 3.95.27.5.482.974.687 1.432.339.756.659 1.47 1.204 2.206.95 1.28 4.76 4.033 7.388 5.932.782.565 1.461 1.056 1.914 1.398.592.447 1.129.84 1.622 1.202 2.67 1.956 4.117 3.018 4.706 5.386h-.497c-.581-2.135-1.97-3.154-4.49-5.001-.502-.368-1.049-.769-1.629-1.207a125.67 125.67 0 00-1.904-1.391c-2.654-1.918-6.5-4.697-7.492-6.035-.576-.778-.907-1.515-1.257-2.296-.2-.445-.406-.906-.672-1.4-.575-1.065-1.572-2.562-2.47-3.912-.827-1.24-1.571-2.36-1.847-2.932-.294-.611-.55-1.288-.809-1.973-.254-.672-.512-1.354-.812-1.986l-.03-.064c-.597-1.255-1.162-2.445-1.859-3.592l-.069-.113c-.6-.986-1.616-2.652-1.57-4.035l.006-.158.147-.057c2.66-1.035 4.615 1.338 5.782 2.754l.193.232c.463.557 1.31 1.8 2.06 3.046a10.758 10.758 0 01-.084-.53 76.22 76.22 0 00-.923-5.359c-.403-1.917-.683-2.614-.962-3.31-.174-.433-.348-.866-.547-1.568l-.065-.224.224-.07c.13-.04.269-.089.407-.138.75-.265 1.507-.534 2.485 0 .665.365 1.218 1.084 1.689 2.008a.412.412 0 01.098-.18c.308-.318.755-.344 1.21-.236.651.156 1.342.61 1.553.81 1.355 1.293 1.701 3.007 2.087 4.917.152.756.312 1.545.544 2.346.184.638.377 1.236.571 1.81-.1-1-.164-2.201-.196-2.797l-.011-.207.089-.077c.075-.065.362-.127.653-.16.266-.032.556-.049.687-.03 1.806.27 2.166 3.548 2.38 5.492.04.36.074.674.108.89.387 2.478 1.03 3.882 1.535 4.985.38.829.685 1.494.76 2.322l.025.262c.554.215 1.127.427 1.716.644 3.37 1.246 7.22 2.67 10.665 5.731.61.542 1.116 1.067 1.56 1.72.44.65.815 1.422 1.16 2.454.297.891.528 1.824.723 2.78.195.963.352 1.934.498 2.908.128.85.243 1.706.347 2.568l.043.359h-.481zM45.466 29.028l.23.16-.026-.09-.204-.07zm-8.905-5.943l.211.018a.628.628 0 01-.09-.046l.003.01-.124.018zm7.195-5.467c.055 1.036.194 3.527.41 4.049.248.603.46 1.162.653 1.736.194.574.37 1.162.546 1.825.06.227.181.866.314 1.566.194 1.026.415 2.189.464 2.257.054.077.561.342 1.157.632.579.281 1.228.573 1.647.743-.117-.59-.366-1.133-.664-1.783-.517-1.129-1.175-2.566-1.573-5.11-.04-.253-.073-.56-.112-.911-.198-1.808-.532-4.856-1.974-5.071-.089-.013-.331.004-.564.03l-.304.037zm1.476 10.797c-.33-2.564-.987-4.424-1.694-6.422-.363-1.028-.74-2.093-1.095-3.321-.237-.818-.399-1.618-.554-2.386-.37-1.831-.702-3.475-1.95-4.665-.178-.17-.77-.557-1.334-.691-.303-.073-.588-.069-.755.103-.123.127.258.979.51 1.544.075.166.14.31.183.423.372.968.7 2.484 1.039 4.056.293 1.359.596 2.76.936 3.855.145.468.325.822.51 1.188.15.295.303.597.45.977.145.376.267.757.386 1.13.145.452.286.894.461 1.3.134.31.632.771 1.04 1.15.202.187.383.356.503.491l.225.261c.326.383.638.75 1.139 1.006zM33.19 9.395c.168.558.317.93.466 1.3.288.717.575 1.433.986 3.393a76.27 76.27 0 01.93 5.392c.136 1.006.279 1.257.595 1.81l.223.399c.138.251.231.437.304.58.113.225.167.333.219.371.045.034.146.054.34.093.18.035.43.085.796.183a7.806 7.806 0 013.253 1.791c-.192-.551-.466-1.172-.734-1.78-.3-.678-.593-1.343-.768-1.897-.245-.777-.486-1.857-.754-3.054-.751-3.366-1.714-7.675-3.556-8.683-.791-.432-1.448-.2-2.099.031l-.201.071z" fill="#2497D1"/><path d="M63.728 50.193a89.927 89.927 0 01.439-3.357c.147-.976.302-1.949.498-2.909.195-.957.426-1.89.723-2.78.345-1.032.719-1.802 1.16-2.453.444-.653.95-1.178 1.56-1.72 3.445-3.062 7.295-4.485 10.664-5.73.59-.218 1.163-.43 1.716-.645l.025-.262c.076-.829.38-1.494.76-2.322.505-1.103 1.149-2.508 1.536-4.985.033-.216.068-.53.108-.89.213-1.945.573-5.222 2.38-5.492.13-.02.42-.002.686.029.291.034.578.096.653.16l.09.078-.011.207a64.33 64.33 0 01-.197 2.798c.195-.575.387-1.174.572-1.811.231-.801.39-1.59.544-2.346.385-1.91.732-3.625 2.087-4.917.21-.201.901-.654 1.553-.81.454-.109.901-.082 1.208.236.048.049.08.11.1.18.47-.924 1.024-1.643 1.689-2.007.978-.535 1.735-.267 2.485-.001.138.049.276.098.406.139l.224.069-.064.224c-.2.702-.374 1.135-.547 1.567-.28.697-.56 1.394-.962 3.311a75.701 75.701 0 00-.924 5.36c-.027.201-.055.375-.084.529.751-1.247 1.597-2.489 2.062-3.046l.191-.233c1.168-1.416 3.123-3.788 5.783-2.754l.147.058.005.157c.047 1.384-.969 3.05-1.57 4.036l-.069.113c-.697 1.146-1.262 2.336-1.858 3.591l-.03.065c-.3.631-.558 1.314-.813 1.986-.259.685-.514 1.361-.809 1.973-.275.572-1.02 1.69-1.846 2.932-.899 1.35-1.896 2.847-2.47 3.912a20.62 20.62 0 00-.672 1.4c-.35.78-.681 1.518-1.257 2.295-.993 1.339-4.839 4.118-7.492 6.035-.76.55-1.421 1.027-1.905 1.392-.58.438-1.126.839-1.628 1.206-2.684 1.968-4.085 2.995-4.593 5.432h-.489c.518-2.677 1.975-3.745 4.8-5.816.493-.362 1.03-.756 1.623-1.203.452-.342 1.132-.833 1.914-1.397 2.628-1.9 6.438-4.653 7.387-5.933.546-.736.866-1.45 1.205-2.205.205-.458.417-.932.687-1.432.585-1.086 1.588-2.592 2.492-3.95.817-1.227 1.553-2.333 1.815-2.876.286-.594.537-1.26.792-1.933.258-.683.52-1.375.827-2.022l.03-.064c.602-1.267 1.173-2.468 1.883-3.636l.069-.113c.549-.902 1.461-2.398 1.501-3.613-2.267-.76-4.03 1.38-5.091 2.667l-.192.234c-.453.542-1.286 1.767-2.029 3.001-.516.86-.986 1.72-1.25 2.35 1.905.333 2.498 1.123 2.357 2.123-.2 1.423-2.031 3.225-3.5 4.67-.413.405-.797.783-1.09 1.097l-.358.39c-.51.56-.729.8-1.658 1.399-.432.277-.816.572-1.207.871-.294.225-.592.454-.931.69-1.666 1.162-2.34 2.223-2.829 2.993-.232.365-.425.67-.67.907l-.623.604.226-.837c.66-2.437 3.211-4.143 5.159-5.446.76-.508 1.425-.953 1.828-1.342.406-.392 1.908-2 3.12-3.367.802-.907 1.474-1.703 1.596-1.947.202-.406.248-.755.168-1.036-.074-.26-.259-.47-.53-.621-.292-.165-.683-.26-1.14-.276-1.132-.04-2.65.406-4.16 1.5-.654.474-1.297.989-1.91 1.536a21.932 21.932 0 00-1.68 1.664c-1.643 1.818-4.23 2.774-7.186 3.867-3.33 1.23-7.133 2.637-10.511 5.64-.587.52-1.07 1.02-1.484 1.63-.416.613-.77 1.347-1.102 2.338a23.16 23.16 0 00-.708 2.722 57.79 57.79 0 00-.493 2.885 87.806 87.806 0 00-.43 3.287h-.481zm20.565-21.436l.23-.16-.204.07-.026.09zm8.925-6.084l.21-.018-.123-.018.003-.01a.656.656 0 01-.09.046zm-7.394-1.436c.216-.522.354-3.013.41-4.05l-.305-.036c-.233-.027-.475-.044-.563-.03-1.442.215-1.777 3.263-1.975 5.07-.038.353-.072.659-.112.912-.397 2.544-1.056 3.981-1.573 5.11-.297.65-.547 1.193-.663 1.782.418-.17 1.067-.461 1.646-.742.596-.29 1.103-.555 1.157-.631.05-.07.27-1.233.465-2.259.132-.7.253-1.338.314-1.565a29.06 29.06 0 01.545-1.825c.193-.574.405-1.133.654-1.736zm.627.326c-.707 1.998-1.364 3.858-1.693 6.421.5-.257.813-.624 1.138-1.006l.225-.26c.12-.137.302-.305.504-.493.407-.378.906-.84 1.04-1.15.175-.405.316-.847.46-1.299.12-.373.242-.755.387-1.13.147-.38.3-.683.45-.977.184-.366.364-.72.51-1.188.34-1.095.642-2.496.936-3.856.339-1.571.666-3.088 1.039-4.055.043-.114.108-.258.182-.423.252-.565.633-1.418.51-1.544-.166-.172-.452-.176-.755-.104-.563.135-1.155.521-1.335.692-1.246 1.19-1.579 2.833-1.949 4.665-.155.768-.316 1.568-.553 2.386-.356 1.228-.733 2.293-1.096 3.32zm9.881-11.298c.149-.37.298-.742.466-1.3l-.201-.071c-.65-.23-1.307-.464-2.099-.03-1.841 1.007-2.804 5.316-3.556 8.682-.267 1.196-.509 2.277-.754 3.054-.175.554-.468 1.218-.767 1.896-.269.609-.543 1.23-.735 1.78a7.813 7.813 0 013.253-1.79c.366-.098.616-.148.797-.184.193-.038.294-.058.34-.092.052-.038.106-.146.219-.37a17.581 17.581 0 01.526-.979c.317-.554.46-.805.596-1.811a77.015 77.015 0 01.93-5.393c.41-1.96.698-2.675.985-3.392z" fill="#2497D1"/><path fill-rule="evenodd" clip-rule="evenodd" d="M64.944 4.574C62.579 1.292 59.729.146 55.85.61c-7.487.896-10.846 11.477-8.54 17.655 1.269 3.397 5.8 7.291 8.42 9.583l9.214 8.637c1.714-1.552 2.829-3.104 4.569-4.615 3.777-3.281 11.4-9.149 13.098-13.513 2.07-5.322-.318-11.712-2.895-14.695-4.53-5.244-10.69-3.893-14.772.912z" fill="#FEFEFE"/><path fill-rule="evenodd" clip-rule="evenodd" d="M47.158 9.664c.078.034.132.075.146.126.094.352-.116 1.243.052 1.246l2.94.057-.081.458-1.559.053-.028 1.067 3.168.052-.034.925c-.048 1.347-.076 1.81 2.054 2.38 2.13.57 4.876 1.106 7.664 1.433 1.974.23 3.951-.153 5.947-.115.824.016 1.666.528 2.489.515.888-.014 1.538-1.054 2.411-1.101 1.9-.103 3.976.721 5.64.443.893-.149 1.736-.325 2.513-.539a1.505 1.505 0 01-.073-.441l-.193-.575h.004l.02.039-.006.002.15.123-.168-.164.004-.001-.003-.01h-.004l.003.011c-.045-.158-.042-.508.104-.63V15c-.153 0-.374-.033-.54-.12-.74-.164-.499-.563.248-.739l1.045-.117-.08-.727-.001.004.002-.005.024-.068c.102-.151.33-.252.437-.035.308.087.07.396.07.817l1.576.276h-.002c.564.09-.121.7-.384.726l-.239.02a.519.519 0 01-.111.401c.038.19.118.582-.16.634l-.006.015c.398-.167.77-.35 1.11-.552.545-4.599-1.459-9.4-3.591-11.868-4.53-5.244-10.69-3.893-14.772.912C62.579 1.292 59.729.146 55.85.61c-4.5.539-7.509 4.577-8.692 9.054zm33.384 6.794l-.087.138h-.006l.093-.138z" fill="#A2D9F7"/><path fill-rule="evenodd" clip-rule="evenodd" d="M83.11 14.684l-.752.327v.9l-.13.054-.104 1.529-.064.053-.04.834.376.045c.105-.3-.003-.464.338-1.091a4.06 4.06 0 01.063-.112c.061-.826.51-1.614.385-2.104a2.51 2.51 0 01-.073-.435zm-1.122 4.507l-1.94.064-.017-.758.526-.116-.295-3.373-1.007-.497s.218-.264.722-.358a7.638 7.638 0 011.058-.133l-.01-.188s-.49-.546-.892-.636c-1.722-.383-1.911.62-2.425 1.914 0 0-.388-.43-.561-.476-.173-.047-.815-.147-1.15.173-.334.32-.489.933-.489.933s-.089.262-.379.272c-.29.011-.183-.02-.302.011-.12.03-.264.389-.264.389l-.178.162-.547-.479s-.262-.19-.657-.062a4.849 4.849 0 00-.724.307l.346.363.745 1.005s.195.311.546.31c.35 0 .848-.028.848-.028s.65.14.828.287c.177.147.704.635.704.635l.36.657.148.191s.813-.057 1.036-.037c.223.02.644.137.644.137s.99.325 1.14.437c.408.306.71.549.947.934.113-.277.25-.545.415-.788.117-.491.392-.943.823-1.251v-.001z" fill="#95C98C"/><path fill-rule="evenodd" clip-rule="evenodd" d="M51.804 23.96c1.34 1.336 2.739 2.558 3.845 3.524l.226.198.006.006 9.065 8.497c.738-.682 1.373-1.372 2.004-2.057.75-.814 1.494-1.622 2.418-2.425.579-.502 1.277-1.09 2.033-1.726 2.25-1.893 5.019-4.224 7.262-6.555l-.24-.044-1.438-.186-1.68.334-1.136.48-.013.005-1.194.416-.036.013h-.04l-1.122-.02h-.017l-.014-.002-1.245-.202-.014-.002c-.003 0-1.124-.245-1.182-.245l-3.763.035h-.001l-3.227.012h-.005l-3.222-.083-.773.17-1.424.743-.027.014-.025.006-.678.159-.017.004h-.02l-.69.042-.048.003-.043-.017-2.536-.972-.989-.124zm-.576-.267c1.561 1.598 3.25 3.06 4.502 4.155l9.214 8.637c1.714-1.552 2.829-3.104 4.569-4.615 2.464-2.141 6.566-5.383 9.591-8.59l-.646-.12-1.482-.191-1.733.344-1.16.49-1.193.416-1.123-.019L70.523 24s-1.16-.251-1.231-.251l-3.764.035-3.227.012-3.25-.083-.824.18-1.452.758-.679.16-.689.04-2.56-.981-1.536-.193-.083.017z" fill="#2497D1"/><path fill-rule="evenodd" clip-rule="evenodd" d="M51.228 23.693c1.561 1.598 3.25 3.06 4.502 4.155l9.214 8.637c1.714-1.552 2.829-3.104 4.569-4.615 2.464-2.141 6.566-5.383 9.591-8.59l-.646-.12-1.482-.191-1.733.344-1.16.49-1.193.416-1.123-.019L70.523 24s-1.16-.251-1.231-.251l-3.764.035-3.227.012-3.25-.083-.824.18-1.452.758-.679.16-.689.04-2.56-.981-1.536-.193-.083.017z" fill="#0A689D"/><path fill-rule="evenodd" clip-rule="evenodd" d="M66.16 13.439h1.784v2.878h-.968v.191h-2.103v.012h-3.84v-.825h-1.298v.24h-1.789V13.54h1.789v1.14h1.298v-2.06h3.84v2.06h1.288v-1.241z" fill="#FEFEFE"/><path fill-rule="evenodd" clip-rule="evenodd" d="M51.762 13.648l-.58 4.608-2.593.031.053.963 3.213.053-.491 4.37 2.037.337 1.992.785v-3.158l-.213-.053-.053-2.495.318-.093-.037-.484.348-.534.369-.34.074-.573.412-.043-.007.424h.095v.256l.447.387.266.374.04.6.135.053.052.16 3.264-.947.038-.302-.082-.267.143-.235h.49l.11.376-.164.113.27.342 5.335-.007.194-.302-.137-.19.135-.238.446-.04.163.251-.111.217.216.336 3.076.94.017-.27.303-.174.023-.513.38-.413.227-.123.127-.764s.146-.092.188-.092c.042 0 .183.046.18.046l.088.447.757 1.012.057.584.18.095-.082 2.538-.142.052v2.326l2.062-.74a2.163 2.163 0 011.84-.28l1.684.199c.349-.554.813-.894.814-.896a3.224 3.224 0 011.066-1.09c-.22-.396-.537-.765-.992-.97-1.342-.605-1.208-.432-1.678-.512-.47-.08-1.197-.024-1.197-.024s-.512-1.08-.889-1.329a2.336 2.336 0 00-1.068-.385 34.274 34.274 0 00-1.156-.052s-.38-.363-.492-.626c-.111-.264-1.012-1.13-1.012-1.13l-.886-.383-1.544-.416-2.903.581-1.363-.765-2.059-.087-1.525 1.022-.885-.398-2.458-.025-1.973-1.374-2.13.285-1.02-.745-.825-.206-.977-.08z" fill="#95C98C"/><path fill-rule="evenodd" clip-rule="evenodd" d="M64.203 20.593h2.3v1.175h3.13v.526h-.07v.517h2.08v.387h-.383v.226c-.123.183-.103.524-.221.702 0 0-.269.292-.376.438-.292-.096-.6-.185-.815-.317-.807-.416-1.719-.393-2.593-.247-.68.113-1.78.41-2.396.82-.895.103-1.478.056-2.445-.043-1.396-.527-1.11-.365-2.303-.658-.3 0-1.258-.003-1.573.29l.02-.07-.227-1.14h-.367v-.389h1.49v-.516h-.163v-.526h4.912v-1.175z" fill="#D9DADA"/><path fill-rule="evenodd" clip-rule="evenodd" d="M54.084 8.498l1.668.004-.02 2.252.29.028v2.668h.335l.052.901-.505.075-.965.21-.296.169-.411-.373-.493-.412-.414-.202.053-.286.32-.125V10.73h.283l.103-2.23z" fill="#FEFEFE"/><path fill-rule="evenodd" clip-rule="evenodd" d="M58.787 11.447c-.082.03-.171.142-.273.272-.1.13-.214.279-.32.394-.108.115-.209.196-.288.288a.986.986 0 00-.168.274.311.311 0 00-.012.227c.025.085.083.192.125.283.041.091.067.166.373.203.306.037.893.037 1.206 0 .314-.037.355-.112.389-.183a.898.898 0 00.093-.483.532.532 0 00-.1-.283c-.075-.114-.209-.262-.35-.42-.142-.158-.292-.326-.405-.437-.112-.11-.187-.164-.27-.135zM66.99 11.441c-.081.03-.17.145-.272.278-.101.133-.214.284-.321.402-.107.117-.208.2-.288.294a1.016 1.016 0 00-.167.28.325.325 0 00-.013.232c.026.086.083.197.125.29.042.092.068.168.374.206.306.038.892.038 1.206 0 .313-.038.354-.114.388-.186a.93.93 0 00.093-.494.55.55 0 00-.1-.29c-.075-.116-.208-.266-.35-.428-.142-.161-.292-.332-.404-.446-.113-.113-.188-.168-.27-.138zM62.905 8.653c-.267.033-.592.563-.807.886-.214.324-.318.44-.455.579-.137.139-.307.3-.432.469a2.201 2.201 0 00-.274.516c-.067.17-.12.335-.131.543-.011.21.02.462.127.638s.288.275.876.325c.588.05 1.582.05 2.151.024.57-.026.715-.077.853-.18a.7.7 0 00.298-.493c.028-.238-.047-.56-.135-.785a1.613 1.613 0 00-.302-.485 8.897 8.897 0 00-.421-.477c-.183-.192-.424-.43-.648-.78-.224-.35-.433-.813-.7-.78zM54.83 6.792c-.073.029-.154.138-.244.264-.09.127-.192.271-.287.383-.096.112-.186.191-.257.28a.981.981 0 00-.15.267.327.327 0 00-.012.22c.023.083.075.188.116.253.04.065.071.09.356.1.286.01.827.005 1.104-.008.277-.013.29-.033.308-.076a.89.89 0 00.057-.187c.015-.08.02-.171.015-.257a.548.548 0 00-.09-.275c-.067-.11-.186-.254-.313-.408-.127-.153-.261-.317-.362-.424-.1-.108-.167-.16-.241-.132z" fill="#FFED00"/><path fill-rule="evenodd" clip-rule="evenodd" d="M70.472 7.695v.016c0 .177-.16.321-.356.321a.373.373 0 01-.265-.106c-.167.12-.396.193-.648.193-.423 0-.78-.207-.888-.489a1.201 1.201 0 01-.416.072c-.124 0-.242-.017-.347-.048a.448.448 0 01-.392.222.436.436 0 01-.438-.352c-.56-.043-.996-.418-.996-.874 0-.485.494-.878 1.104-.878.069 0 .136.005.202.015.025-.233.236-.415.493-.415.133 0 .254.05.343.128.127-.344.56-.597 1.074-.597.614 0 1.113.362 1.113.808 0 .077-.015.151-.042.221.068-.013.14-.02.215-.02.461 0 .835.276.835.616 0 .098-.03.19-.085.271.992.02 1.771.214 1.771.451 0 .25-.864.452-1.93.452-.118 0-.235-.002-.347-.007zM71.757 10.134c-.323 1.104 1.51.372 1.56.301.077.053.1.226.197.25.096.024.252-.096.331-.1a.322.322 0 00.234.224.313.313 0 00.367-.167c.397.069.768-.114.848-.43.085-.337-.19-.697-.616-.804a1.025 1.025 0 00-.143-.026c.023-.165-.092-.329-.271-.374a.37.37 0 00-.261.028c-.029-.26-.286-.513-.644-.603-.428-.109-.839.055-.917.364a.433.433 0 00-.01.16c-.045-.02.044-.03-.147-.051-.7-.08-.663.723-.663.723-.418-.485-1.472.322-.282.623.413.104.338-.134.417-.118z" fill="#FEFEFE"/><path fill-rule="evenodd" clip-rule="evenodd" d="M58.633 8.267c.249.054.422.168.6.347l.076.138s.057-.346.213-.531c.156-.185.335-.37.335-.37s-.3.139-.364.2c-.063.06-.216.326-.216.326-.268-.218-.29-.141-.644-.11zM60.01 8.914c.184.138.285.297.365.511l.01.142s.177-.264.375-.358c.198-.094.415-.179.415-.179s-.3.002-.375.028c-.075.026-.3.188-.3.188-.14-.28-.187-.225-.49-.332zM68.016 10.588c.23.022.399.105.578.245l.083.117s.014-.318.133-.502c.12-.183.26-.369.26-.369s-.254.158-.305.22c-.05.061-.158.317-.158.317-.265-.166-.276-.095-.59-.027zM71.945 5.989a.584.584 0 01.324.137l.047.065s.007-.178.074-.28c.067-.103.146-.208.146-.208s-.143.089-.17.123a1.305 1.305 0 00-.09.178c-.148-.093-.154-.053-.33-.015zM51.337 11.644a.583.583 0 01.324.137l.047.066s.007-.178.074-.281c.067-.103.146-.207.146-.207s-.143.088-.171.123c-.028.034-.089.178-.089.178-.148-.093-.155-.053-.33-.016z" fill="#0A689D"/><path fill-rule="evenodd" clip-rule="evenodd" d="M82.052 19.407v.04h-2.415v-.04h-.2c.16.037.324.11.486.194.108.057.205.134.3.21.04.032.093.079.138.103.004.001.013.006.017.006a.205.205 0 00.035-.046c.126-.196.333-.378.572-.404.256-.029.439.12.668.117.11-.002.209-.041.313-.072l.068-.021-.02.157-.03.008c-.104.028-.222.069-.33.07-.228.003-.433-.143-.654-.118-.195.022-.37.182-.472.34-.06.096-.113.151-.23.089-.158-.084-.278-.228-.438-.312-.388-.204-.814-.366-1.082.053.837.18 1.368.544 1.876 1.246l.02.027-.089.123-.037-.053a3.164 3.164 0 00-.772-.789c-.759-.513-1.903-.56-2.792-.529-.153.005-.159-.012-.218-.146-.212-.502-.525-1.005-.993-1.304-.47-.3-1.138-.306-1.678-.292-.432.012-.486-.11-.686-.46-.354-.619-.717-1.041-1.342-1.396-.674-.383-1.623-.666-2.4-.681-.34-.007-.69.032-1.025.088a4.015 4.015 0 00-1.333.466c-.133.072-.191.13-.325.008-.206-.19-.441-.299-.683-.433a2.976 2.976 0 00-.588-.269c-.755-.231-1.782-.327-2.516.01a2.905 2.905 0 00-.81.572c-.305.295-.427.4-.82.146-.22-.15-.414-.23-.674-.289a4.538 4.538 0 00-2.133.031c-.106.027-.123.021-.187-.067-.298-.419-.98-.937-1.447-1.152-.816-.375-1.61-.126-2.4.185-.072.029-.127.057-.178-.03-.056-.087-.18-.188-.26-.256-.854-.716-1.41-.833-2.492-.792l-.469 3.717c.164.082.313.165.46.277.461.35.884.914 1.01 1.485.02.095.033.19.044.287.048.4.095.421.489.45.736.052 1.265.343 1.751.866v-1.93h.252c-.04-.43.16-.857.53-1.084v-.273h.216v-.206h.02v-.314h.106v-.098h.452v.412h.087v.206h.204v.26c.385.223.593.659.552 1.098h.185v.314a71.499 71.499 0 013.015-.892v-.09h.105v-.136h.09V18h-.136v-.339h.136v-.181h.641v.181h.164V18h-.164v.094h.09v.137h.127v.08h2.32v-.053h.14v-.123h.253v.123h.154v.052l2.322-.02v-.06h.105v-.136h.09V18h-.135v-.339h.136v-.181h.64v.181h.164V18h-.163v.094h.09v.137h.126v.118l2.999.863v-.3h.253l-.001-.01c-.042-.432.158-.86.53-1.09v-.272h.215v-.206h.021v-.314h.105v-.098h.452v.412h.087v.206h.205v.26c.388.226.595.668.55 1.111h.158v.106h.028v.281h-.028v2.496h-.195v2.22c.743-.213 1.422-.615 2.16-.851 1.141-.366 2.172-.265 3.319-.025l.096.02-.143.113-.021-.004c-1.084-.219-2.135-.31-3.208.033-.684.22-1.315.575-1.997.801-.754.25-1.75.282-2.529.097a1.788 1.788 0 01-.324.415c.833.298 1.98.287 2.808.013.682-.225 1.313-.582 1.999-.801.919-.294 1.798-.289 2.737-.135l.089.014-.126.126-.023-.004c-.904-.144-1.75-.146-2.634.136-.968.31-1.816.875-2.85.987a5.556 5.556 0 01-1.388-.032c-.749-.115-1.382-.53-2.107-.716a5.617 5.617 0 00-2.044-.133c-.852.115-1.548.555-2.332.858l-.01.028-.06-.002c-1.555.58-2.24-.11-3.639-.585-.468-.158-.979-.26-1.474-.215-1.09.097-1.872.896-2.865 1.253-.51.184-1.076.242-1.606.114-.517-.124-.983-.418-1.472-.618a6.566 6.566 0 00-1.416-.409l-.018-.003-.129-.166.114.017c.514.078 1.022.231 1.503.428.777.317 1.307.732 2.197.668.89-.063 1.528-.543 2.283-.954l.25-.129-.107-.447c-.532.282-1.028.632-1.599.837-.51.183-1.076.241-1.606.114-.517-.124-.983-.418-1.472-.618a6.623 6.623 0 00-2.055-.462l-.08-.016-.102-.145.212.007c.69.023 1.44.222 2.08.482.511.21 1.014.531 1.562.635v-3.057h-.266v-.64c-.5-.568-.99-.883-1.762-.938-.493-.036-.566-.118-.625-.606-.101-.836-.656-1.502-1.386-1.884l-.086.687h-2.534v.903h3.278l-.536 4.318-.163-.139.536-4.035h-3.26v-1.192h2.551l.68-5.388H48.53v-1.123H46.75l.01-.19h3.487v-.321h-2.99V9.769l-.129-.021V9.6l.274.045v1.344h2.99v.773h-1.718v.862h3.264l-.123.975c.494-.018.993-.01 1.464.153v-.402h.321v-2.668h.377V8.587h-.04V8.49c-.34-.39.031-.801.306-1.11.196-.22.383-.437.548-.682v-.189l-.139-.058.043-.165.096.04V6.18h-.163V6.01h.163V5.83h.175v.178h.162v.172h-.163V6.4l.14.058-.042.166-.098-.041v.102c.167.251.357.472.557.696.266.298.623.693.337 1.072h.01v.135h-.07v2.096h.32v2.668h.336v.957c.526.045.976.292 1.392.6v-1.47h-.065v-.151c-.371-.424.033-.877.343-1.225.221-.248.431-.492.616-.77V11.1l-.139-.058.043-.165.096.04v-.146h-.163V10.6h.163v-.177h.175v.177h.163v.172h-.163v.218l.14.059-.043.165-.097-.04v.11c.186.282.398.529.622.78.31.346.713.8.344 1.223h.01v.151h-.084v1.193h1.127v-2.036h-.187v-.215h.025c-.316-.474-.064-1.29.251-1.696.172-.222.365-.432.554-.64.437-.484.852-.96 1.215-1.503v-.405l-.202-.084.052-.204.15.063v-.273h-.243v-.212h.244V7.16h.215v.265h.244v.212h-.244V8l.206.086-.053.203-.149-.062.016.29c.368.552.788 1.035 1.232 1.526.188.208.382.418.553.64.3.387.569 1.23.284 1.696h.096v.215h-.273v2.036h1.141v-1.192h-.072v-.15c-.37-.424.033-.878.343-1.225.225-.252.439-.5.625-.783v-.11l-.157-.065.046-.177.111.047v-.183h-.187v-.184h.187v-.203h.187v.203h.187v.184h-.187v.26l.16.067-.046.177-.114-.048v.067c.18.269.386.507.601.748.31.347.713.8.344 1.223h.011v.152h-.078v2.171c.282-.088.58-.14.873-.177v-.58h-.1v-.349h-.08v-.308h-.091v-.357h3.024c-.02-.107-.079-.29.062-.307 3.014-.364 4.18-1.065 6.385-2.935a40.214 40.214 0 012.277-1.821l.073-.053V12.2l1.048.546v.076h.303v.112h.12v.122h.138v.21l1.147.402-.016.105-.016.176h-1.633v.023c.491.013 1.176.069 1.61.272l.025.011.013.164-.072-.035c-.41-.199-1.105-.255-1.576-.267v.005l-.047-.002a3.198 3.198 0 00-.38.003l-.05.004v-.01c-.386.013-.799.05-1.172.143-.718.178-.718.398 0 .576.812.201 2.046.201 2.859 0 .137-.034.303-.082.425-.155l.053-.032.035.144-.03.017c-.209.12-.533.192-.78.233v.968h-.175v.3h-.058v1.282h-.111v.695h-.102v.047h.508l-.093.145h-1.25v-.438h.055v-.594h.2v.761h.126v-.761h.208v.695h.21v-.695h.11v-.984H80.55v.984h.068v.538h.065v.265h.11v-.265h.01v-.538h.209v.594h.083v.438h-.972v.634h2.005l-.017.059a2.02 2.02 0 00-.05.196l-.008.038zm1.06-5.634l-1.161-.42v.106h-.077v.098h-.175v.126h-.09v.132l1.502-.042zm-3.845 5.608v-.255h.718v-.79h.56v-.205h-.065v-.538h-.068V16.31h-.07v-.098h-.08v-.255h-.093v-.918c-.277-.046-.965-.184-.965-.492 0-.445 1.344-.553 1.81-.573-.192-.242-.454-.502-.713-.649-.692-.394-1.71-.097-2.067.618l-.012.025h-.006c-.168.297-.275.63-.35.962-.024.109-.074.333-.23.183-.085-.082-.155-.171-.25-.243a1.143 1.143 0 00-1.268-.033c-.3.202-.463.546-.557.884-.082.296-.124.365-.442.389-.289.02-.358.099-.518.327-.188.268-.275.222-.46-.004-.19-.23-.328-.362-.64-.373-.413-.013-.629.095-.96.284.439.334.715.704.993 1.186.211.367.207.4.633.387.547-.017 1.21.014 1.684.316.496.317.823.836 1.046 1.367.009.015.02.05.029.062.01.003.043 0 .053-.001.544-.018 1.117-.006 1.654.091.165-.293.388-.387.634-.372zm-8.273-.02l-2.999-.862v.112h.283v.253h-.119v.178h-.053v.554h.63v.294h2.258v-.528zm-13.806 9.774c.6-.297 1.132-.693 1.77-.918.759-.267 1.486-.188 2.236.066.523.178 1.015.435 1.537.615 1.136.394 1.797.095 2.83-.384.534-.248 1.016-.456 1.607-.536a5.763 5.763 0 012.1.136c.36.093.688.227 1.028.375.15.065.3.131.454.186.644.229 1.57.27 2.239.142l.106-.02-.11.168-.02.003c-.948.167-1.847.036-2.727-.347a6.583 6.583 0 00-1.006-.367 5.621 5.621 0 00-2.044-.133c-.593.08-1.092.304-1.628.553-1.05.485-1.728.758-2.876.36-.522-.18-1.014-.436-1.537-.614-1.903-.645-2.319.137-3.887.854l-.039.017-.077-.134.044-.022zm-.357-.518c.744-.288 1.366-.808 2.127-1.076.758-.267 1.487-.188 2.236.066.523.178 1.015.434 1.537.615 1.108.383 1.756.112 2.768-.356.55-.255 1.06-.482 1.67-.565a5.77 5.77 0 012.099.137c.36.092.688.226 1.028.374.15.066.3.132.454.186.58.206 1.354.25 1.962.184.349-.038.684-.13 1.013-.25l.191-.07-.235.238-.01.004c-1.154.4-2.317.326-3.433-.16a6.568 6.568 0 00-1.006-.366 5.617 5.617 0 00-2.044-.134c-.593.08-1.092.305-1.628.553-1.05.486-1.728.759-2.876.361-.522-.18-1.014-.437-1.537-.614-.834-.283-1.582-.288-2.396.052-.642.269-1.203.695-1.845.957l-.031.012-.103-.125.06-.023zm-.578-.576c1.01-.174 1.756-.904 2.705-1.239.758-.267 1.487-.187 2.236.067.523.177 1.015.434 1.537.614 1.108.384 1.756.113 2.768-.356.55-.254 1.06-.482 1.67-.564a5.765 5.765 0 012.099.136c.36.093.688.227 1.028.375.15.065.3.131.454.186.58.206 1.354.25 1.962.184.96-.104 1.776-.617 2.67-.93l.222-.078-.3.259c-.863.321-1.64.791-2.576.893-.912.098-1.65-.016-2.49-.382a6.589 6.589 0 00-1.006-.367 5.619 5.619 0 00-2.044-.133c-.594.08-1.091.304-1.628.553-1.05.485-1.728.758-2.876.36-.522-.18-1.014-.436-1.537-.613-2.14-.727-2.54.39-4.339 1.037-.16.058-.323.102-.49.133l-.022.005-.136-.123.093-.017zm-1.773-1.618c.505.239.926.391 1.501.35 1.169-.083 1.926-.901 2.977-1.272 1.448-.51 2.458.227 3.773.681 1.139.395 1.794.096 2.83-.384.534-.248 1.015-.456 1.607-.536a5.763 5.763 0 012.1.136c.36.093.688.227 1.028.375.15.065.3.131.454.186.579.206 1.354.25 1.962.184 1.011-.11 1.87-.677 2.822-.98a5.092 5.092 0 011.636-.242l.096.001-.12.143h-.02a4.94 4.94 0 00-1.549.235c-.967.309-1.816.875-2.85.986-.913.1-1.647-.015-2.489-.38a6.586 6.586 0 00-1.006-.368 5.617 5.617 0 00-2.044-.133c-.594.08-1.091.304-1.628.553-1.05.485-1.728.758-2.876.36-.667-.23-2.186-.848-2.89-.803-.29.018-.593.114-.87.197-.265.08-.549.244-.792.375-.436.234-.868.455-1.324.655-.791.285-1.465.233-2.239-.117l-.37-.334.28.132zm-1.348-1.209c.22.066.439.143.652.23.778.317 1.306.733 2.197.669 1.169-.084 1.925-.902 2.977-1.272.759-.267 1.486-.188 2.236.066.523.178 1.015.434 1.537.615 1.139.394 1.794.095 2.83-.384.534-.248 1.015-.457 1.607-.537a5.763 5.763 0 012.1.137c.36.092.688.226 1.028.374.15.066.3.132.454.187.58.206 1.353.25 1.962.183 1.01-.11 1.87-.676 2.822-.98a5.244 5.244 0 012.127-.215l.096.009-.13.133-.021-.002a5.089 5.089 0 00-2.029.212c-.967.31-1.816.875-2.85.987-.912.099-1.647-.015-2.489-.381a6.593 6.593 0 00-1.006-.367 5.62 5.62 0 00-2.044-.134c-.594.08-1.092.305-1.628.553-1.05.485-1.728.759-2.876.361-.522-.18-1.014-.437-1.537-.614-2.141-.726-2.54.39-4.339 1.038-.51.183-1.076.241-1.606.114-.517-.124-.983-.418-1.472-.618a7.115 7.115 0 00-.533-.193l-.01-.003-.251-.227.196.06zm-5.807-12.38h-.561v-.09h.652v5.036h-.091v-4.945zm19.225 8.577v.258h3.181v.724h-.084v.256h1.895v.116h.148v.492h-.291c-.088.261-.176.554-.285.808.64.144 1.48.142 2.115-.013V21.65h.195v-.239H66.55zm0-.259h6.874v-1.854h-2.286v.736h-2.547v-.293h-.629v-.699h-1.001v.699h-1.989v-.762h-1.28v.762h-2.003v-.685h-.959v.685h-.642v.237H57.54v-.68h-2.314v1.854h8.905v-.605h2.42v.605zm2.952 1.241h-9.966v.256h9.966v-.256zm2.043.72v-.204H58.062v.203h13.483zm-7.27-2.299h2.13v-.122h-2.13v.122zm2.13.285h-2.13v.57h2.13v-.57zm3.181 1.115h-10.25v.035h10.25v-.035zm-10.25-.144h10.25v-.256h-10.25v.256zm11.872 1.366l-12.77-.029.21.883c1.232-.553 2.175-.242 3.363.266.195.084.387.167.578.24l2.187.007c.815-.31 1.506-.758 2.392-.879a5.763 5.763 0 012.1.137c.46.118.874.32 1.312.496.311-.319.507-.697.628-1.12zm-12.805-.173l12.843.029.008-.035H58.401l.002.006zm-2.74-14.81c.37-.329-.008-.707-.249-.977a6.651 6.651 0 01-.532-.656 6.685 6.685 0 01-.531.656c-.24.27-.619.648-.25.976h1.563zm2.71 15.309l-.12-.505h-.335v-.492h.294v-.116h1.18v-.256h-.2v-.724h4.939v-.258h-8.905v.127h.265v3.225c1.156.145 1.919-.5 2.882-1.002zm5.938 1.19l-1.253-.008c.434.11.818.116 1.253.007zm16.89-11.076l.006.095h.192v-.102l-.197.007zm.27-.154v-.04h-.353v.05l.353-.01zm.09-.184v-.08h-.53v.08h.53zm-.582.18v-.035h-.031l.031.034zm-.086-.093v-.068h-.067l.067.068zm-.157-.153v-.013h-.014l.014.013zm-.144-.121v-.018h-.023l.023.018zm-.09-.066v-.229h.096v-.122h.132v-.112h.32v-.057l-1.888-1.27v1.566a1.572 1.572 0 011.34.224zm-1.466-.184v-1.846l1.284.863V8.974a40.08 40.08 0 00-2.145 1.723c-2.223 1.887-3.41 2.597-6.428 2.949-.009.026.013.113.025.172h6.371c.21-.337.532-.587.893-.717zm3.276 1.962a6.393 6.393 0 01-.17.021v.782h.17v-.803zm-.308.035a7.246 7.246 0 01-.218.015v.449h.006v-.14h.212v-.324zm-.356.022l-.166.005v.689h.037v.333h-.268v-.49h-.007v.49h-.223v-.171h-.04v.17h-.25v-.433h-.1v.434h-.151v.02h1.657v-.02h-.179v-.44h-.12v.44h-.248v-.333h.058v-.694zm-.507.484v-.037h-.071v-.444l-.132-.005v.696h.132v-.21h.07zm-.689.465v-.11h-.04v-.884l-.104-.014v.753h.092v.255h.052zm.892-.943h-.136v.296h.07v.091h.066v-.387zm-.544-.015a7.418 7.418 0 01-.25-.02v.478h.003v-.126h.231v.126h.015v-.459zm-8.387 1.142c.387-.221.623-.351 1.093-.336.354.012.524.161.74.423.142.173.127.177.26-.01.098-.139.212-.276.38-.33.11-.034.365-.024.438-.08.038-.028.063-.095.08-.152h-3.938c.332.127.654.285.947.485zm3.028-.616c.085-.291.219-.572.436-.784h-6.855v.564a4.8 4.8 0 012.068.22h4.35zm.594-.915a1.28 1.28 0 011.388 0h.351c.02-.073.04-.146.064-.219h-8.915v.22h7.112zm1.547.13c.035.034.068.07.101.107l.027.032v-.003c.013-.044.022-.09.033-.135h-.161zm.3-.48c.021-.06.044-.118.069-.177h-9.11v.178h9.04zm.127-.307l.048-.096h-9.306v.096h9.258zm-11.067 4.37l-1.959.016v.055h.314v.336h-.129v.137h-.051v.617h1.7v-.554h-.07v-.178h-.112v-.253h.307v-.177zm-3.197.02h-1.992v.156h.282v.253h-.118v.178h-.083v.554h1.713v-.617h-.057v-.137h-.073v-.336h.328v-.052zm-3.045.015c-1.01.279-2.018.57-3.015.894v.47h2.258v-.238h.643v-.554h-.082v-.178h-.112v-.253h.308v-.14zm-7.277-4.662c.344.145.674.38.957.619.099.083.225.187.257.277.01-.002.026-.011.037-.015.508-.201 1.082-.397 1.636-.388v-.805h-.335v-2.668h-.321V8.925h-1.532v1.903h-.377v2.668h-.322v.312zm4.569 1.211c.254.202.51.421.699.686.004.006.006.016.011.02.007 0 .015-.006.022-.008a4.692 4.692 0 012.2-.032c.28.063.483.153.722.31.325.212.386.117.641-.13.88-.85 1.824-.96 2.986-.733.389.076.695.171 1.042.367.27.151.535.27.767.484a.32.32 0 01.031.033c.04-.009.108-.052.145-.072.204-.11.403-.207.62-.286v-2.006h-1.671v1.122h-1.43v-1.906H61.08v1.906h-1.416v-1.099h-1.672v1.344zm7.032 3.809v-.13h.129v-.048h-.315v-.056h-.216v-.087h-.147v-.105h-.257v.105h-.105v.087h-.223v.056h-.328v.048h.073v.13h1.389zm2.122-1.022v.049h.137v.384h-.091v.136h-.105v.345h.763v-.345h-.125v-.136h-.091v-.384h.164v-.05h-.164v-.18h-.351v.18h-.137zm-5.374 1.065h-1.123v.027h1.123v-.027zm-.868-1.065v.049h.136v.384h-.09v.136h-.106v.345h.764v-.345h-.126v-.136h-.09v-.384h.164v-.05h-.165v-.18h-.35v.18h-.137zm11.84.095v.028h-.868v-.007a.996.996 0 00-.485.974l.002.015h1.873a.998.998 0 00-.522-1.01zm-.587-.737v.097h.105v.218h-.126v.268h-.115v.038h.578v-.038h-.087v-.268h-.087v-.413h-.163v.098h-.105zM56.83 17.9v.029h-.867v-.007a.997.997 0 00-.486.974v.002h1.877a.997.997 0 00-.524-.998zm-.587-.736v.097h.105v.218h-.125v.268h-.116v.038h.579v-.038h-.088v-.268h-.087v-.413h-.163v.098h-.105zm10.796-5.736c-.18.263-.383.497-.595.735-.275.308-.704.741-.255 1.11l.005.005c.069.024.446.009.548.008l1.136-.005c.463-.37.036-.804-.245-1.118a7.294 7.294 0 01-.594-.735zm-4.104-2.784h-.033c-.354.532-.765 1.01-1.193 1.482-.177.196-.36.394-.521.604-.217.28-.37.725-.358 1.085-.004.205.048.43.215.564h3.81c.095-.09.164-.422.16-.54a1.968 1.968 0 00-.366-1.11c-.162-.208-.344-.407-.521-.603-.428-.473-.838-.95-1.193-1.482zm-4.077 2.824l-.028-.035-.02.023c-.175.252-.37.478-.575.707-.094.106-.191.213-.277.325-.195.255-.259.555.015.779l.013.01c.067.024.433.009.533.009l1.15-.006c.464-.37.036-.803-.244-1.117a7.577 7.577 0 01-.567-.695zm-4.737-2.846v.047h1.532V8.62c-.51 0-1.02.005-1.532.002zm26.81 9.713h.024v-.149h-.024v.15zm.756 0h.043v-.047h-.043v.047z" fill="#2497D1"/><path d="M55.68 8.498c.42-.355.028-.762-.231-1.052a6.209 6.209 0 01-.552-.687h-.029a6.22 6.22 0 01-.552.687c-.259.29-.651.697-.232 1.052h1.597zm2.687 14.81l12.915.03.03-.127H58.343l.023.098zm12.902.082l-12.89-.029.236.994c1.248-.58 2.19-.265 3.378.243.202.087.4.172.592.243l2.203.005c.817-.31 1.49-.754 2.386-.876a5.774 5.774 0 012.083.136c.483.123.881.324 1.334.505.347-.347.554-.76.678-1.22zM59.29 22.116h10.341v-.348H59.291v.348zm10.341.052H59.291v.126h10.341v-.126zm-3.18-1.114H64.23v.661h2.222v-.662zm-2.222-.194h2.222v-.214H64.23v.214zm-5.9 2.298h13.261v-.295H58.016v.295h.315zm11.218-.81H59.49v.347h10.058v-.348zm-5.345-1.755h2.301v.605h6.966v-1.946h-2.378v.736h-2.455v-.293h-.63v-.699h-1.092v.699h-1.897v-.762h-1.372v.762h-1.911v-.685h-1.05v.685h-.643v.237h-2.456v-.68H55.18v1.946h8.997v-.605h.026zm2.301.772v.35h3.181v.632h-.084v.348h1.895v.116h.148v.4h-.278c-.338.986-.315 1.008-.722 1.42.848.327 2.048.322 2.905.039.679-.225 1.312-.582 1.999-.801.948-.303 1.828-.279 2.716-.134l-.046.046c-.867-.139-1.728-.159-2.655.138-.967.31-1.807.873-2.84.985-.43.046-.95.033-1.377-.032-.752-.116-1.366-.527-2.102-.715a5.713 5.713 0 00-2.063-.135c-.876.119-1.56.562-2.362.87l-.006.016h-.038c-1.546.576-2.247-.121-3.613-.584-.474-.161-.992-.263-1.493-.218-1.108.099-1.875.896-2.876 1.256-.502.18-1.059.238-1.58.113-.502-.121-.984-.42-1.466-.616a6.676 6.676 0 00-1.426-.412l-.047-.061a6.64 6.64 0 011.493.424c.778.318 1.309.737 2.218.672.903-.064 1.538-.545 2.3-.96l.282-.144-.129-.54c-.55.285-1.06.651-1.645.862-.502.18-1.059.238-1.58.113-.502-.121-.984-.42-1.466-.616-.606-.248-1.341-.444-1.996-.472l-.048-.057c.69.024 1.447.228 2.064.48.533.217 1.056.554 1.626.647v-3.158h-.266v-.611c-.509-.582-1.012-.91-1.804-.967-.468-.034-.526-.097-.583-.565-.106-.872-.696-1.565-1.47-1.95l-.089.712h-2.54v.994h3.273l-.51 4.098-.047-.046.498-3.999h-3.266v-1.1h2.546l.692-5.48h-3.252v-1.058h1.718v-.576h-2.99v-1.36l-.129-.02v-.054l.182.03v1.351h2.99v.681h-1.718v.954h3.258l-.124.977c.528-.022 1.062-.018 1.563.17v-.42h.321v-2.67h.377V8.542h-.041v-.043h.024c-.38-.38.007-.79.271-1.087.17-.192.372-.417.56-.7V6.48l-.13-.055.02-.076.11.047v-.26h-.163v-.08h.163v-.178h.083v.178h.162v.08h-.162v.294l.131.055-.02.076-.111-.047v.185c.19.289.394.518.568.713.265.296.65.708.27 1.087h.066v.043h-.071v2.188h.32v2.668h.336v.954c.566.035 1.044.312 1.484.65v-1.61h-.066v-.06h.064c-.477-.424-.038-.896.268-1.238.191-.215.417-.468.628-.787v-.237l-.13-.054.02-.076.11.046v-.26h-.163v-.08h.163v-.177h.083v.177h.163v.08h-.163v.295l.132.055-.02.075-.112-.046v.193c.212.323.44.579.634.796.305.342.744.814.268 1.239h.075v.06h-.085v1.283h1.219v-2.127h-.187v-.123h.072c-.384-.437-.128-1.298.195-1.714.15-.195.34-.405.55-.637.375-.415.818-.904 1.228-1.52v-.45l-.194-.08.03-.114.164.069V7.59h-.243v-.12h.243v-.265h.124v.265h.244v.12h-.244v.44l.198.082-.03.113-.168-.07.02.375c.416.627.865 1.123 1.244 1.543.21.232.4.442.551.637.304.392.583 1.29.23 1.714h.14v.123h-.273v2.127h1.233v-1.283h-.072v-.06h.063c-.475-.424-.038-.896.268-1.238.195-.218.424-.475.637-.8v-.154l-.149-.062.023-.087.126.052v-.297h-.187v-.092h.187v-.203h.095v.203h.187v.092h-.187v.337l.151.063-.022.087-.13-.054v.15c.207.308.427.555.614.765.306.342.744.814.268 1.238h.076v.06h-.08v2.28a4.87 4.87 0 01.966-.2v-.665h-.1v-.35h-.081v-.308h-.09v-.265h3.03c0-.079-.09-.295.016-.308 3.423-.412 4.608-1.418 6.408-2.945A39.909 39.909 0 0180.4 8.81v3.416l1.048.546v.095h.303v.111h.12v.123h.138v.185h-.032l1.174.412-.006.037-1.24-.449v.126h-.077v.098h-.175v.126h-.09v.195h-.072v.032l1.645-.046-.008.085h-1.637v.114c.472.01 1.199.063 1.637.269l.005.056c-.428-.207-1.177-.263-1.642-.272v.004a3.268 3.268 0 00-.384.003v-.006a5.95 5.95 0 00-1.23.145c-.77.19-.77.474 0 .664.81.201 2.07.201 2.881 0 .196-.048.341-.103.437-.16l.013.05c-.234.135-.634.207-.804.234v.96h-.353v.084h.178v.217h-.058v1.282h-.111v.695h-.101v.14h.469l-.034.052h-.482v-.245h.101v-.695h.111v-1.076h-1.62v1.076h.068v.538h.065v.265h.089v.137h-.649v.726h1.99c-.02.064-.04.136-.052.2h-2.702v-.188h.718v-.79h.648v-.032h-.089v-.265h-.064v-.538h-.068v-1.282h-.07v-.098h-.08v-.255h-.093v-.91c-.244-.04-.965-.176-.965-.454 0-.43 1.549-.522 1.854-.53-.197-.264-.494-.57-.78-.732-.717-.408-1.763-.1-2.13.637h-.005c-.178.306-.29.654-.367.998-.018.077-.04.27-.154.16-.09-.086-.15-.167-.255-.246a1.188 1.188 0 00-1.321-.035c-.31.208-.478.56-.575.91-.078.28-.107.334-.402.355-.305.022-.384.11-.552.347-.17.244-.225.19-.387-.007-.199-.241-.347-.379-.673-.39-.45-.014-.668.109-1.046.325.473.346.749.713 1.037 1.214.23.399.244.423.675.41.535-.016 1.193.013 1.657.309.489.312.81.825 1.03 1.349.045.08.019.089.125.086.544-.019 1.141-.004 1.676.096.26-.493.675-.461 1.244-.162.106.056.208.137.293.205.059.047.11.088.146.107.057.03.077-.002.112-.056.118-.183.314-.358.538-.383.248-.028.436.12.663.118.12-.002.222-.043.326-.075l-.007.057c-.113.03-.223.067-.318.068-.229.003-.424-.144-.66-.118-.209.024-.394.19-.504.362-.049.076-.078.122-.17.072-.146-.077-.274-.225-.439-.312-.539-.283-.928-.325-1.175.126.869.174 1.401.536 1.911 1.24l-.031.045a3.21 3.21 0 00-.784-.801c-.767-.519-1.916-.568-2.82-.537-.13.005-.122 0-.174-.118-.216-.51-.534-1.02-1.01-1.325-.48-.306-1.154-.314-1.704-.299-.403.01-.444-.086-.645-.438-.361-.63-.728-1.053-1.359-1.412-.675-.383-1.64-.672-2.422-.687a5.778 5.778 0 00-1.033.088 3.986 3.986 0 00-1.348.472c-.126.068-.16.115-.272.014-.216-.199-.44-.3-.692-.44a2.909 2.909 0 00-.597-.272c-.77-.236-1.806-.329-2.548.013a2.93 2.93 0 00-.823.58c-.293.283-.393.38-.762.141a1.85 1.85 0 00-.69-.296 4.581 4.581 0 00-2.155.032c-.086.022-.086.022-.137-.05-.301-.421-.992-.949-1.465-1.167-.835-.383-1.634-.132-2.436.184-.057.023-.088.048-.123-.011-.057-.09-.19-.2-.27-.267-.872-.732-1.44-.847-2.561-.801l-.478 3.788c.153.076.307.154.482.287.451.342.869.897.991 1.457.02.094.033.188.045.283.05.428.117.46.53.49.764.055 1.299.369 1.801.94v-2.003h.258a1.1 1.1 0 01.524-1.104v-.253h.216v-.206h.126v-.02h-.105v-.294h.105v-.098h.36v.412h.087v.206h.204v.24c.4.22.608.671.547 1.117h.19v.332a71.14 71.14 0 013.107-.92v-.079h.104v-.136h.091v-.186h-.136v-.247h.136v-.182h.55v.182h.163v.247h-.164v.186h.09v.136h.127v.08h2.413v-.053h.14v-.122h.16v.122h.154v.053l2.414-.02v-.06h.105v-.136h.09v-.186h-.136v-.247h.137v-.182h.549v.182h.164v.247h-.165v.186h.091v.136h.126v.107l3.088.889-.014.05-3.074-.884v.22h.283v.16h-.119v.178h-.052v.646h.628v.293h2.35v-.978h.26a1.102 1.102 0 01.522-1.118v-.253h.216v-.206h.126v-.02h-.105v-.294h.105v-.098h.36v.412h.087v.206h.205v.24a1.1 1.1 0 01.544 1.131h.164v.106h.028v.19h-.028v2.495h-.195v2.326c.757-.206 1.464-.626 2.22-.868 1.16-.37 2.196-.253 3.296-.023l-.05.039c-1.066-.215-2.133-.317-3.23.034-.686.22-1.32.577-1.998.802-.756.25-1.767.28-2.545.086a.114.114 0 00.027-.048c.666.162 1.567.161 2.227-.008v-2.392h.195v-.33h-6.966zm-8.078 2.42l-.137-.574h-.325v-.4h.294v-.116h1.18v-.348h-.2v-.632h4.939v-.35H55.18v.219h.265v3.219c1.208.169 1.986-.505 2.98-1.017zm6.195 1.122l-1.882-.01c.68.231 1.203.243 1.882.01zm-7.413 4.27c.589-.293 1.119-.689 1.765-.916.75-.264 1.464-.186 2.206.066.523.178 1.016.435 1.537.615 1.149.398 1.816.1 2.864-.387.476-.22.966-.447 1.594-.532a5.767 5.767 0 012.083.136c.401.102.727.244 1.02.372.16.07.31.135.458.187.645.23 1.582.274 2.262.144l-.04.061c-.939.165-1.829.035-2.7-.344a6.42 6.42 0 00-1.013-.37 5.722 5.722 0 00-2.063-.134c-.604.082-1.096.304-1.64.557-1.042.481-1.705.753-2.842.36-.521-.18-1.014-.438-1.537-.615-1.97-.668-2.522.216-3.922.855l-.032-.056zm-.36-.517c.741-.287 1.35-.803 2.125-1.076.75-.264 1.465-.185 2.206.067.523.177 1.016.434 1.537.614 1.122.389 1.773.118 2.802-.358.55-.255 1.046-.478 1.656-.56a5.776 5.776 0 012.083.135c.401.103.727.245 1.02.372.16.07.31.135.458.188.583.207 1.37.252 1.982.186a4.313 4.313 0 001.023-.253l-.084.085c-1.143.397-2.289.326-3.4-.158a6.441 6.441 0 00-1.012-.369 5.722 5.722 0 00-2.063-.134c-.604.082-1.096.303-1.64.556-1.043.482-1.705.753-2.842.36-.521-.18-1.014-.437-1.537-.615-2.035-.69-3.017.497-4.273 1.01l-.041-.05zm-.588-.573c1.035-.179 1.744-.9 2.713-1.241.75-.264 1.465-.186 2.206.066.523.178 1.016.435 1.537.615 1.122.389 1.773.117 2.802-.358.55-.255 1.046-.478 1.656-.56a5.771 5.771 0 012.083.135c.401.102.727.244 1.02.372.16.07.31.135.458.187.583.207 1.37.252 1.982.186.972-.105 1.779-.617 2.68-.931l-.108.094c-.855.318-1.632.788-2.566.89-.91.098-1.635-.016-2.467-.378-.29-.127-.614-.267-1.012-.37a5.717 5.717 0 00-2.063-.134c-.605.082-1.095.304-1.64.557-1.043.482-1.705.753-2.842.36-.521-.18-1.014-.438-1.537-.615-2.166-.735-2.62.409-4.37 1.038-.156.056-.318.1-.482.131l-.05-.044zm-1.8-1.622c.464.219.907.398 1.525.354 1.189-.085 1.935-.903 2.988-1.274 1.443-.509 2.463.238 3.743.68 1.152.4 1.814.1 2.864-.386.476-.22.966-.447 1.594-.532a5.772 5.772 0 012.083.136c.401.102.727.244 1.02.372.16.07.31.135.458.187.583.207 1.37.253 1.982.186 1.025-.11 1.869-.675 2.83-.982a5.012 5.012 0 011.622-.239l-.044.052a4.956 4.956 0 00-1.562.237c-.967.31-1.806.873-2.84.985-.912.098-1.633-.016-2.467-.378a6.44 6.44 0 00-1.012-.37 5.724 5.724 0 00-2.063-.134c-.605.082-1.095.304-1.64.557-1.042.481-1.705.753-2.842.36-2.643-.914-2.617-.958-3.788-.608-.449.134-.981.53-2.118 1.031-.79.284-1.448.227-2.193-.108l-.14-.126zm-1.342-1.207c.226.068.445.146.649.229.779.317 1.307.736 2.218.672 1.19-.085 1.935-.904 2.988-1.275.75-.264 1.464-.185 2.206.067.523.177 1.016.434 1.537.614 1.151.399 1.814.1 2.864-.386.476-.22.966-.447 1.594-.532a5.774 5.774 0 012.083.135c.401.103.727.245 1.02.372.16.07.31.135.458.188.583.207 1.37.252 1.982.186 1.024-.11 1.87-.675 2.83-.983a5.179 5.179 0 012.11-.212l-.047.048a5.115 5.115 0 00-2.047.214c-.968.31-1.806.873-2.84.985-.91.099-1.634-.015-2.467-.377a6.421 6.421 0 00-1.012-.37 5.717 5.717 0 00-2.063-.134c-.605.082-1.095.304-1.64.556-1.043.482-1.705.754-2.842.36-.521-.18-1.014-.437-1.537-.615-2.168-.735-2.618.409-4.37 1.039-.5.18-1.058.237-1.58.112-.5-.12-.983-.419-1.465-.616-.17-.069-.35-.134-.536-.194l-.093-.083zM81.364 12.92h-.542v.06l.637.004-.095-.064zm.163.065h.177v-.064h-.272l.095.064zm.011.052l-.848-.005v.07h.944l-.096-.065zm-.405.742l.3-.01.002.053-.282.01.01.185h.282v-.238h.072v-.142h-.445v.142h.061zm-.061-.195h.534v-.126h.175v-.045h-.952v.045h.157v.126h.085zm-.243-.224h1.03v-.073h-1.175v.073h.145zm-.145-.125h1.148l-1.237-.08v.08h.09zm.423.629v-.032h-.082v-.195h-.086v-.126h-.157v-.098h-.144v-.126h-.09v-.185h.096v-.123h.132v-.111h.32v-.095h.05l-2.03-1.364v1.708l-.034.01v-1.785l1.284.863V8.883c-.894.654-1.594 1.248-2.22 1.779-1.805 1.531-2.993 2.54-6.426 2.953-.051.006.01.207.014.249h6.435c.438-.728 1.414-1.058 2.176-.625.26.148.508.394.7.625h.062zm1.25 1.147c-.083.012-.17.023-.26.032v.869h.26v-.901zm-.307.036c-.1.01-.203.017-.31.023v.842h-.058v.136h.064v-.44h.092v-.14h.133v.14h.08v-.56zm-.356.025l-.258.008v.78h.037v.24h-.176v-.488h-.11v-.091h-.071v-.443l-.224-.008v.79h.224v-.21h.082v.45h-.131v-.17h-.132v.17h-.157v-.432h-.086v-.126h-.046v.126h-.062v.433h-.086v-.189h-.04v-.878l-.196-.026v.852h.092v.254h.08v.098h1.749v-.111h-.179v-.44h-.08v-.14h-.04v.14h-.091v.44h-.158v-.241h.059v-.788zm-.305.009l-.227-.002v.39h.071v.09h.11v.489h.083v-.136h-.037v-.831zm-.544-.014a7.073 7.073 0 01-.34-.028v.82h.033v-.244h.061v-.126h.14v.126h.085v.433h.064v-.136h-.043v-.845zm-.03 3.314h.187v-.24h-.083v-.594h-.024v.538h-.01v.265h-.07v.031zm.21.053h-.257v-.137h.071v-.265h.01v-.538h.117v.594h.083v.346h-.024zm.236-.053h.175v-.073h-.105v-.761h-.015v.593h-.055v.241zm.198.053h-.245v-.346h.056v-.594h.107v.761h.105v.179h-.023zm.109-.053h.209v-.14h-.11v-.694h-.025v.761h-.074v.073zm.232.053h-.278v-.179h.073v-.761h.118v.695h.11v.245H81.8zm-9.39-2.127c.403-.23.624-.36 1.094-.344.34.011.499.155.706.406.16.195.178.206.333-.013.091-.129.2-.262.356-.312.13-.041.36-.017.453-.087.055-.042.082-.126.113-.235h-4.26c.422.143.838.33 1.206.585zm3.066-.624c.092-.333.248-.655.522-.876h-7.022v.662a4.763 4.763 0 012.11.214h4.39zm.573-.915c.391-.27.969-.275 1.36 0h.4c.027-.105.058-.208.092-.31h-9.024v.31h7.172zm1.411.039c.083.066.144.133.19.182.061.069.077.114.105.011.017-.063.03-.129.045-.193h-.34zm.454-.388c.03-.085.065-.176.107-.27h-9.226v.27h9.12zm.124-.309c.03-.063.062-.126.096-.187h-9.43v.187h9.335zm-11.05 4.278l-2.408.02h.14v.087h.217v.057h.315v.244h-.13v.137h-.051v.709h1.791v-.646h-.07v-.178h-.111v-.16h.307v-.27zm-2.973.02h-2.308v.25h.282v.16h-.118v.178h-.083v.646h1.805v-.71h-.057v-.136h-.073v-.244h.328v-.056h.224v-.087zm-3.27.002a70.694 70.694 0 00-3.106.92v.55h2.35v-.238h.642v-.646h-.08v-.178h-.113v-.16h.308v-.248zm-7.367-4.572c.347.141.688.384.973.624.09.076.22.184.284.285.006.01.036-.008.056-.016.515-.203 1.105-.404 1.665-.383v-.898h-.335v-2.668H55.7V8.879h-1.624v1.903H53.7v2.668h-.321v.389zm4.568 1.204c.255.202.517.424.708.69.03.043.03.043.081.03a4.637 4.637 0 012.18-.032c.28.063.468.144.706.303.345.222.422.13.698-.135.869-.84 1.798-.945 2.945-.721.394.077.675.162 1.029.361.27.152.526.265.758.479.019.016.046.05.072.044.043-.01.115-.054.157-.076.134-.072.36-.194.644-.294v-2.085h-1.763v1.122h-1.338v-1.906h-3.79v1.906H59.71V13.63h-1.763v1.412zm7.124 3.832v-.13h.129v-.14h-.315v-.055h-.216v-.088h-.147v-.105h-.154v-.122h-.055v.122h-.14v.105h-.104v.088h-.224v.055h-.328v.14h.073v.136h.004v-.006h1.477zm2.99-.049h-1.215v.119l1.215-.119zm-.85-1.065h-.11v.14h.137v.293h-.091v.136h-.105v.381h-.307v.055h1.445v-.055h-.283v-.38h-.126v-.137h-.09v-.292h.164v-.141h-.164v-.182h-.443v.182h-.027zm-5.392 1.065h-1.215v.119h1.215v-.119zm-.85-1.065h-.11v.14h.136v.293h-.09v.136h-.106v.381h-.307v.055h1.446v-.055h-.283v-.38h-.126v-.137h-.09v-.292h.163v-.141h-.164v-.182h-.443v.182h-.026zm11.642-.121v.01h.088v.234h-.776v-.234h.115v-.01h-.163v.23a1.046 1.046 0 00-.522 1.088h1.954c.07-.447-.14-.887-.544-1.099v-.22h-.152zm-.42-.52h-.08v.188h.106v.126h-.126v.269h-.115v.128h.67v-.128h-.087v-.27h-.088v-.412h-.254v.098h-.027zm-15.492.52v.01h.087v.234h-.775v-.234h.115v-.01h-.163v.23a1.045 1.045 0 00-.524 1.074h1.957a1.044 1.044 0 00-.546-1.085v-.22h-.151zm-.421-.52h-.078v.188h.104v.126h-.125v.269h-.116v.128h.67v-.128h-.087v-.27h-.087v-.412h-.255v.098h-.026zm10.466-3.787l1.146-.003c.003 0 .015-.01.019-.012.494-.395.056-.854-.24-1.184-.186-.21-.406-.456-.612-.763h-.032c-.207.307-.426.553-.613.763-.298.333-.733.788-.237 1.185.033.027.491.014.569.014zm-5.712-.907h3.842c.128-.094.192-.482.189-.586a2.017 2.017 0 00-.375-1.138 11.044 11.044 0 00-.524-.606c-.44-.485-.839-.95-1.203-1.497h-.081c-.362.547-.765 1.013-1.203 1.497-.2.222-.38.42-.524.606-.204.265-.381.718-.367 1.113-.004.226.056.469.246.61zm-2.511.906l1.16-.002c.004 0 .015-.01.019-.013.494-.394.056-.853-.24-1.184-.189-.213-.412-.463-.622-.778v.015l-.006-.007-.006.007v-.015c-.21.315-.433.565-.623.778-.107.12-.203.228-.28.329-.218.284-.27.618.043.857.033.026.478.013.555.014zm-4.402-4.755l-.042-.002v.141H55.7v-.14c-.528 0-1.053.004-1.582.001zm-7.314 2.926h3.41v.098H46.8l.005-.098z" fill="#2497D1"/><path d="M64.699 4.75c-1.15-1.595-2.411-2.669-3.852-3.285-1.442-.617-3.074-.78-4.962-.555a7.932 7.932 0 00-1.838.445c-2.544.95-4.466 3.152-5.673 5.79-1.216 2.656-1.706 5.75-1.382 8.461.109.908.308 1.77.6 2.554 1.206 3.227 5.482 6.966 8.107 9.26 3.119 2.727 6.208 5.805 9.247 8.654.712-.663 1.33-1.334 1.945-2.001.75-.815 1.496-1.625 2.424-2.431.568-.494 1.273-1.086 2.035-1.728 3.974-3.344 9.577-8.06 10.98-11.666.901-2.317.934-4.85.47-7.204-.576-2.927-1.916-5.57-3.312-7.185-.4-.462-.814-.873-1.237-1.232C76.428 1.078 74.415.474 72.429.628c-1.997.156-3.974 1.078-5.71 2.577-.54.467-1.057.99-1.545 1.564l-.25.294-.225-.313zM61.083.91c1.45.62 2.723 1.662 3.88 3.183.433-.486.888-.935 1.361-1.344 1.834-1.584 3.931-2.558 6.06-2.724 2.14-.166 4.304.481 6.257 2.14.446.379.881.811 1.303 1.3 1.456 1.685 2.853 4.432 3.45 7.463.483 2.454.446 5.102-.502 7.538-1.458 3.748-7.131 8.523-11.155 11.91-.731.615-1.407 1.184-2.027 1.722-.898.78-1.634 1.58-2.375 2.384-.677.735-1.36 1.475-2.19 2.227l-.205.186-9.415-8.825-.224-.196c-2.668-2.332-7.015-6.132-8.273-9.503a11.684 11.684 0 01-.636-2.694c-.337-2.815.172-6.026 1.433-8.783 1.27-2.773 3.304-5.093 6.012-6.104a8.537 8.537 0 011.978-.48c1.991-.238 3.724-.061 5.268.6z" fill="#2497D1"/></svg>