<?xml version="1.0" encoding="utf-8"?><svg width="20" height="20" fill="none" xmlns="http://www.w3.org/2000/svg" viewBox="0 0 20 20"><g clip-path="url(#fclip0_60_592)"><path d="M17.917 3.333H16.11v1.111h1.667v12.223H2.222V4.444H3.89v-1.11H2.083a.989.989 0 00-.972 1.005v12.433a.989.989 0 00.972 1.006h15.834a.99.99 0 00.972-1.006V4.34a.988.988 0 00-.972-1.006z" fill="#7C7C7D"/><path d="M5.556 5.556A.556.556 0 006.11 5V1.667a.556.556 0 00-1.111 0V5a.556.556 0 00.556.556zM14.444 5.556A.556.556 0 0015 5V1.667a.555.555 0 10-1.111 0V5a.555.555 0 00.556.556zM7.222 3.333h5.556v1.111H7.222v-1.11z" fill="#7C7C7D"/><path d="M2 7.5h16" stroke="#7C7C7D"/></g><defs><clipPath id="fclip0_60_592"><path fill="#fff" d="M0 0h20v20H0z"/></clipPath></defs></svg>