<?xml version="1.0" encoding="utf-8"?><svg width="70" height="70" fill="none" xmlns="http://www.w3.org/2000/svg" viewBox="0 0 70 70"><rect y=".5" width="69.295" height="69.215" rx="34.608" fill="#07A2F0"/><path fill-rule="evenodd" clip-rule="evenodd" d="M35.765 15.5a1.25 1.25 0 10-.023 2.5 16.202 16.202 0 0116.052 16.348 1.25 1.25 0 002.5.023 18.702 18.702 0 00-18.529-18.87zM17.5 29.348c.011-.431.19-1 .567-1.659.37-.645.884-1.295 1.449-1.869.567-.575 1.149-1.036 1.63-1.322.215-.128.385-.206.505-.248.023.019.049.041.078.068.178.163.404.407.667.73.525.64 1.127 1.5 1.7 2.405a31.286 31.286 0 011.479 2.579c.19.38.335.7.43.946.036.096.06.167.075.215-.02.03-.05.07-.092.124-.13.161-.278.31-.475.508-.09.091-.191.192-.305.31-.57.588-1.643 1.73-1.323 3.32.087.435.315.885.539 1.267.24.412.553.869.906 1.343.708.95 1.626 2.032 2.591 3.062.965 1.03 1.998 2.033 2.939 2.817.47.392.934.742 1.368 1.018.41.26.886.513 1.362.618.783.173 1.488-.15 1.919-.394.454-.256.914-.61 1.291-.9l.033-.024c.42-.323.758-.58 1.062-.755.188-.107.292-.141.332-.152.042.015.139.051.301.13.244.12.553.295.913.519a31.09 31.09 0 012.405 1.69 27.819 27.819 0 012.199 1.858c.292.28.512.516.658.697l.011.013c-.055.11-.139.252-.258.424-.327.473-.837 1.047-1.46 1.603-.622.555-1.32 1.058-2.01 1.413-.703.36-1.312.524-1.783.513-.49-.012-1.32-.245-2.455-.775-1.099-.512-2.364-1.246-3.684-2.127-2.645-1.765-5.413-4.057-7.39-6.187-2.446-2.636-4.531-5.569-5.991-8.148-.73-1.29-1.293-2.472-1.666-3.469-.385-1.027-.526-1.75-.517-2.161zm4.28-5.133zm23.012 23.857s0 .004-.004.014a.067.067 0 01.004-.014zm-22.514-26.29c-.493-.132-.97-.043-1.318.064-.37.114-.741.295-1.092.503-.703.418-1.45 1.024-2.133 1.717-.684.694-1.34 1.514-1.837 2.38-.489.853-.872 1.838-.897 2.841-.022.895.256 1.98.675 3.099.43 1.15 1.055 2.452 1.831 3.824 1.553 2.743 3.753 5.834 6.335 8.616 2.131 2.297 5.056 4.712 7.834 6.566 1.39.929 2.77 1.732 4.015 2.314 1.21.564 2.426.983 3.451 1.008 1.045.025 2.081-.324 2.986-.789.918-.471 1.789-1.107 2.532-1.77.741-.661 1.391-1.381 1.851-2.046.229-.33.432-.677.571-1.02.123-.303.273-.786.162-1.304-.1-.462-.399-.863-.595-1.106a10.38 10.38 0 00-.873-.93 30.26 30.26 0 00-2.405-2.036 33.552 33.552 0 00-2.608-1.831c-.401-.25-.788-.472-1.134-.641-.31-.152-.71-.325-1.097-.375-.758-.096-1.434.216-1.883.474-.462.266-.924.62-1.303.911l-.035.028c-.423.324-.748.57-1.032.73-.108.062-.18.092-.22.107a3.054 3.054 0 01-.491-.265 11.112 11.112 0 01-1.108-.828c-.84-.7-1.797-1.625-2.714-2.604a34.547 34.547 0 01-2.41-2.847c-.321-.43-.576-.808-.755-1.114a3.96 3.96 0 01-.196-.371c-.035-.077-.047-.117-.05-.125v-.002.003c-.034-.173.023-.423.668-1.088l.195-.198c.232-.233.517-.52.734-.788.285-.353.682-.935.67-1.69-.005-.395-.148-.815-.264-1.117-.134-.35-.318-.752-.53-1.172a33.744 33.744 0 00-1.6-2.796c-.606-.955-1.267-1.904-1.877-2.65a9.645 9.645 0 00-.914-.99c-.26-.238-.66-.564-1.14-.692zm12.18.058a1.25 1.25 0 011.26-1.238 13.601 13.601 0 0113.475 13.722 1.25 1.25 0 01-2.5-.023 11.1 11.1 0 00-10.997-11.2 1.25 1.25 0 01-1.239-1.26zm1.211 4.17a1.25 1.25 0 10-.022 2.5 5.69 5.69 0 015.638 5.742 1.25 1.25 0 102.5.023 8.193 8.193 0 00-8.116-8.266z" fill="#fff"/></svg>