<?xml version="1.0" encoding="utf-8"?><svg width="75" height="70" fill="none" xmlns="http://www.w3.org/2000/svg" viewBox="0 0 75 70"><path d="M48.708 0h-22.86C4.968 0 0 4.667 0 24.245v21.474C0 65.333 4.93 70 25.81 70h22.859c20.88 0 25.848-4.63 25.848-24.245V24.281C74.517 4.667 69.587 0 48.707 0zm11.449 49.948h-5.434c-2.057 0-2.678-1.568-6.365-5.031-3.221-2.917-4.58-3.282-5.394-3.282-1.126 0-1.436.292-1.436 1.75v4.594c0 1.24-.427 1.969-3.881 1.969a22.19 22.19 0 01-9.484-2.79c-2.881-1.624-5.31-3.866-7.089-6.544-4.22-4.935-7.158-10.727-8.577-16.916 0-.766.31-1.459 1.863-1.459h5.434c1.397 0 1.901.584 2.445 1.933 2.639 7.291 7.14 13.635 8.965 13.635.698 0 1.009-.291 1.009-1.932v-7.51c-.233-3.427-2.173-3.72-2.173-4.959.025-.327.185-.631.446-.85.261-.217.602-.331.95-.317h8.54c1.163 0 1.552.547 1.552 1.86v10.135c0 1.094.504 1.459.853 1.459.699 0 1.242-.365 2.523-1.568a41.578 41.578 0 006.676-10.427c.17-.453.494-.84.922-1.104a2.457 2.457 0 011.445-.355h5.433c1.63 0 1.98.766 1.63 1.86a62.92 62.92 0 01-7.296 11.776c-.582.839-.815 1.276 0 2.26.544.766 2.445 2.26 3.726 3.683a22.8 22.8 0 014.58 5.979c.465 1.422-.31 2.15-1.863 2.15z" fill="#fff"/></svg>