<svg width="20" height="20" viewBox="0 0 20 20" fill="none" xmlns="http://www.w3.org/2000/svg">
<g id="clarity:date-line" clip-path="url(#clip0_60_592)">
<path id="Vector" d="M17.9168 3.33337H16.1112V4.44449H17.7779V16.6667H2.22234V4.44449H3.889V3.33337H2.08345C1.95358 3.33554 1.82541 3.36328 1.70626 3.41499C1.58712 3.4667 1.47932 3.54138 1.38904 3.63476C1.29876 3.72814 1.22775 3.83838 1.18009 3.95921C1.13242 4.08003 1.10902 4.20906 1.11123 4.33893V16.7723C1.10902 16.9021 1.13242 17.0312 1.18009 17.152C1.22775 17.2728 1.29876 17.3831 1.38904 17.4764C1.47932 17.5698 1.58712 17.6445 1.70626 17.6962C1.82541 17.7479 1.95358 17.7756 2.08345 17.7778H17.9168C18.0467 17.7756 18.1748 17.7479 18.294 17.6962C18.4131 17.6445 18.5209 17.5698 18.6112 17.4764C18.7015 17.3831 18.7725 17.2728 18.8201 17.152C18.8678 17.0312 18.8912 16.9021 18.889 16.7723V4.33893C18.8912 4.20906 18.8678 4.08003 18.8201 3.95921C18.7725 3.83838 18.7015 3.72814 18.6112 3.63476C18.5209 3.54138 18.4131 3.4667 18.294 3.41499C18.1748 3.36328 18.0467 3.33554 17.9168 3.33337Z" fill="#7C7C7D"/>
<path id="Vector_2" d="M5.55556 5.55553C5.7029 5.55553 5.84421 5.497 5.94839 5.39281C6.05258 5.28862 6.11111 5.14732 6.11111 4.99997V1.66664C6.11111 1.5193 6.05258 1.37799 5.94839 1.2738C5.84421 1.16962 5.7029 1.11108 5.55556 1.11108C5.40821 1.11108 5.26691 1.16962 5.16272 1.2738C5.05853 1.37799 5 1.5193 5 1.66664V4.99997C5 5.14732 5.05853 5.28862 5.16272 5.39281C5.26691 5.497 5.40821 5.55553 5.55556 5.55553Z" fill="#7C7C7D"/>
<path id="Vector_3" d="M14.4445 5.55553C14.5918 5.55553 14.7331 5.497 14.8373 5.39281C14.9415 5.28862 15 5.14732 15 4.99997V1.66664C15 1.5193 14.9415 1.37799 14.8373 1.2738C14.7331 1.16962 14.5918 1.11108 14.4445 1.11108C14.2971 1.11108 14.1558 1.16962 14.0516 1.2738C13.9474 1.37799 13.8889 1.5193 13.8889 1.66664V4.99997C13.8889 5.14732 13.9474 5.28862 14.0516 5.39281C14.1558 5.497 14.2971 5.55553 14.4445 5.55553Z" fill="#7C7C7D"/>
<path id="Vector_4" d="M7.22217 3.33337H12.7777V4.44449H7.22217V3.33337Z" fill="#7C7C7D"/>
<path id="Vector 2" d="M2 7.5H18" stroke="#7C7C7D"/>
</g>
<defs>
<clipPath id="clip0_60_592">
<rect width="20" height="20" fill="white"/>
</clipPath>
</defs>
</svg>
